<?xml version="1.0" encoding="utf-8"?>
<!-- Generator: Adobe Illustrator 23.0.2, SVG Export Plug-In . SVG Version: 6.00 Build 0)  -->
<svg version="1.1" id="Ant" xmlns="http://www.w3.org/2000/svg" xmlns:xlink="http://www.w3.org/1999/xlink" x="0px" y="0px"
	 viewBox="0 0 700 500" style="enable-background:new 0 0 700 500;" xml:space="preserve">
<style type="text/css">
	.st0{fill:#ED1C24;}
	.st1{fill:#FFFFFF;}
</style>
<g id="orange">
	<path class="st0" d="M373.4,300.8c-15,7.3-29.5,6.9-44.2-1.6c-4,9.9-7.9,19.5-12.1,29.8c-10.7-5.3-21.2-10.5-32.3-16
		c-0.9,2-1.7,3.7-2.4,5.5c-9,22.4-18,44.7-26.8,67.2c-1.5,3.8-3.4,4.9-7.3,4.8c-11-0.3-21.9-0.1-33.3-0.1c0-6.7,0-12.9,0-19.6
		c7,0,13.8-0.2,20.6,0.1c3.7,0.2,5.2-1.3,6.5-4.5c9.8-24.9,19.8-49.8,29.8-74.6c0.7-1.8,1.5-3.7,2.5-5.9
		c10.8,5.3,21.3,10.6,32.4,16.1c2.5-6.2,4.9-12.2,7.2-18.2c0.3-0.7,0.3-1.7,0-2.4c-4-9.1-4.6-18.6-2.4-28.7
		c-12.9-0.1-24.7-3.3-35.9-8.7c-22.2-10.7-41.2-25.6-59.4-43c20.8-20,43.2-37.2,71-48c-4.4-7.2-8.5-14.3-13-21.2
		c-0.7-1.1-3.3-1.2-5-1.2c-24.3-0.1-48.7-0.1-73-0.1c-1.8,0-3.6,0-5.8,0c0-6.6,0-12.8,0-19.4c1.7-0.1,3.2-0.3,4.6-0.3
		c28.5,0,57,0,85.5-0.1c3.3,0,5.1,1,6.7,3.8c5.7,9.9,12,19.6,17.5,29.7c2.3,4.3,5.2,5.5,9.8,5.7c15.5,0.8,29.1,5.9,37.6,19.9
		c7.8,12.9,8,27.2,6.7,41.6c-0.3,3.3-1,6.5-1.7,10.1c17.1,2.9,28.9,12.4,35,27.3c10.7-3.6,20.8-8.1,31.4-10.3
		c24.1-5,47.8-2.8,69.7,9.2c5.3,2.9,10.4,6.8,14.7,11.1c16.9,16.9,16.3,40.8-1.3,57c-4.5,4.1-9.8,7.4-15,10.6
		c-2.3,1.4-2.9,2.6-1.8,5.1c4.9,12,9.5,24.1,14.5,36.1c0.6,1.4,3.1,2.9,4.7,3c7,0.3,14,0.1,21.5,0.1c0,6.6,0,12.9,0,19.6
		c-12.2,0-24.2,0.1-36.2-0.2c-1.3,0-3.1-2.1-3.7-3.6c-6.4-15.9-12.8-31.8-18.9-47.8c-1.3-3.4-2.8-4.4-6.5-3.7
		c-19.5,3.6-38.7,2-58.2-4.9c0.5,1.8,0.7,3,1.1,4.2c4.3,10.8,8.8,21.6,12.9,32.5c1.2,3.1,2.8,3.9,5.9,3.8c6.3-0.2,12.6-0.1,19.3-0.1
		c0,6.6,0,12.8,0,19.6c-11.8,0-23.5,0.1-35.1-0.2c-1.2,0-2.8-2.4-3.5-4c-10.7-26.5-21.3-53.1-32-79.6
		C375.2,304.7,374.3,302.9,373.4,300.8z M246.3,201.1c12.4,10.1,25.4,19.1,40,25.8c10.5,4.8,21.4,7,33,4.7
		c10.6-2.1,17.9-8.1,19.4-18.7c1.1-7.6,1-15.6,0.2-23.2c-1.2-10.9-7.8-18.3-18.8-19.5c-7.9-0.9-16.5-1.1-24,0.9
		c-18.6,5-34,16.4-48.8,28.3C246.9,199.8,246.8,200.3,246.3,201.1z M352.6,241c-12.3,0-22.7,10.4-22.8,22.6
		c0,12.4,10.7,23,23.1,22.8c12.3-0.2,22.4-10.5,22.3-22.9C375.1,251,365,241,352.6,241z M460.5,256.9c7.3,18.3,14,35.3,21.4,53.9
		c5.7-5,10.9-8.7,14.8-13.4c5.9-7.1,5.6-14.7-0.1-21.9C487.8,264.2,475.2,259.9,460.5,256.9z M402.6,305c11.9-16.1,23.7-32,36.3-49
		c-15.5,1.4-28.4,5-39.3,14C386.5,280.9,387.5,295,402.6,305z M447.5,277.6c-9.2,12.4-17.8,24.1-26.8,36.3
		c14.5,3.8,27.8,4.8,41.9,1.7C457.5,302.8,452.7,290.6,447.5,277.6z"/>
	<path class="st1" d="M246.3,201.1c0.4-0.8,0.6-1.4,0.9-1.6c14.8-11.9,30.2-23.3,48.8-28.3c7.6-2,16.1-1.8,24-0.9
		c11,1.2,17.7,8.5,18.8,19.5c0.8,7.7,0.9,15.6-0.2,23.2c-1.5,10.6-8.7,16.6-19.4,18.7c-11.6,2.3-22.4,0-33-4.7
		C271.7,220.3,258.7,211.3,246.3,201.1z M290.2,188.2c0,6.7,0,12.7,0,18.8c6.6,0,12.8,0,18.9,0c0-6.5,0-12.6,0-18.8
		C302.7,188.2,296.6,188.2,290.2,188.2z"/>
	<path class="st1" d="M352.6,241c12.5,0,22.6,10,22.6,22.5c0.1,12.4-10,22.7-22.3,22.9c-12.4,0.2-23.1-10.5-23.1-22.8
		C329.8,251.4,340.3,241.1,352.6,241z"/>
	<path class="st1" d="M460.5,256.9c14.7,3,27.3,7.2,36.1,18.5c5.7,7.2,6,14.9,0.1,21.9c-3.9,4.7-9.2,8.4-14.8,13.4
		C474.5,292.2,467.8,275.2,460.5,256.9z"/>
	<path class="st1" d="M402.6,305c-15.1-10-16.1-24.1-3-35c10.9-9,23.8-12.6,39.3-14C426.3,273,414.5,288.9,402.6,305z"/>
	<path class="st1" d="M447.5,277.6c5.2,13.1,10,25.2,15.1,38c-14.2,3.1-27.5,2.2-41.9-1.7C429.7,301.6,438.3,290,447.5,277.6z"/>
	<path class="st0" d="M290.2,188.2c6.4,0,12.5,0,18.9,0c0,6.3,0,12.3,0,18.8c-6.1,0-12.3,0-18.9,0
		C290.2,201,290.2,194.9,290.2,188.2z"/>
</g>
</svg>
