<?xml version="1.0" encoding="utf-8"?>
<!-- Generator: Adobe Illustrator 23.0.2, SVG Export Plug-In . SVG Version: 6.00 Build 0)  -->
<svg version="1.1" id="Layer_1" xmlns="http://www.w3.org/2000/svg" xmlns:xlink="http://www.w3.org/1999/xlink" x="0px" y="0px"
	 viewBox="0 0 400 100" style="enable-background:new 0 0 400 100;" xml:space="preserve">
<style type="text/css">
	.st0{fill:#B43C27;}
</style>
<g id="guides">
</g>
<g id="info">
	<g>
		<path d="M618.7,32.7c-1.2,2-2.8,3.5-4.7,3.5c-1.7,0-2.1-1.1-2.1-2.3c0-0.6,0.1-1.3,0.3-2c-1.7-0.5-2.3-1.8-2.3-2.9
			c0-1.2,0.7-2.3,1.6-2.7l0.6,0.9c-0.2,0.1-1.1,0.8-1.1,1.9c0,0.8,0.7,1.7,1.6,1.9c0.9-2.7,2.7-5.4,4.7-5.4c1.1,0,1.7,0.9,1.7,1.9
			c0,0.9-0.4,2.1-1.4,3.1c-0.9,0.9-2.2,1.5-3.9,1.5h-0.2c-0.2,0.7-0.3,1.4-0.3,1.9c0,0.7,0.3,1.3,1.2,1.3c1.2,0,2.8-1.1,3.9-3
			C618.4,32.3,618.6,32.5,618.7,32.7z M613.8,31.1c1.2,0,2.1-0.5,2.8-1.2s1.1-1.6,1.1-2.3c0-0.5-0.2-0.9-0.6-0.9
			C615.9,26.7,614.6,29,613.8,31.1z"/>
		<path d="M624.9,32.7c-0.9,1.6-2,3-3.2,3c-1.1,0-1.1-1-1.1-1s-0.7,1-1.7,1c-0.8,0-1.2-0.6-1.2-1.3c0-1.3,1.1-5.2,3.2-5.2
			c1,0,1.2,1,1.2,1l0.3-0.8h1.3l-1.6,4c-0.5,1.2-0.3,1.5,0,1.5c0.6,0,1.5-1.2,2.4-2.6C624.6,32.3,624.9,32.5,624.9,32.7z
			 M620.7,33.6l1-2.5c0,0,0-0.9-0.6-0.9c-1.1,0-2.2,3-2.2,3.9c0,0.3,0.1,0.5,0.4,0.5C620,34.7,620.7,33.6,620.7,33.6z"/>
		<path d="M630.9,32.7c-1,1.7-2,3-3.2,3c-1,0-1.5-0.7-0.7-2.8l0.5-1.2c0.2-0.6,0.4-1,0.4-1.2s-0.1-0.3-0.3-0.3
			c-0.3,0-0.9,0.3-1.4,0.9l-1.8,4.5h-1.3l2.5-6.2h1.3l-0.3,0.6c0.6-0.6,1.2-0.8,1.7-0.8s0.9,0.3,0.9,0.9c0,0.4-0.1,0.8-0.4,1.5
			l-0.7,1.8c-0.6,1.4-0.2,1.5,0,1.5c0.6,0,1.6-1.2,2.4-2.6C630.6,32.3,630.9,32.5,630.9,32.7z"/>
		<path d="M637.2,32.7c-0.9,1.6-2,3-3.2,3c-1.1,0-1.1-1-1.1-1s-0.7,1-1.7,1c-0.8,0-1.2-0.6-1.2-1.3c0-1.3,1.1-5.2,3.2-5.2
			c1,0,1.2,1,1.2,1l1.3-3.2h1.3l-2.6,6.4c-0.5,1.3-0.3,1.5,0,1.5c0.6,0,1.6-1.2,2.4-2.6C636.8,32.3,637.1,32.5,637.2,32.7z
			 M633,33.6l1-2.5c0,0,0-0.9-0.6-0.9c-1.1,0-2.2,3-2.2,3.9c0,0.3,0.1,0.5,0.4,0.5C632.3,34.7,633,33.6,633,33.6z"/>
		<path d="M643.1,32.7c-1.2,2.2-2.7,2.9-3.8,3.4c0,0-0.2,0.4-0.3,0.9c-0.5,1.1-1.1,2.1-2.3,2.1c-0.8,0-1.3-0.5-1.2-1.2
			c0-0.7,0.7-1.2,1.3-1.5c0.4-0.2,1.1-0.5,1.4-0.6l0.3-0.8c0,0-0.6,0.7-1.4,0.7c-0.9,0-1.5-0.7-0.6-2.8l1.4-3.6h1.3l-1.6,4
			c-0.5,1.2-0.3,1.4-0.1,1.4c0.7,0,1.6-1.4,2-2.3l1.3-3.2h1.3l-2.4,5.9c1.1-0.6,2.1-1.4,3-2.9C642.7,32.3,643,32.5,643.1,32.7z
			 M636.5,38.2c0.3,0,0.8-0.4,1.3-1.5c-0.4,0.1-0.7,0.3-1,0.5s-0.6,0.4-0.6,0.7C636.1,38.1,636.2,38.2,636.5,38.2z"/>
		<path d="M650.5,31.6l-0.4,1h-3.2l0.4-1C647.3,31.6,650.5,31.6,650.5,31.6z"/>
		<path d="M658.1,35.5h-1v-7.7h-2.7V27h6.4v0.9h-2.7V35.5z"/>
		<path d="M666.3,35.5v-4.2c0-0.5-0.1-0.9-0.4-1.2s-0.6-0.4-1.1-0.4c-0.7,0-1.2,0.2-1.5,0.6s-0.5,1-0.5,1.8v3.4h-1v-9.1h1v2.8
			c0,0.3,0,0.6,0,0.8h0.1c0.2-0.3,0.5-0.6,0.8-0.7s0.8-0.3,1.2-0.3c0.8,0,1.4,0.2,1.8,0.6s0.6,1,0.6,1.8v4.2L666.3,35.5L666.3,35.5z
			"/>
		<path d="M669.2,27.4c0-0.2,0.1-0.4,0.2-0.5s0.2-0.2,0.4-0.2s0.3,0.1,0.4,0.2s0.2,0.3,0.2,0.5s-0.1,0.4-0.2,0.5S670,28,669.8,28
			s-0.3-0.1-0.4-0.2S669.2,27.6,669.2,27.4z M670.3,35.5h-1v-6.4h1V35.5z"/>
		<path d="M675.3,29c0.3,0,0.5,0,0.8,0.1L676,30c-0.3-0.1-0.5-0.1-0.7-0.1c-0.5,0-1,0.2-1.3,0.6s-0.6,0.9-0.6,1.6v3.4h-1v-6.4h0.8
			l0.1,1.2l0,0c0.2-0.4,0.5-0.7,0.9-1S674.9,29,675.3,29z"/>
		<path d="M681.4,33.8c0,0.6-0.2,1.1-0.7,1.4s-1.1,0.5-1.9,0.5c-0.9,0-1.5-0.1-2-0.4v-0.9c0.3,0.2,0.6,0.3,1,0.4s0.7,0.1,1,0.1
			c0.5,0,0.9-0.1,1.2-0.2s0.4-0.4,0.4-0.7c0-0.2-0.1-0.5-0.3-0.6s-0.6-0.4-1.3-0.6c-0.6-0.2-1-0.4-1.3-0.6c-0.3-0.2-0.4-0.4-0.6-0.6
			s-0.2-0.5-0.2-0.8c0-0.5,0.2-0.9,0.6-1.2s1-0.5,1.8-0.5c0.7,0,1.4,0.1,2,0.4l-0.3,0.8c-0.6-0.3-1.2-0.4-1.8-0.4
			c-0.5,0-0.8,0.1-1,0.2s-0.4,0.3-0.4,0.6c0,0.2,0,0.3,0.1,0.4s0.2,0.2,0.4,0.3s0.6,0.3,1.1,0.5c0.8,0.3,1.3,0.6,1.5,0.8
			S681.4,33.4,681.4,33.8z"/>
		<path d="M685,34.9c0.2,0,0.3,0,0.5,0s0.3-0.1,0.4-0.1v0.7c-0.1,0.1-0.3,0.1-0.5,0.1s-0.4,0-0.6,0c-1.2,0-1.9-0.7-1.9-2v-3.8H682
			v-0.5l1-0.3l0.4-1.4h0.6v1.5h1.9v0.8H684v3.8c0,0.4,0.1,0.7,0.3,0.9S684.7,34.9,685,34.9z"/>
		<path d="M686.2,29.1h1l1.4,3.7c0.3,0.8,0.5,1.4,0.6,1.8l0,0c0.1-0.2,0.2-0.5,0.3-1s0.7-2,1.6-4.5h1l-2.8,7.3
			c-0.3,0.7-0.6,1.2-1,1.5s-0.8,0.5-1.3,0.5c-0.3,0-0.6,0-0.9-0.1v-0.8c0.2,0,0.5,0.1,0.7,0.1c0.7,0,1.1-0.4,1.4-1.1l0.4-0.9
			L686.2,29.1z"/>
		<path d="M701.3,33.3c0,0.8-0.3,1.3-0.8,1.8s-1.3,0.6-2.2,0.6c-1,0-1.8-0.1-2.3-0.4v-1c0.4,0.1,0.7,0.3,1.1,0.4s0.8,0.1,1.2,0.1
			c0.7,0,1.2-0.1,1.5-0.4s0.5-0.6,0.5-1.1c0-0.3-0.1-0.5-0.2-0.7s-0.3-0.4-0.6-0.5c-0.3-0.2-0.7-0.3-1.3-0.5c-0.8-0.3-1.4-0.6-1.7-1
			s-0.5-0.9-0.5-1.5c0-0.7,0.2-1.2,0.7-1.6s1.2-0.6,2-0.6c0.9,0,1.6,0.2,2.3,0.5l-0.3,0.9c-0.7-0.3-1.4-0.4-2.1-0.4
			c-0.5,0-0.9,0.1-1.2,0.3s-0.4,0.5-0.4,0.9c0,0.3,0.1,0.5,0.2,0.7s0.3,0.4,0.6,0.5s0.7,0.3,1.2,0.5c0.9,0.3,1.5,0.7,1.9,1
			C701.2,32.2,701.3,32.7,701.3,33.3z"/>
		<path d="M705.5,35.7c-0.9,0-1.6-0.3-2.2-0.9s-0.8-1.4-0.8-2.4c0-1.1,0.3-1.9,0.8-2.5s1.3-0.9,2.2-0.9c0.3,0,0.6,0,0.9,0.1
			s0.6,0.1,0.7,0.2l-0.3,0.8c-0.2-0.1-0.4-0.2-0.7-0.2s-0.5-0.1-0.7-0.1c-1.3,0-2,0.8-2,2.5c0,0.8,0.2,1.4,0.5,1.8s0.8,0.6,1.4,0.6
			c0.5,0,1.1-0.1,1.6-0.3v0.9C706.7,35.6,706.2,35.7,705.5,35.7z"/>
		<path d="M711.6,29c0.3,0,0.5,0,0.8,0.1l-0.1,0.9c-0.3-0.1-0.5-0.1-0.7-0.1c-0.5,0-1,0.2-1.3,0.6s-0.6,0.9-0.6,1.6v3.4h-1v-6.4h0.8
			l0.1,1.2l0,0c0.2-0.4,0.5-0.7,0.9-1S711.2,29,711.6,29z"/>
		<path d="M713.5,27.4c0-0.2,0.1-0.4,0.2-0.5s0.2-0.2,0.4-0.2s0.3,0.1,0.4,0.2s0.2,0.3,0.2,0.5s-0.1,0.4-0.2,0.5s-0.2,0.2-0.4,0.2
			s-0.3-0.1-0.4-0.2S713.5,27.6,713.5,27.4z M714.5,35.5h-1v-6.4h1V35.5z"/>
		<path d="M719.6,35.7c-0.4,0-0.8-0.1-1.1-0.2s-0.6-0.4-0.9-0.7h-0.1c0,0.4,0.1,0.7,0.1,1.1v2.6h-1v-9.3h0.8l0.1,0.9l0,0
			c0.2-0.4,0.5-0.6,0.9-0.8s0.7-0.2,1.1-0.2c0.9,0,1.5,0.3,2,0.9s0.7,1.4,0.7,2.4c0,1.1-0.2,1.9-0.7,2.5S720.4,35.7,719.6,35.7z
			 M719.4,29.8c-0.7,0-1.1,0.2-1.4,0.5s-0.4,0.9-0.5,1.7v0.2c0,0.9,0.2,1.5,0.5,1.9s0.8,0.6,1.4,0.6c0.6,0,1-0.2,1.3-0.7
			s0.5-1.1,0.5-1.9c0-0.8-0.2-1.4-0.5-1.8S720,29.8,719.4,29.8z"/>
		<path d="M726,34.9c0.2,0,0.3,0,0.5,0s0.3-0.1,0.4-0.1v0.7c-0.1,0.1-0.3,0.1-0.5,0.1s-0.4,0-0.6,0c-1.2,0-1.9-0.7-1.9-2v-3.8H723
			v-0.5l1-0.3l0.4-1.4h0.6v1.5h1.9v0.8H725v3.8c0,0.4,0.1,0.7,0.3,0.9S725.7,34.9,726,34.9z"/>
		<path d="M732.4,32v3.6h-1V27h2.3c1.1,0,1.8,0.2,2.3,0.6s0.8,1,0.8,1.8c0,1.1-0.6,1.9-1.7,2.3l2.3,3.8h-1.2l-2.1-3.6h-1.7V32z
			 M732.4,31.1h1.4c0.7,0,1.2-0.1,1.5-0.4s0.5-0.7,0.5-1.3c0-0.6-0.2-1-0.5-1.2s-0.9-0.4-1.6-0.4h-1.3L732.4,31.1L732.4,31.1z"/>
		<path d="M741.4,35.7c-0.9,0-1.7-0.3-2.2-0.9s-0.8-1.4-0.8-2.4s0.3-1.9,0.8-2.5s1.2-0.9,2.1-0.9c0.8,0,1.4,0.3,1.9,0.8
			s0.7,1.2,0.7,2.1v0.6h-4.4c0,0.8,0.2,1.3,0.6,1.7s0.9,0.6,1.5,0.6c0.7,0,1.4-0.1,2.1-0.4v0.9c-0.3,0.1-0.7,0.3-1,0.3
			S741.9,35.7,741.4,35.7z M741.2,29.8c-0.5,0-0.9,0.2-1.2,0.5s-0.5,0.8-0.5,1.4h3.4c0-0.6-0.1-1.1-0.4-1.4S741.7,29.8,741.2,29.8z"
			/>
		<path d="M750.7,29.1v0.6l-1.2,0.1c0.1,0.1,0.2,0.3,0.3,0.5s0.1,0.5,0.1,0.7c0,0.6-0.2,1.1-0.6,1.5s-1,0.6-1.8,0.6
			c-0.2,0-0.4,0-0.5,0c-0.4,0.2-0.6,0.5-0.6,0.8c0,0.2,0.1,0.3,0.2,0.4s0.4,0.1,0.7,0.1h1.1c0.7,0,1.2,0.1,1.6,0.4s0.6,0.7,0.6,1.3
			c0,0.7-0.3,1.3-0.9,1.6s-1.4,0.6-2.5,0.6c-0.8,0-1.5-0.2-1.9-0.5s-0.7-0.8-0.7-1.3c0-0.4,0.1-0.7,0.4-1s0.6-0.5,1.1-0.6
			c-0.2-0.1-0.3-0.2-0.4-0.3s-0.2-0.3-0.2-0.5s0.1-0.4,0.2-0.6s0.3-0.3,0.6-0.5c-0.3-0.1-0.6-0.4-0.8-0.7s-0.3-0.7-0.3-1.1
			c0-0.7,0.2-1.2,0.6-1.6s1-0.6,1.8-0.6c0.3,0,0.6,0,0.9,0.1C748.5,29.1,750.7,29.1,750.7,29.1z M745.6,36.6c0,0.3,0.1,0.6,0.4,0.8
			s0.7,0.3,1.3,0.3c0.8,0,1.4-0.1,1.8-0.4s0.6-0.6,0.6-1c0-0.3-0.1-0.6-0.3-0.7s-0.6-0.2-1.2-0.2H747c-0.4,0-0.8,0.1-1,0.3
			S745.6,36.2,745.6,36.6z M746.1,31.2c0,0.4,0.1,0.8,0.4,1c0.3,0.2,0.6,0.3,1.1,0.3c0.9,0,1.4-0.5,1.4-1.4c0-1-0.5-1.4-1.4-1.4
			c-0.5,0-0.8,0.1-1.1,0.4S746.1,30.7,746.1,31.2z"/>
		<path d="M752.9,29.1v4.2c0,0.5,0.1,0.9,0.4,1.2s0.6,0.4,1.1,0.4c0.7,0,1.2-0.2,1.5-0.6s0.5-1,0.5-1.8v-3.4h1v6.4h-0.8l-0.1-0.9
			h-0.1c-0.2,0.3-0.5,0.6-0.8,0.7s-0.8,0.3-1.2,0.3c-0.8,0-1.4-0.2-1.8-0.6s-0.6-1-0.6-1.8V29L752.9,29.1L752.9,29.1z"/>
		<path d="M760.4,35.5h-1v-9.1h1V35.5z"/>
		<path d="M766.4,35.5l-0.2-0.9l0,0c-0.3,0.4-0.6,0.7-1,0.8s-0.7,0.2-1.2,0.2c-0.6,0-1.1-0.2-1.5-0.5s-0.5-0.8-0.5-1.4
			c0-1.3,1-2,3.1-2h1.1v-0.4c0-0.5-0.1-0.9-0.3-1.1s-0.6-0.4-1-0.4c-0.5,0-1.1,0.2-1.8,0.5l-0.3-0.7c0.3-0.2,0.7-0.3,1-0.4
			s0.8-0.1,1.1-0.1c0.8,0,1.3,0.2,1.7,0.5s0.6,0.9,0.6,1.6v4.4L766.4,35.5L766.4,35.5z M764.2,34.9c0.6,0,1.1-0.2,1.4-0.5
			s0.5-0.8,0.5-1.4v-0.6h-1c-0.8,0-1.3,0.1-1.7,0.4s-0.5,0.5-0.5,1c0,0.4,0.1,0.6,0.3,0.8S763.8,34.9,764.2,34.9z"/>
		<path d="M772,29c0.3,0,0.5,0,0.8,0.1l-0.1,0.9c-0.3-0.1-0.5-0.1-0.7-0.1c-0.5,0-1,0.2-1.3,0.6s-0.6,0.9-0.6,1.6v3.4h-1v-6.4h0.8
			l0.1,1.2l0,0c0.2-0.4,0.5-0.7,0.9-1S771.6,29,772,29z"/>
		<path d="M776.8,31.9c0-1.7,0.3-2.9,1-3.8s1.6-1.3,2.9-1.3c0.4,0,0.8,0,1,0.1v0.8c-0.3-0.1-0.6-0.1-1-0.1c-0.9,0-1.6,0.3-2.1,0.9
			s-0.8,1.5-0.8,2.7h0.1c0.4-0.7,1.1-1,2-1c0.8,0,1.4,0.2,1.8,0.7s0.7,1.1,0.7,1.9c0,0.9-0.2,1.6-0.7,2.1s-1.1,0.8-2,0.8
			s-1.6-0.3-2.1-1S776.8,33.1,776.8,31.9z M779.6,34.8c0.6,0,1-0.2,1.3-0.5s0.5-0.9,0.5-1.5s-0.1-1-0.4-1.3s-0.7-0.5-1.3-0.5
			c-0.4,0-0.7,0.1-1,0.2s-0.5,0.3-0.7,0.6s-0.3,0.5-0.3,0.8c0,0.4,0.1,0.8,0.2,1.1s0.4,0.6,0.7,0.8S779.3,34.8,779.6,34.8z"/>
		<path d="M789.2,35.5h-5.6v-0.8l2.3-2.3c0.7-0.7,1.1-1.2,1.4-1.5s0.4-0.6,0.5-0.9s0.2-0.6,0.2-0.9c0-0.5-0.1-0.8-0.4-1.1
			s-0.7-0.4-1.2-0.4c-0.4,0-0.7,0.1-1,0.2s-0.7,0.3-1.1,0.6l-0.5-0.7c0.8-0.7,1.6-1,2.6-1c0.8,0,1.4,0.2,1.9,0.6s0.7,1,0.7,1.7
			c0,0.5-0.2,1.1-0.5,1.6s-0.9,1.2-1.7,2l-1.9,1.8l0,0h4.4v1.1H789.2z"/>
		<path d="M793.8,35.7c-0.4,0-0.8-0.1-1.1-0.2s-0.6-0.4-0.9-0.7h-0.1c0,0.4,0.1,0.7,0.1,1.1v2.6h-1v-9.3h0.8l0.1,0.9l0,0
			c0.2-0.4,0.5-0.6,0.9-0.8s0.7-0.2,1.1-0.2c0.9,0,1.5,0.3,2,0.9s0.7,1.4,0.7,2.4c0,1.1-0.2,1.9-0.7,2.5S794.7,35.7,793.8,35.7z
			 M793.7,29.8c-0.7,0-1.1,0.2-1.4,0.5s-0.4,0.9-0.5,1.7v0.2c0,0.9,0.2,1.5,0.5,1.9s0.8,0.6,1.4,0.6c0.6,0,1-0.2,1.3-0.7
			s0.5-1.1,0.5-1.9c0-0.8-0.2-1.4-0.5-1.8S794.3,29.8,793.7,29.8z"/>
		<path d="M799.7,32.3l-2.2-3.1h1.1l1.7,2.5l1.7-2.5h1.1l-2.2,3.1l2.3,3.3h-1.1l-1.8-2.6l-1.8,2.6h-1.1L799.7,32.3z"/>
	</g>
	<g>
		<path d="M610.2,49.1c-0.1-0.1-0.1-0.3,0-0.4c0.1-0.1,0.1-0.2,0.3-0.3c0.1,0,0.1,0,0.2,0c0.1,0,0.2,0,0.3,0.1s0.2,0.1,0.2,0.2
			l2.4,5.6l2.4-5.6c0-0.1,0.1-0.2,0.2-0.2c0.1-0.1,0.2-0.1,0.3-0.1s0.1,0,0.2,0c0.1,0.1,0.2,0.1,0.3,0.3c0.1,0.1,0.1,0.3,0,0.4
			l-2.9,6.6c0,0.1-0.1,0.2-0.2,0.2c-0.1,0.1-0.2,0.1-0.3,0.1s-0.2,0-0.3-0.1s-0.1-0.1-0.2-0.2L610.2,49.1z"/>
		<path d="M621.8,54.5h-3.7l-0.6,1.3c0,0.1-0.1,0.2-0.2,0.2c-0.1,0.1-0.2,0.1-0.3,0.1s-0.2,0-0.2,0c-0.1-0.1-0.2-0.1-0.3-0.3
			c0-0.1,0-0.3,0-0.4l2.9-6.6c0.1-0.2,0.2-0.3,0.5-0.3c0.1,0,0.2,0,0.3,0.1s0.1,0.1,0.2,0.2l2.9,6.6c0.1,0.1,0.1,0.3,0,0.4
			S623.2,56,623,56c-0.1,0-0.1,0-0.2,0c-0.1,0-0.2,0-0.3-0.1s-0.2-0.1-0.2-0.2L621.8,54.5z M618.5,53.4h2.8l-1.4-3.4L618.5,53.4z"/>
		<path d="M625.7,55h3.7c0.1,0,0.1,0,0.2,0c0.1,0,0.1,0.1,0.2,0.1s0.1,0.1,0.1,0.2c0,0.1,0,0.1,0,0.2c0,0.1,0,0.1,0,0.2
			c0,0.1-0.1,0.1-0.1,0.2s-0.1,0.1-0.2,0.1c-0.1,0-0.1,0-0.2,0h-4.2c-0.1,0-0.2-0.1-0.3-0.2c-0.1-0.1-0.1-0.2-0.1-0.3v-6.7
			c0-0.1,0-0.1,0-0.2s0.1-0.1,0.1-0.2c0,0,0.1-0.1,0.2-0.1c0.1,0,0.1,0,0.2,0c0.1,0,0.3,0,0.4,0.1c0.1,0.1,0.2,0.2,0.2,0.4V55H625.7
			z"/>
		<path d="M632.4,55h3.7c0.1,0,0.1,0,0.2,0c0.1,0,0.1,0.1,0.2,0.1s0.1,0.1,0.1,0.2c0,0.1,0,0.1,0,0.2c0,0.1,0,0.1,0,0.2
			c0,0.1-0.1,0.1-0.1,0.2s-0.1,0.1-0.2,0.1c-0.1,0-0.1,0-0.2,0h-4.2c-0.1,0-0.2-0.1-0.3-0.2c-0.1-0.1-0.1-0.2-0.1-0.3v-6.7
			c0-0.1,0-0.1,0-0.2s0.1-0.1,0.1-0.2c0,0,0.1-0.1,0.2-0.1c0.1,0,0.1,0,0.2,0c0.1,0,0.3,0,0.4,0.1c0.1,0.1,0.2,0.2,0.2,0.4V55H632.4
			z"/>
		<path d="M638.7,56.1c-0.1,0-0.3-0.1-0.3-0.2c-0.1-0.1-0.1-0.2-0.1-0.4v-6.6c0-0.1,0.1-0.3,0.2-0.4c0.1-0.1,0.2-0.1,0.4-0.1h4.4
			c0.1,0,0.3,0.1,0.4,0.2c0.1,0.1,0.1,0.2,0.1,0.4s0,0.3-0.1,0.4c-0.1,0.1-0.2,0.2-0.4,0.2h-3.9v2.2h3c0.1,0,0.1,0,0.2,0
			c0.1,0,0.1,0.1,0.2,0.1c0,0,0.1,0.1,0.1,0.2s0,0.1,0,0.2c0,0.1,0,0.3-0.2,0.4c-0.1,0.1-0.2,0.1-0.4,0.1h-3V55h3.9
			c0.1,0,0.1,0,0.2,0c0.1,0,0.1,0.1,0.2,0.1c0,0,0.1,0.1,0.1,0.2c0,0.1,0,0.1,0,0.2c0,0.1,0,0.3-0.1,0.4c-0.1,0.1-0.2,0.1-0.4,0.1
			L638.7,56.1L638.7,56.1z"/>
		<path d="M647.8,51.9l2.5-3.3c0.1-0.1,0.2-0.2,0.4-0.2c0.1,0,0.2,0,0.3,0.1s0.2,0.2,0.2,0.3s0,0.3-0.1,0.4l-2.8,3.5v2.8
			c0,0.1,0,0.3-0.1,0.4c-0.1,0.1-0.2,0.1-0.4,0.1s-0.3,0-0.4-0.1c-0.1-0.1-0.1-0.2-0.1-0.4v-2.8l-2.8-3.5c-0.1-0.1-0.1-0.2-0.1-0.4
			c0-0.1,0.1-0.3,0.2-0.4c0,0,0.1-0.1,0.2-0.1s0.1,0,0.2,0c0.1,0,0.1,0,0.2,0c0.1,0,0.1,0.1,0.2,0.1L647.8,51.9z"/>
		<path d="M658.5,52.1c0.1,0,0.3,0.1,0.4,0.2c0.1,0.1,0.2,0.2,0.2,0.4c0,0.1-0.1,0.3-0.2,0.4c-0.1,0.1-0.2,0.2-0.4,0.2H655
			c-0.1,0-0.1,0-0.2,0c-0.1,0-0.1-0.1-0.2-0.1s-0.1-0.1-0.1-0.2c0-0.1,0-0.1,0-0.2c0-0.1,0.1-0.3,0.2-0.4c0.1-0.1,0.2-0.2,0.4-0.2
			h3.4V52.1z"/>
		<path d="M668.8,56.1l-1.1-2.7h-3.4l-1.1,2.7h-1l3.4-8.6h0.8l3.4,8.6H668.8z M667.5,52.5l-1-2.7c-0.1-0.3-0.3-0.7-0.4-1.2
			c-0.1,0.4-0.2,0.8-0.4,1.2l-1,2.7H667.5z"/>
		<path d="M673.8,49.5c0.3,0,0.5,0,0.8,0.1l-0.1,0.9c-0.3-0.1-0.5-0.1-0.7-0.1c-0.5,0-1,0.2-1.3,0.6s-0.6,0.9-0.6,1.6V56h-1v-6.4
			h0.8l0.1,1.2l0,0c0.2-0.4,0.5-0.7,0.9-1S673.4,49.5,673.8,49.5z"/>
		<path d="M675.7,47.9c0-0.2,0.1-0.4,0.2-0.5s0.2-0.2,0.4-0.2s0.3,0.1,0.4,0.2s0.2,0.3,0.2,0.5s-0.1,0.4-0.2,0.5s-0.2,0.2-0.4,0.2
			s-0.3-0.1-0.4-0.2S675.7,48.1,675.7,47.9z M676.8,56.1h-1v-6.4h1V56.1z"/>
		<path d="M683,54.3c0,0.6-0.2,1.1-0.7,1.4s-1.1,0.5-1.9,0.5c-0.9,0-1.5-0.1-2-0.4v-0.9c0.3,0.2,0.6,0.3,1,0.4s0.7,0.1,1,0.1
			c0.5,0,0.9-0.1,1.2-0.2s0.4-0.4,0.4-0.7c0-0.2-0.1-0.5-0.3-0.6s-0.6-0.4-1.3-0.6c-0.6-0.2-1-0.4-1.3-0.6s-0.4-0.4-0.6-0.6
			s-0.2-0.5-0.2-0.8c0-0.5,0.2-0.9,0.6-1.2s1-0.5,1.8-0.5c0.7,0,1.4,0.1,2,0.4l-0.3,0.8c-0.6-0.3-1.2-0.4-1.8-0.4
			c-0.5,0-0.8,0.1-1,0.2s-0.4,0.3-0.4,0.6c0,0.2,0,0.3,0.1,0.4s0.2,0.2,0.4,0.3s0.6,0.3,1.1,0.5c0.8,0.3,1.3,0.6,1.5,0.8
			S683,53.9,683,54.3z"/>
		<path d="M686.6,55.4c0.2,0,0.3,0,0.5,0s0.3-0.1,0.4-0.1V56c-0.1,0.1-0.3,0.1-0.5,0.1s-0.4,0-0.6,0c-1.2,0-1.9-0.7-1.9-2v-3.8h-0.9
			v-0.5l0.9-0.4l0.4-1.4h0.6v1.5h1.9v0.8h-1.9v3.8c0,0.4,0.1,0.7,0.3,0.9S686.3,55.4,686.6,55.4z"/>
		<path d="M694.3,52.9c0,1-0.3,1.9-0.8,2.5s-1.3,0.9-2.2,0.9c-0.6,0-1.1-0.1-1.5-0.4s-0.8-0.7-1-1.2s-0.4-1.1-0.4-1.8
			c0-1,0.3-1.9,0.8-2.4s1.2-0.9,2.2-0.9c0.9,0,1.6,0.3,2.1,0.9S694.3,51.8,694.3,52.9z M689.5,52.9c0,0.8,0.2,1.4,0.5,1.9
			s0.8,0.6,1.4,0.6s1.1-0.2,1.5-0.6s0.5-1.1,0.5-1.9c0-0.8-0.2-1.4-0.5-1.9s-0.8-0.6-1.5-0.6c-0.6,0-1.1,0.2-1.4,0.6
			S689.5,52,689.5,52.9z"/>
		<path d="M698.1,55.4c0.2,0,0.3,0,0.5,0s0.3-0.1,0.4-0.1V56c-0.1,0.1-0.3,0.1-0.5,0.1s-0.4,0-0.6,0c-1.2,0-1.9-0.7-1.9-2v-3.8h-0.9
			v-0.5l0.9-0.4l0.4-1.4h0.6v1.5h1.9v0.8H697v3.8c0,0.4,0.1,0.7,0.3,0.9S697.8,55.4,698.1,55.4z"/>
		<path d="M703,56.2c-0.9,0-1.7-0.3-2.2-0.9s-0.8-1.4-0.8-2.4s0.3-1.9,0.8-2.5s1.2-0.9,2.1-0.9c0.8,0,1.4,0.3,1.9,0.8
			s0.7,1.2,0.7,2.1V53h-4.4c0,0.8,0.2,1.3,0.6,1.7s0.9,0.6,1.5,0.6c0.7,0,1.4-0.1,2.1-0.4v0.9c-0.3,0.1-0.7,0.3-1,0.3
			S703.4,56.2,703,56.2z M702.7,50.4c-0.5,0-0.9,0.2-1.2,0.5s-0.5,0.8-0.5,1.4h3.4c0-0.6-0.1-1.1-0.4-1.4S703.2,50.4,702.7,50.4z"/>
		<path d="M708,56.1h-1V47h1V56.1z"/>
		<path d="M710,47.9c0-0.2,0.1-0.4,0.2-0.5s0.2-0.2,0.4-0.2s0.3,0.1,0.4,0.2s0.2,0.3,0.2,0.5s-0.1,0.4-0.2,0.5s-0.2,0.2-0.4,0.2
			s-0.3-0.1-0.4-0.2S710,48.1,710,47.9z M711,56.1h-1v-6.4h1V56.1z"/>
		<path d="M715.7,56.2c-0.9,0-1.6-0.3-2.2-0.9s-0.8-1.4-0.8-2.4c0-1.1,0.3-1.9,0.8-2.5s1.3-0.9,2.2-0.9c0.3,0,0.6,0,0.9,0.1
			s0.6,0.1,0.7,0.2l-0.3,0.8c-0.2-0.1-0.4-0.2-0.7-0.2s-0.5-0.1-0.7-0.1c-1.3,0-2,0.8-2,2.5c0,0.8,0.2,1.4,0.5,1.8s0.8,0.6,1.4,0.6
			c0.5,0,1.1-0.1,1.6-0.3v0.9C716.8,56.1,716.3,56.2,715.7,56.2z"/>
		<path d="M722.8,56.1l-0.2-0.9l0,0c-0.3,0.4-0.6,0.7-1,0.8s-0.7,0.2-1.2,0.2c-0.6,0-1.1-0.2-1.5-0.5s-0.5-0.8-0.5-1.4
			c0-1.3,1-2,3.1-2h1.1v-0.4c0-0.5-0.1-0.9-0.3-1.1s-0.6-0.4-1-0.4c-0.5,0-1.1,0.2-1.8,0.5l-0.3-0.7c0.3-0.2,0.7-0.3,1-0.4
			s0.8-0.1,1.1-0.1c0.8,0,1.3,0.2,1.7,0.5s0.6,0.9,0.6,1.6v4.4L722.8,56.1L722.8,56.1z M720.6,55.4c0.6,0,1.1-0.2,1.4-0.5
			s0.5-0.8,0.5-1.4v-0.6h-1c-0.8,0-1.3,0.1-1.7,0.4s-0.5,0.5-0.5,1c0,0.4,0.1,0.6,0.3,0.8S720.2,55.4,720.6,55.4z"/>
		<path d="M733.6,53.8c0,0.8-0.3,1.3-0.8,1.8s-1.3,0.6-2.2,0.6c-1,0-1.8-0.1-2.3-0.4v-1c0.4,0.1,0.7,0.3,1.1,0.4s0.8,0.1,1.2,0.1
			c0.7,0,1.2-0.1,1.5-0.4s0.5-0.6,0.5-1.1c0-0.3-0.1-0.5-0.2-0.7s-0.3-0.4-0.6-0.5s-0.7-0.3-1.3-0.5c-0.8-0.3-1.4-0.6-1.7-1
			s-0.5-0.9-0.5-1.5c0-0.7,0.2-1.2,0.7-1.6s1.2-0.6,2-0.6c0.9,0,1.6,0.2,2.3,0.5l-0.3,0.9c-0.7-0.3-1.4-0.4-2.1-0.4
			c-0.5,0-0.9,0.1-1.2,0.3s-0.4,0.5-0.4,0.9c0,0.3,0.1,0.5,0.2,0.7s0.3,0.4,0.6,0.5s0.7,0.3,1.2,0.5c0.9,0.3,1.5,0.7,1.9,1
			S733.6,53.2,733.6,53.8z"/>
		<path d="M743.4,56.1v-4.2c0-0.5-0.1-0.9-0.3-1.2s-0.6-0.4-1-0.4c-0.6,0-1.1,0.2-1.3,0.5s-0.4,0.9-0.4,1.6V56h-1v-4.2
			c0-0.5-0.1-0.9-0.3-1.2s-0.6-0.4-1-0.4c-0.6,0-1.1,0.2-1.3,0.5s-0.4,1-0.4,1.8v3.4h-1v-6.4h0.8l0.2,0.9l0,0
			c0.2-0.3,0.4-0.6,0.8-0.7s0.7-0.3,1.1-0.3c1,0,1.7,0.4,2,1.1l0,0c0.2-0.3,0.5-0.6,0.8-0.8s0.8-0.3,1.2-0.3c0.7,0,1.3,0.2,1.6,0.6
			s0.5,1,0.5,1.8V56h-1V56.1z"/>
		<path d="M750.3,56.1l-0.2-0.9l0,0c-0.3,0.4-0.6,0.7-1,0.8s-0.7,0.2-1.2,0.2c-0.6,0-1.1-0.2-1.5-0.5s-0.5-0.8-0.5-1.4
			c0-1.3,1-2,3.1-2h1.1v-0.4c0-0.5-0.1-0.9-0.3-1.1s-0.6-0.4-1-0.4c-0.5,0-1.1,0.2-1.8,0.5l-0.3-0.7c0.3-0.2,0.7-0.3,1-0.4
			s0.8-0.1,1.1-0.1c0.8,0,1.3,0.2,1.7,0.5s0.6,0.9,0.6,1.6v4.4L750.3,56.1L750.3,56.1z M748.1,55.4c0.6,0,1.1-0.2,1.4-0.5
			s0.5-0.8,0.5-1.4v-0.6h-1c-0.8,0-1.3,0.1-1.7,0.4s-0.5,0.5-0.5,1c0,0.4,0.1,0.6,0.3,0.8S747.7,55.4,748.1,55.4z"/>
		<path d="M754,56.1h-1V47h1V56.1z"/>
		<path d="M757,56.1h-1V47h1V56.1z"/>
		<path d="M766,48.3c-0.9,0-1.7,0.3-2.2,0.9s-0.8,1.5-0.8,2.6s0.3,2,0.8,2.6s1.3,0.9,2.2,0.9c0.6,0,1.3-0.1,2-0.3v0.9
			c-0.6,0.2-1.3,0.3-2.2,0.3c-1.3,0-2.2-0.4-2.9-1.1s-1-1.9-1-3.3c0-0.9,0.2-1.7,0.5-2.3s0.8-1.2,1.4-1.5s1.4-0.5,2.2-0.5
			c0.9,0,1.7,0.2,2.4,0.5l-0.4,0.9C767.3,48.4,766.7,48.3,766,48.3z"/>
		<path d="M773.7,56.1l-0.2-0.9l0,0c-0.3,0.4-0.6,0.7-1,0.8s-0.7,0.2-1.2,0.2c-0.6,0-1.1-0.2-1.5-0.5s-0.5-0.8-0.5-1.4
			c0-1.3,1-2,3.1-2h1.1v-0.4c0-0.5-0.1-0.9-0.3-1.1s-0.6-0.4-1-0.4c-0.5,0-1.1,0.2-1.8,0.5l-0.3-0.7c0.3-0.2,0.7-0.3,1-0.4
			s0.8-0.1,1.1-0.1c0.8,0,1.3,0.2,1.7,0.5s0.6,0.9,0.6,1.6v4.4L773.7,56.1L773.7,56.1z M771.5,55.4c0.6,0,1.1-0.2,1.4-0.5
			s0.5-0.8,0.5-1.4v-0.6h-1c-0.8,0-1.3,0.1-1.7,0.4s-0.5,0.5-0.5,1c0,0.4,0.1,0.6,0.3,0.8S771.1,55.4,771.5,55.4z"/>
		<path d="M779.4,56.2c-0.4,0-0.8-0.1-1.1-0.2s-0.6-0.4-0.9-0.7h-0.1c0,0.4,0.1,0.7,0.1,1.1V59h-1v-9.3h0.8l0.1,0.9l0,0
			c0.2-0.4,0.5-0.6,0.9-0.8s0.7-0.2,1.1-0.2c0.9,0,1.5,0.3,2,0.9s0.7,1.4,0.7,2.4c0,1.1-0.2,1.9-0.7,2.5S780.3,56.2,779.4,56.2z
			 M779.3,50.4c-0.7,0-1.1,0.2-1.4,0.5s-0.4,0.9-0.5,1.7v0.2c0,0.9,0.2,1.5,0.5,1.9s0.8,0.6,1.4,0.6c0.6,0,1-0.2,1.3-0.7
			s0.5-1.1,0.5-1.9c0-0.8-0.2-1.4-0.5-1.8S779.9,50.4,779.3,50.4z"/>
		<path d="M787.9,54.3c0,0.6-0.2,1.1-0.7,1.4s-1.1,0.5-1.9,0.5c-0.9,0-1.5-0.1-2-0.4v-0.9c0.3,0.2,0.6,0.3,1,0.4s0.7,0.1,1,0.1
			c0.5,0,0.9-0.1,1.2-0.2s0.4-0.4,0.4-0.7c0-0.2-0.1-0.5-0.3-0.6s-0.6-0.4-1.3-0.6c-0.6-0.2-1-0.4-1.3-0.6s-0.4-0.4-0.6-0.6
			s-0.2-0.5-0.2-0.8c0-0.5,0.2-0.9,0.6-1.2s1-0.5,1.8-0.5c0.7,0,1.4,0.1,2,0.4l-0.3,0.8c-0.6-0.3-1.2-0.4-1.8-0.4
			c-0.5,0-0.8,0.1-1,0.2s-0.4,0.3-0.4,0.6c0,0.2,0,0.3,0.1,0.4s0.2,0.2,0.4,0.3s0.6,0.3,1.1,0.5c0.8,0.3,1.3,0.6,1.5,0.8
			S787.9,53.9,787.9,54.3z"/>
		<path d="M793.8,52.5v3.6h-1v-8.6h2.3c1.1,0,1.8,0.2,2.3,0.6s0.8,1,0.8,1.8c0,1.1-0.6,1.9-1.7,2.3l2.3,3.8h-1.2l-2.1-3.6h-1.7V52.5
			z M793.8,51.7h1.4c0.7,0,1.2-0.1,1.5-0.4s0.5-0.7,0.5-1.3s-0.2-1-0.5-1.2s-0.9-0.4-1.6-0.4h-1.3L793.8,51.7L793.8,51.7z"/>
		<path d="M802.8,56.2c-0.9,0-1.7-0.3-2.2-0.9s-0.8-1.4-0.8-2.4s0.3-1.9,0.8-2.5s1.2-0.9,2.1-0.9c0.8,0,1.4,0.3,1.9,0.8
			s0.7,1.2,0.7,2.1V53h-4.4c0,0.8,0.2,1.3,0.6,1.7s0.9,0.6,1.5,0.6c0.7,0,1.4-0.1,2.1-0.4v0.9c-0.3,0.1-0.7,0.3-1,0.3
			S803.2,56.2,802.8,56.2z M802.5,50.4c-0.5,0-0.9,0.2-1.2,0.5s-0.5,0.8-0.5,1.4h3.4c0-0.6-0.1-1.1-0.4-1.4S803,50.4,802.5,50.4z"/>
		<path d="M812,49.7v0.6l-1.2,0.1c0.1,0.1,0.2,0.3,0.3,0.5s0.1,0.5,0.1,0.7c0,0.6-0.2,1.1-0.6,1.5s-1,0.6-1.8,0.6
			c-0.2,0-0.4,0-0.5,0c-0.4,0.2-0.6,0.5-0.6,0.8c0,0.2,0.1,0.3,0.2,0.4s0.4,0.1,0.7,0.1h1.1c0.7,0,1.2,0.1,1.6,0.4s0.6,0.7,0.6,1.3
			c0,0.7-0.3,1.3-0.9,1.6s-1.4,0.6-2.5,0.6c-0.8,0-1.5-0.2-1.9-0.5s-0.7-0.8-0.7-1.3c0-0.4,0.1-0.7,0.4-1s0.6-0.5,1.1-0.6
			c-0.2-0.1-0.3-0.2-0.4-0.3s-0.2-0.3-0.2-0.5s0.1-0.4,0.2-0.6s0.3-0.3,0.6-0.5c-0.3-0.1-0.6-0.4-0.8-0.7s-0.3-0.7-0.3-1.1
			c0-0.7,0.2-1.2,0.6-1.6s1-0.6,1.8-0.6c0.3,0,0.6,0,0.9,0.1H812z M806.9,57.2c0,0.3,0.1,0.6,0.4,0.8s0.7,0.3,1.3,0.3
			c0.8,0,1.4-0.1,1.8-0.4s0.6-0.6,0.6-1c0-0.3-0.1-0.6-0.3-0.7s-0.6-0.2-1.2-0.2h-1.2c-0.4,0-0.8,0.1-1,0.3S806.9,56.8,806.9,57.2z
			 M807.5,51.7c0,0.4,0.1,0.8,0.4,1s0.6,0.3,1.1,0.3c0.9,0,1.4-0.5,1.4-1.4c0-1-0.5-1.4-1.4-1.4c-0.5,0-0.8,0.1-1.1,0.4
			S807.5,51.2,807.5,51.7z"/>
		<path d="M814.3,49.7v4.2c0,0.5,0.1,0.9,0.4,1.2s0.6,0.4,1.1,0.4c0.7,0,1.2-0.2,1.5-0.6s0.5-1,0.5-1.8v-3.4h1v6.4H818l-0.1-0.9
			h-0.1c-0.2,0.3-0.5,0.6-0.8,0.7s-0.8,0.3-1.2,0.3c-0.8,0-1.4-0.2-1.8-0.6s-0.6-1-0.6-1.8v-4.2L814.3,49.7L814.3,49.7z"/>
		<path d="M821.7,56.1h-1V47h1V56.1z"/>
		<path d="M827.7,56.1l-0.2-0.9l0,0c-0.3,0.4-0.6,0.7-1,0.8s-0.7,0.2-1.2,0.2c-0.6,0-1.1-0.2-1.5-0.5s-0.5-0.8-0.5-1.4
			c0-1.3,1-2,3.1-2h1.1v-0.4c0-0.5-0.1-0.9-0.3-1.1s-0.6-0.4-1-0.4c-0.5,0-1.1,0.2-1.8,0.5l-0.3-0.7c0.3-0.2,0.7-0.3,1-0.4
			s0.8-0.1,1.1-0.1c0.8,0,1.3,0.2,1.7,0.5s0.6,0.9,0.6,1.6v4.4L827.7,56.1L827.7,56.1z M825.5,55.4c0.6,0,1.1-0.2,1.4-0.5
			s0.5-0.8,0.5-1.4v-0.6h-1c-0.8,0-1.3,0.1-1.7,0.4s-0.5,0.5-0.5,1c0,0.4,0.1,0.6,0.3,0.8S825.1,55.4,825.5,55.4z"/>
		<path d="M833.4,49.5c0.3,0,0.5,0,0.8,0.1l-0.1,0.9c-0.3-0.1-0.5-0.1-0.7-0.1c-0.5,0-1,0.2-1.3,0.6s-0.6,0.9-0.6,1.6V56h-1v-6.4
			h0.8l0.1,1.2l0,0c0.2-0.4,0.5-0.7,0.9-1S833,49.5,833.4,49.5z"/>
		<path d="M840.7,50.8c0.9,0,1.6,0.2,2.1,0.7s0.8,1.1,0.8,1.8c0,0.9-0.3,1.6-0.8,2.1s-1.3,0.8-2.3,0.8s-1.7-0.2-2.2-0.5v-0.9
			c0.3,0.2,0.6,0.3,1,0.4s0.8,0.1,1.2,0.1c0.7,0,1.2-0.2,1.6-0.5s0.6-0.8,0.6-1.4c0-1.2-0.7-1.8-2.2-1.8c-0.4,0-0.9,0.1-1.5,0.2
			l-0.5-0.3l0.3-4h4.3v0.9h-3.4l-0.2,2.6C839.8,50.9,840.2,50.8,840.7,50.8z"/>
		<path d="M850.9,54.1h-1.3v2h-0.9v-2h-4.2v-0.8l4.1-5.8h1v5.8h1.3L850.9,54.1L850.9,54.1z M848.7,53.2v-2.8c0-0.6,0-1.2,0.1-1.9
			l0,0c-0.2,0.4-0.4,0.7-0.5,0.9l-2.7,3.8H848.7z"/>
		<path d="M855.2,56.2c-0.4,0-0.8-0.1-1.1-0.2s-0.6-0.4-0.9-0.7h-0.1c0,0.4,0.1,0.7,0.1,1.1V59h-1v-9.3h0.8l0.1,0.9l0,0
			c0.2-0.4,0.5-0.6,0.9-0.8s0.7-0.2,1.1-0.2c0.9,0,1.5,0.3,2,0.9s0.7,1.4,0.7,2.4c0,1.1-0.2,1.9-0.7,2.5S856,56.2,855.2,56.2z
			 M855,50.4c-0.7,0-1.1,0.2-1.4,0.5s-0.4,0.9-0.5,1.7v0.2c0,0.9,0.2,1.5,0.5,1.9s0.8,0.6,1.4,0.6c0.6,0,1-0.2,1.3-0.7
			s0.5-1.1,0.5-1.9c0-0.8-0.2-1.4-0.5-1.8S855.6,50.4,855,50.4z"/>
		<path d="M861.1,52.8l-2.2-3.1h1.1l1.7,2.5l1.7-2.5h1.1l-2.2,3.1l2.3,3.3h-1.1l-1.8-2.6l-1.8,2.6h-1.1L861.1,52.8z"/>
	</g>
	<g>
		<path d="M654.5,71.6v-0.9h2.9v0.9H654.5z"/>
		<path d="M666.7,69.1l-0.4,2h1.7v0.8h-1.8l-0.5,2.5h-0.8l0.5-2.5h-1.8l-0.5,2.5h-0.8l0.5-2.5h-1.5v-0.8h1.7l0.4-2h-1.6v-0.7h1.8
			l0.5-2.6h0.8l-0.5,2.6h1.8l0.5-2.6h0.8l-0.5,2.6h1.5v0.7H666.7z M663.8,71.1h1.8l0.4-2h-1.8L663.8,71.1z"/>
		<path d="M672.8,67.8c0.8,0,1.5,0.3,2,0.9s0.7,1.4,0.7,2.4s-0.2,1.9-0.7,2.5s-1.1,0.9-2,0.9c-0.4,0-0.8-0.1-1.1-0.2
			s-0.6-0.4-0.9-0.7h-0.1l-0.2,0.8h-0.7v-9.1h1v2.2c0,0.5,0,0.9,0,1.3l0,0C671.2,68.2,671.9,67.8,672.8,67.8z M672.6,68.7
			c-0.7,0-1.1,0.2-1.4,0.6s-0.4,1-0.4,1.9s0.2,1.5,0.5,1.9s0.8,0.6,1.4,0.6c0.6,0,1-0.2,1.3-0.7s0.4-1.1,0.4-1.9s-0.1-1.5-0.4-1.9
			S673.2,68.7,672.6,68.7z"/>
		<path d="M682.7,72.4h-1.3v2h-0.9v-2h-4.2v-0.8l4.1-5.8h1v5.8h1.3L682.7,72.4L682.7,72.4z M680.5,71.5v-2.8c0-0.6,0-1.2,0.1-1.9
			l0,0c-0.2,0.4-0.4,0.7-0.5,0.9l-2.7,3.8H680.5z"/>
		<path d="M688.9,67.8c0,0.5-0.2,1-0.5,1.3s-0.7,0.6-1.3,0.7l0,0c0.7,0.1,1.2,0.3,1.5,0.7s0.5,0.8,0.5,1.4c0,0.8-0.3,1.4-0.8,1.9
			s-1.4,0.7-2.4,0.7c-0.5,0-0.9,0-1.2-0.1s-0.7-0.2-1.1-0.4v-0.9c0.4,0.2,0.8,0.3,1.2,0.4s0.8,0.1,1.2,0.1c1.5,0,2.2-0.6,2.2-1.7
			c0-1-0.8-1.6-2.4-1.6H685v-0.8h0.9c0.7,0,1.2-0.1,1.6-0.4s0.6-0.7,0.6-1.2c0-0.4-0.1-0.7-0.4-1s-0.7-0.4-1.2-0.4
			c-0.4,0-0.7,0.1-1.1,0.2s-0.7,0.3-1.1,0.6l-0.5-0.7c0.4-0.3,0.8-0.5,1.2-0.7s0.9-0.2,1.5-0.2c0.8,0,1.5,0.2,1.9,0.6
			S688.9,67.1,688.9,67.8z"/>
		<path d="M693.8,67.8c0.8,0,1.5,0.3,2,0.9s0.7,1.4,0.7,2.4s-0.2,1.9-0.7,2.5s-1.1,0.9-2,0.9c-0.4,0-0.8-0.1-1.1-0.2
			s-0.6-0.4-0.9-0.7h-0.1l-0.2,0.8h-0.7v-9.1h1v2.2c0,0.5,0,0.9,0,1.3l0,0C692.3,68.2,693,67.8,693.8,67.8z M693.7,68.7
			c-0.7,0-1.1,0.2-1.4,0.6s-0.4,1-0.4,1.9s0.2,1.5,0.5,1.9s0.8,0.6,1.4,0.6c0.6,0,1-0.2,1.3-0.7s0.4-1.1,0.4-1.9s-0.1-1.5-0.4-1.9
			S694.3,68.7,693.7,68.7z"/>
		<path d="M703.4,74.4h-5.6v-0.8l2.3-2.3c0.7-0.7,1.1-1.2,1.4-1.5s0.4-0.6,0.5-0.9s0.2-0.6,0.2-0.9c0-0.5-0.1-0.8-0.4-1.1
			s-0.7-0.4-1.2-0.4c-0.4,0-0.7,0.1-1,0.2s-0.7,0.3-1.1,0.6l-0.5-0.7c0.8-0.7,1.6-1,2.6-1c0.8,0,1.4,0.2,1.9,0.6s0.7,1,0.7,1.7
			c0,0.5-0.2,1.1-0.5,1.6s-0.9,1.2-1.7,2l-1.9,1.8l0,0h4.4v1.1H703.4z"/>
		<path d="M704.7,70.7c0-1.7,0.3-2.9,1-3.8s1.6-1.3,2.9-1.3c0.4,0,0.8,0,1,0.1v0.8c-0.3-0.1-0.6-0.1-1-0.1c-0.9,0-1.6,0.3-2.1,0.9
			s-0.8,1.5-0.8,2.7h0.1c0.4-0.7,1.1-1,2-1c0.8,0,1.4,0.2,1.8,0.7s0.7,1.1,0.7,1.9c0,0.9-0.2,1.6-0.7,2.1s-1.1,0.8-2,0.8
			s-1.6-0.3-2.1-1S704.7,71.9,704.7,70.7z M707.6,73.7c0.6,0,1-0.2,1.3-0.5s0.5-0.9,0.5-1.5s-0.1-1-0.4-1.3s-0.7-0.5-1.3-0.5
			c-0.4,0-0.7,0.1-1,0.2s-0.5,0.3-0.7,0.6s-0.3,0.5-0.3,0.8c0,0.4,0.1,0.8,0.2,1.1s0.4,0.6,0.7,0.8S707.2,73.7,707.6,73.7z"/>
	</g>
	<rect x="606.4" y="65.2" class="st0" width="42.2" height="9.2"/>
</g>
<g id="orange">
	<g>
		<g>
			<path class="st0" d="M65.9,52.8c-6.1,10.5-14.6,18.6-24.7,18.6c-8.7,0-10.9-5.9-10.9-12.1c0-3,0.5-6.7,1.5-10.5
				c-8.9-2.6-12.3-9.3-12.3-15.2c0-6.4,3.9-11.8,8.3-14.2l3.2,4.5c-1.3,0.7-6,4.1-6,10c0,4.2,3.5,8.8,8.4,10
				C38.1,30,47.8,15.3,58.2,15.3c5.8,0,8.9,4.6,8.9,10.1c0,4.8-2.1,11.2-7.6,16.5c-4.7,4.5-11.5,8-20.4,8h-0.9
				c-1.1,3.7-1.6,7.3-1.6,9.8c0,3.8,1.4,6.9,6,6.9c6.2,0,14.8-5.7,20.5-15.5C64.2,50.9,65.6,51.9,65.9,52.8z M40.1,44.5
				c6.1-0.2,11.2-2.8,14.8-6.5c3.7-3.8,5.7-8.4,5.7-11.9c0-2.6-1.1-4.5-3.4-4.5C51.5,21.5,44.3,33.3,40.1,44.5z"/>
			<path class="st0" d="M98.6,52.8c-4.9,8.4-10.5,15.8-17,15.8c-5.7,0-5.7-5-5.7-5s-3.8,5-8.9,5c-4,0-6-3.1-6-7.1
				c0-6.7,5.9-27.3,16.6-27.3c5.3,0,6.2,5.1,6.2,5.1l1.8-4.3h6.6l-8.6,21.2c-2.6,6.4-1.8,8.1-0.1,8.1c3.2,0,8.1-6.2,12.4-13.5
				C96.9,50.9,98.3,51.9,98.6,52.8z M76.6,57.4l5.2-12.9c0,0,0.1-4.5-3.1-4.5c-5.9,0-11.5,15.7-11.5,20.7c0,1.8,0.7,2.6,2.1,2.6
				C73.1,63.2,76.6,57.4,76.6,57.4z"/>
			<path class="st0" d="M130.3,52.8c-5,8.8-10.6,15.8-16.9,15.8c-5.2,0-8.1-3.8-3.7-14.8l2.5-6.2c1.3-3.2,2.2-5.4,2.2-6.4
				c0-0.9-0.8-1.4-1.8-1.4c-1.7,0-4.7,1.5-7.5,4.6l-9.5,23.4H89l13.2-32.7h6.6l-1.3,3.3c3.2-3,6.3-4.1,8.8-4.1
				c2.7,0,4.9,1.6,4.9,4.9c0,1.9-0.8,4.4-2.1,7.7l-3.8,9.5c-3,7.4-1.2,8.1-0.2,8.1c3.2,0,8.2-6.2,12.5-13.5
				C128.5,50.9,129.9,51.9,130.3,52.8z"/>
			<path class="st0" d="M163,52.8c-4.9,8.4-10.5,15.8-17,15.8c-5.7,0-5.7-5-5.7-5s-3.8,5-8.9,5c-4,0-6-3.1-6-7.1
				c0-6.7,5.9-27.3,16.6-27.3c5.3,0,6.2,5.1,6.2,5.1l6.8-16.8h6.6L148,56.4c-2.8,6.9-1.6,8.1-0.2,8.1c3.2,0,8.2-6.2,12.5-13.5
				C161.2,50.9,162.6,51.9,163,52.8z M140.9,57.4l5.2-12.9c0,0,0.1-4.5-3.1-4.5c-5.9,0-11.5,15.7-11.5,20.7c0,1.8,0.7,2.6,2.1,2.6
				C137.4,63.2,140.9,57.4,140.9,57.4z"/>
			<path class="st0" d="M193.9,52.8c-6.5,11.4-14.4,15.1-20.2,17.8c0,0-0.8,2.1-1.8,4.5c-2.5,5.8-5.6,11.2-11.9,11.2
				c-4.2,0-6.7-2.5-6.4-6c0.3-3.8,3.6-6.2,6.9-7.8c2.3-1.1,5.9-2.5,7.3-3.4l1.8-4.3c0,0-3.1,3.9-7.2,3.9c-4.6,0-8-3.5-3.3-14.8
				l7.6-18.7h6.6l-8.6,21.2c-2.6,6.4-1.8,7.4-0.4,7.4c3.7,0,8.3-7.2,10.7-12l6.7-16.6h6.6L175.6,66c5.9-3,11.2-7.3,15.6-15.1
				C192.2,50.9,193.6,51.9,193.9,52.8z M159.2,81.8c1.8-0.1,4.4-1.9,6.7-7.9c-1.9,0.8-3.7,1.4-5.4,2.5c-1.5,0.9-3.2,2.3-3.2,3.8
				C157.3,81.1,158,81.8,159.2,81.8z"/>
		</g>
		<g>
			<path class="st0" d="M196.2,36.8c-0.3-0.6-0.3-1.2,0-1.8c0.2-0.6,0.7-1,1.3-1.3c0.3-0.1,0.6-0.2,0.9-0.2c0.4,0,0.8,0.1,1.2,0.4
				c0.4,0.3,0.7,0.6,0.9,1.1l10.7,25.1L221.9,35c0.2-0.4,0.5-0.8,0.9-1s0.8-0.4,1.3-0.4c0.3,0,0.6,0.1,0.9,0.2
				c0.6,0.3,1,0.7,1.2,1.2c0.3,0.6,0.3,1.2,0,1.8l-12.9,29.9c-0.2,0.5-0.5,0.8-0.9,1.1c-0.4,0.2-0.9,0.4-1.4,0.4
				c-0.4,0-0.8-0.2-1.1-0.4c-0.4-0.2-0.6-0.6-0.8-1L196.2,36.8z"/>
			<path class="st0" d="M248.5,60.8h-16.6l-2.5,5.9c-0.2,0.4-0.5,0.8-0.9,1s-0.8,0.4-1.2,0.4c-0.3,0-0.7-0.1-1-0.2
				c-0.6-0.3-1-0.7-1.2-1.3c-0.2-0.6-0.1-1.2,0.1-1.8L238,35c0.4-1,1.1-1.4,2.1-1.4c0.5,0,0.9,0.1,1.3,0.4c0.4,0.2,0.7,0.6,0.9,1
				l12.9,29.9c0.3,0.6,0.3,1.2,0.1,1.8c-0.2,0.6-0.6,1-1.2,1.3c-0.3,0.1-0.7,0.2-1,0.2c-0.5,0-0.9-0.1-1.3-0.4
				c-0.4-0.2-0.7-0.6-0.9-1L248.5,60.8z M233.7,56.2h12.8L240.2,41L233.7,56.2z"/>
			<path class="st0" d="M266,63.5h16.5c0.3,0,0.6,0.1,0.9,0.2c0.3,0.1,0.5,0.3,0.7,0.5s0.4,0.5,0.5,0.7c0.1,0.3,0.2,0.6,0.2,0.9
				s-0.1,0.6-0.2,0.9s-0.3,0.5-0.5,0.7s-0.5,0.4-0.7,0.5s-0.6,0.2-0.9,0.2h-19.1c-0.6-0.1-1.1-0.3-1.4-0.7c-0.4-0.4-0.6-0.9-0.6-1.6
				V35.9c0-0.3,0.1-0.6,0.2-0.9s0.3-0.5,0.5-0.7s0.4-0.4,0.7-0.5s0.6-0.2,0.9-0.2c0.6,0,1.2,0.2,1.7,0.7c0.5,0.4,0.7,1,0.7,1.7v27.5
				H266z"/>
			<path class="st0" d="M296.4,63.5h16.5c0.3,0,0.6,0.1,0.9,0.2c0.3,0.1,0.5,0.3,0.7,0.5s0.4,0.5,0.5,0.7c0.1,0.3,0.2,0.6,0.2,0.9
				s-0.1,0.6-0.2,0.9s-0.3,0.5-0.5,0.7s-0.5,0.4-0.7,0.5s-0.6,0.2-0.9,0.2h-19.1c-0.6-0.1-1.1-0.3-1.4-0.7c-0.4-0.4-0.6-0.9-0.6-1.6
				V35.9c0-0.3,0.1-0.6,0.2-0.9s0.3-0.5,0.5-0.7s0.4-0.4,0.7-0.5s0.6-0.2,0.9-0.2c0.6,0,1.2,0.2,1.7,0.7c0.5,0.4,0.7,1,0.7,1.7v27.5
				H296.4z"/>
			<path class="st0" d="M324.3,68.1c-0.6-0.1-1.1-0.3-1.6-0.7c-0.4-0.4-0.6-1-0.6-1.6V35.9c0-0.7,0.2-1.2,0.7-1.7
				c0.5-0.4,1-0.7,1.7-0.7h19.7c0.6,0,1.2,0.2,1.6,0.7c0.4,0.4,0.7,1,0.7,1.6s-0.2,1.2-0.7,1.7c-0.4,0.5-1,0.7-1.6,0.7h-17.3v9.9
				h13.4c0.3,0,0.6,0.1,0.9,0.2c0.3,0.1,0.5,0.3,0.8,0.5c0.2,0.2,0.4,0.5,0.5,0.8s0.2,0.6,0.2,0.9c0,0.6-0.2,1.2-0.7,1.6
				c-0.5,0.4-1,0.7-1.7,0.7h-13.4v10.7h17.3c0.3,0,0.6,0.1,0.9,0.2s0.5,0.3,0.7,0.5s0.4,0.5,0.5,0.7c0.1,0.3,0.2,0.6,0.2,0.9
				c0,0.7-0.2,1.2-0.7,1.7c-0.4,0.5-1,0.7-1.6,0.6C344.2,68.1,324.3,68.1,324.3,68.1z"/>
			<path class="st0" d="M365.6,49.2l11.3-14.9c0.5-0.5,1-0.8,1.7-0.8c0.6,0,1.1,0.2,1.5,0.6c0.5,0.4,0.7,0.9,0.8,1.5
				c0.1,0.6-0.1,1.2-0.6,1.9l-12.4,15.8v12.5c0,0.6-0.2,1.2-0.7,1.6s-1,0.7-1.6,0.7s-1.2-0.2-1.6-0.7c-0.5-0.4-0.7-1-0.7-1.6V53.4
				l-12.6-15.8c-0.4-0.5-0.6-1.1-0.6-1.7c0-0.6,0.3-1.2,0.8-1.6c0.2-0.2,0.5-0.3,0.7-0.4c0.3-0.1,0.5-0.1,0.8-0.1s0.6,0.1,0.9,0.2
				c0.3,0.1,0.6,0.3,0.8,0.6L365.6,49.2z"/>
		</g>
	</g>
</g>
</svg>
