<?xml version="1.0" encoding="utf-8"?>
<!-- Generator: Adobe Illustrator 23.0.2, SVG Export Plug-In . SVG Version: 6.00 Build 0)  -->
<svg version="1.1" id="Ant" xmlns="http://www.w3.org/2000/svg" xmlns:xlink="http://www.w3.org/1999/xlink" x="0px" y="0px"
	 viewBox="0 0 700 500" style="enable-background:new 0 0 700 500;" xml:space="preserve">
<style type="text/css">
	.st0{fill:#FFFFFF;}
	.st1{fill:#ED1C24;}
</style>
<g id="black">
	<path d="M373.9,306.8c-15,7.3-29.5,6.9-44.2-1.6c-4,9.9-7.9,19.5-12.1,29.8c-10.7-5.3-21.2-10.5-32.3-16c-0.9,2-1.7,3.7-2.4,5.5
		c-9,22.4-18,44.7-26.8,67.2c-1.5,3.8-3.4,4.9-7.3,4.8c-11-0.3-21.9-0.1-33.3-0.1c0-6.7,0-12.9,0-19.6c7,0,13.8-0.2,20.6,0.1
		c3.7,0.2,5.2-1.3,6.5-4.5c9.8-24.9,19.8-49.8,29.8-74.6c0.7-1.8,1.5-3.7,2.5-5.9c10.8,5.3,21.3,10.6,32.4,16.1
		c2.5-6.2,4.9-12.2,7.2-18.2c0.3-0.7,0.3-1.7,0-2.4c-4-9.1-4.6-18.6-2.4-28.7c-12.9-0.1-24.7-3.3-35.9-8.7
		c-22.2-10.7-41.2-25.6-59.4-43c20.8-20,43.2-37.2,71-48c-4.4-7.2-8.5-14.3-13-21.2c-0.7-1.1-3.3-1.2-5-1.2
		c-24.3-0.1-48.7-0.1-73-0.1c-1.8,0-3.6,0-5.8,0c0-6.6,0-12.8,0-19.4c1.7-0.1,3.2-0.3,4.6-0.3c28.5,0,57,0,85.5-0.1
		c3.3,0,5.1,1,6.7,3.8c5.7,9.9,12,19.6,17.5,29.7c2.3,4.3,5.2,5.5,9.8,5.7c15.5,0.8,29.1,5.9,37.6,19.9c7.8,12.9,8,27.2,6.7,41.6
		c-0.3,3.3-1,6.5-1.7,10.1c17.1,2.9,28.9,12.4,35,27.3c10.7-3.6,20.8-8.1,31.4-10.3c24.1-5,47.8-2.8,69.7,9.2
		c5.3,2.9,10.4,6.8,14.7,11.1c16.9,16.9,16.3,40.8-1.3,57c-4.5,4.1-9.8,7.4-15,10.6c-2.3,1.4-2.9,2.6-1.8,5.1
		c4.9,12,9.5,24.1,14.5,36.1c0.6,1.4,3.1,2.9,4.7,3c7,0.3,14,0.1,21.5,0.1c0,6.6,0,12.9,0,19.6c-12.2,0-24.2,0.1-36.2-0.2
		c-1.3,0-3.1-2.1-3.7-3.6c-6.4-15.9-12.8-31.8-18.9-47.8c-1.3-3.4-2.8-4.4-6.5-3.7c-19.5,3.6-38.7,2-58.2-4.9c0.5,1.8,0.7,3,1.1,4.2
		c4.3,10.8,8.8,21.6,12.9,32.5c1.2,3.1,2.8,3.9,5.9,3.8c6.3-0.2,12.6-0.1,19.3-0.1c0,6.6,0,12.8,0,19.6c-11.8,0-23.5,0.1-35.1-0.2
		c-1.2,0-2.8-2.4-3.5-4c-10.7-26.5-21.3-53.1-32-79.6C375.7,310.7,374.8,308.9,373.9,306.8z M246.9,207.1
		c12.4,10.1,25.4,19.1,40,25.8c10.5,4.8,21.4,7,33,4.7c10.6-2.1,17.9-8.1,19.4-18.7c1.1-7.6,1-15.6,0.2-23.2
		c-1.2-10.9-7.8-18.3-18.8-19.5c-7.9-0.9-16.5-1.1-24,0.9c-18.6,5-34,16.4-48.8,28.3C247.4,205.8,247.3,206.3,246.9,207.1z
		 M353.1,247c-12.3,0-22.7,10.4-22.8,22.6c0,12.4,10.7,23,23.1,22.8c12.3-0.2,22.4-10.5,22.3-22.9C375.6,257,365.5,247,353.1,247z
		 M461,262.9c7.3,18.3,14,35.3,21.4,53.9c5.7-5,10.9-8.7,14.8-13.4c5.9-7.1,5.6-14.7-0.1-21.9C488.3,270.2,475.7,265.9,461,262.9z
		 M403.1,311c11.9-16.1,23.7-32,36.3-49c-15.5,1.4-28.4,5-39.3,14C387,286.9,388,301,403.1,311z M448,283.6
		c-9.2,12.4-17.8,24.1-26.8,36.3c14.5,3.8,27.8,4.8,41.9,1.7C458,308.8,453.2,296.7,448,283.6z"/>
	<path class="st0" d="M246.9,207.1c0.4-0.8,0.6-1.4,0.9-1.6c14.8-11.9,30.2-23.3,48.8-28.3c7.6-2,16.1-1.8,24-0.9
		c11,1.2,17.7,8.5,18.8,19.5c0.8,7.7,0.9,15.6-0.2,23.2c-1.5,10.6-8.7,16.6-19.4,18.7c-11.6,2.3-22.4,0-33-4.7
		C272.2,226.3,259.2,217.3,246.9,207.1z M290.7,194.2c0,6.7,0,12.7,0,18.8c6.6,0,12.8,0,18.9,0c0-6.5,0-12.6,0-18.8
		C303.2,194.2,297.1,194.2,290.7,194.2z"/>
	<path class="st0" d="M353.1,247c12.5,0,22.6,10,22.6,22.5c0.1,12.4-10,22.7-22.3,22.9c-12.4,0.2-23.1-10.5-23.1-22.8
		C330.3,257.4,340.8,247.1,353.1,247z"/>
	<path class="st0" d="M461,262.9c14.7,3,27.3,7.2,36.1,18.5c5.7,7.2,6,14.9,0.1,21.9c-3.9,4.7-9.2,8.4-14.8,13.4
		C475,298.2,468.3,281.2,461,262.9z"/>
	<path class="st0" d="M403.1,311c-15.1-10-16.1-24.1-3-35c10.9-9,23.8-12.6,39.3-14C426.8,279,415,294.9,403.1,311z"/>
	<path class="st0" d="M448,283.6c5.2,13.1,10,25.2,15.1,38c-14.2,3.1-27.5,2.2-41.9-1.7C430.2,307.6,438.8,296,448,283.6z"/>
	<path d="M290.7,194.2c6.4,0,12.5,0,18.9,0c0,6.3,0,12.3,0,18.8c-6.1,0-12.3,0-18.9,0C290.7,207,290.7,200.9,290.7,194.2z"/>
</g>
<g id="orange">
	<path class="st1" d="M373.4,821.4c-15,7.3-29.5,6.9-44.2-1.6c-4,9.9-7.9,19.5-12.1,29.8c-10.7-5.3-21.2-10.5-32.3-16
		c-0.9,2-1.7,3.7-2.4,5.5c-9,22.4-18,44.7-26.8,67.2c-1.5,3.8-3.4,4.9-7.3,4.8c-11-0.3-21.9-0.1-33.3-0.1c0-6.7,0-12.9,0-19.6
		c7,0,13.8-0.2,20.6,0.1c3.7,0.2,5.2-1.3,6.5-4.5c9.8-24.9,19.8-49.8,29.8-74.6c0.7-1.8,1.5-3.7,2.5-5.9
		c10.8,5.3,21.3,10.6,32.4,16.1c2.5-6.2,4.9-12.2,7.2-18.2c0.3-0.7,0.3-1.7,0-2.4c-4-9.1-4.6-18.6-2.4-28.7
		c-12.9-0.1-24.7-3.3-35.9-8.7c-22.2-10.7-41.2-25.6-59.4-43c20.8-20,43.2-37.2,71-48c-4.4-7.2-8.5-14.3-13-21.2
		c-0.7-1.1-3.3-1.2-5-1.2c-24.3-0.1-48.7-0.1-73-0.1c-1.8,0-3.6,0-5.8,0c0-6.6,0-12.8,0-19.4c1.7-0.1,3.2-0.3,4.6-0.3
		c28.5,0,57,0,85.5-0.1c3.3,0,5.1,1,6.7,3.8c5.7,9.9,12,19.6,17.5,29.7c2.3,4.3,5.2,5.5,9.8,5.7c15.5,0.8,29.1,5.9,37.6,19.9
		c7.8,12.9,8,27.2,6.7,41.6c-0.3,3.3-1,6.5-1.7,10.1c17.1,2.9,28.9,12.4,35,27.3c10.7-3.6,20.8-8.1,31.4-10.3
		c24.1-5,47.8-2.8,69.7,9.2c5.3,2.9,10.4,6.8,14.7,11.1c16.9,16.9,16.3,40.8-1.3,57c-4.5,4.1-9.8,7.4-15,10.6
		c-2.3,1.4-2.9,2.6-1.8,5.1c4.9,12,9.5,24.1,14.5,36.1c0.6,1.4,3.1,2.9,4.7,3c7,0.3,14,0.1,21.5,0.1c0,6.6,0,12.9,0,19.6
		c-12.2,0-24.2,0.1-36.2-0.2c-1.3,0-3.1-2.1-3.7-3.6c-6.4-15.9-12.8-31.8-18.9-47.8c-1.3-3.4-2.8-4.4-6.5-3.7
		c-19.5,3.6-38.7,2-58.2-4.9c0.5,1.8,0.7,3,1.1,4.2c4.3,10.8,8.8,21.6,12.9,32.5c1.2,3.1,2.8,3.9,5.9,3.8c6.3-0.2,12.6-0.1,19.3-0.1
		c0,6.6,0,12.8,0,19.6c-11.8,0-23.5,0.1-35.1-0.2c-1.2,0-2.8-2.4-3.5-4c-10.7-26.5-21.3-53.1-32-79.6
		C375.2,825.3,374.3,823.5,373.4,821.4z M246.3,721.7c12.4,10.1,25.4,19.1,40,25.8c10.5,4.8,21.4,7,33,4.7
		c10.6-2.1,17.9-8.1,19.4-18.7c1.1-7.6,1-15.6,0.2-23.2c-1.2-10.9-7.8-18.3-18.8-19.5c-7.9-0.9-16.5-1.1-24,0.9
		c-18.6,5-34,16.4-48.8,28.3C246.9,720.4,246.8,720.9,246.3,721.7z M352.6,761.6c-12.3,0-22.7,10.4-22.8,22.6
		c0,12.4,10.7,23,23.1,22.8c12.3-0.2,22.4-10.5,22.3-22.9C375.1,771.6,365,761.6,352.6,761.6z M460.5,777.5
		c7.3,18.3,14,35.3,21.4,53.9c5.7-5,10.9-8.7,14.8-13.4c5.9-7.1,5.6-14.7-0.1-21.9C487.8,784.7,475.2,780.5,460.5,777.5z
		 M402.6,825.6c11.9-16.1,23.7-32,36.3-49c-15.5,1.4-28.4,5-39.3,14C386.5,801.5,387.5,815.5,402.6,825.6z M447.5,798.1
		c-9.2,12.4-17.8,24.1-26.8,36.3c14.5,3.8,27.8,4.8,41.9,1.7C457.5,823.4,452.7,811.2,447.5,798.1z"/>
	<path class="st0" d="M246.3,721.7c0.4-0.8,0.6-1.4,0.9-1.6c14.8-11.9,30.2-23.3,48.8-28.3c7.6-2,16.1-1.8,24-0.9
		c11,1.2,17.7,8.5,18.8,19.5c0.8,7.7,0.9,15.6-0.2,23.2c-1.5,10.6-8.7,16.6-19.4,18.7c-11.6,2.3-22.4,0-33-4.7
		C271.7,740.9,258.7,731.8,246.3,721.7z M290.2,708.8c0,6.7,0,12.7,0,18.8c6.6,0,12.8,0,18.9,0c0-6.5,0-12.6,0-18.8
		C302.7,708.8,296.6,708.8,290.2,708.8z"/>
	<path class="st0" d="M352.6,761.6c12.5,0,22.6,10,22.6,22.5c0.1,12.4-10,22.7-22.3,22.9c-12.4,0.2-23.1-10.5-23.1-22.8
		C329.8,772,340.3,761.6,352.6,761.6z"/>
	<path class="st0" d="M460.5,777.5c14.7,3,27.3,7.2,36.1,18.5c5.7,7.2,6,14.9,0.1,21.9c-3.9,4.7-9.2,8.4-14.8,13.4
		C474.5,812.8,467.8,795.8,460.5,777.5z"/>
	<path class="st0" d="M402.6,825.6c-15.1-10-16.1-24.1-3-35c10.9-9,23.8-12.6,39.3-14C426.3,793.6,414.5,809.5,402.6,825.6z"/>
	<path class="st0" d="M447.5,798.1c5.2,13.1,10,25.2,15.1,38c-14.2,3.1-27.5,2.2-41.9-1.7C429.7,822.2,438.3,810.6,447.5,798.1z"/>
	<path class="st1" d="M290.2,708.8c6.4,0,12.5,0,18.9,0c0,6.3,0,12.3,0,18.8c-6.1,0-12.3,0-18.9,0
		C290.2,721.5,290.2,715.5,290.2,708.8z"/>
</g>
<g>
</g>
<g>
</g>
<g>
</g>
<g>
</g>
<g>
</g>
<g>
</g>
</svg>
