<?xml version="1.0" encoding="utf-8"?>
<!-- Generator: Adobe Illustrator 23.0.2, SVG Export Plug-In . SVG Version: 6.00 Build 0)  -->
<svg version="1.1" xmlns="http://www.w3.org/2000/svg" xmlns:xlink="http://www.w3.org/1999/xlink" x="0px" y="0px"
	 viewBox="0 0 400 100" style="enable-background:new 0 0 400 100;" xml:space="preserve">
<style type="text/css">
	.st0{fill:#B43C27;}
	.st1{fill:#FFFFFF;}
</style>
<g id="guides">
</g>
<g id="info">
	<g>
		<path d="M618.7,159.7c-1.2,2-2.8,3.5-4.7,3.5c-1.7,0-2.1-1.1-2.1-2.3c0-0.6,0.1-1.3,0.3-2c-1.7-0.5-2.3-1.8-2.3-2.9
			c0-1.2,0.7-2.3,1.6-2.7l0.6,0.9c-0.2,0.1-1.1,0.8-1.1,1.9c0,0.8,0.7,1.7,1.6,1.9c0.9-2.7,2.7-5.4,4.7-5.4c1.1,0,1.7,0.9,1.7,1.9
			c0,0.9-0.4,2.1-1.4,3.1c-0.9,0.9-2.2,1.5-3.9,1.5h-0.2c-0.2,0.7-0.3,1.4-0.3,1.9c0,0.7,0.3,1.3,1.2,1.3c1.2,0,2.8-1.1,3.9-3
			C618.4,159.3,618.6,159.5,618.7,159.7z M613.8,158.1c1.2,0,2.1-0.5,2.8-1.2c0.7-0.7,1.1-1.6,1.1-2.3c0-0.5-0.2-0.9-0.6-0.9
			C615.9,153.7,614.6,156,613.8,158.1z"/>
		<path d="M624.9,159.7c-0.9,1.6-2,3-3.2,3c-1.1,0-1.1-1-1.1-1s-0.7,1-1.7,1c-0.8,0-1.2-0.6-1.2-1.3c0-1.3,1.1-5.2,3.2-5.2
			c1,0,1.2,1,1.2,1l0.3-0.8h1.3l-1.6,4c-0.5,1.2-0.3,1.5,0,1.5c0.6,0,1.5-1.2,2.4-2.6C624.6,159.3,624.9,159.5,624.9,159.7z
			 M620.7,160.6l1-2.5c0,0,0-0.9-0.6-0.9c-1.1,0-2.2,3-2.2,3.9c0,0.3,0.1,0.5,0.4,0.5C620,161.7,620.7,160.6,620.7,160.6z"/>
		<path d="M630.9,159.7c-1,1.7-2,3-3.2,3c-1,0-1.5-0.7-0.7-2.8l0.5-1.2c0.2-0.6,0.4-1,0.4-1.2c0-0.2-0.1-0.3-0.3-0.3
			c-0.3,0-0.9,0.3-1.4,0.9l-1.8,4.5h-1.3l2.5-6.2h1.3l-0.3,0.6c0.6-0.6,1.2-0.8,1.7-0.8c0.5,0,0.9,0.3,0.9,0.9
			c0,0.4-0.1,0.8-0.4,1.5l-0.7,1.8c-0.6,1.4-0.2,1.5,0,1.5c0.6,0,1.6-1.2,2.4-2.6C630.6,159.3,630.9,159.5,630.9,159.7z"/>
		<path d="M637.2,159.7c-0.9,1.6-2,3-3.2,3c-1.1,0-1.1-1-1.1-1s-0.7,1-1.7,1c-0.8,0-1.2-0.6-1.2-1.3c0-1.3,1.1-5.2,3.2-5.2
			c1,0,1.2,1,1.2,1l1.3-3.2h1.3l-2.6,6.4c-0.5,1.3-0.3,1.5,0,1.5c0.6,0,1.6-1.2,2.4-2.6C636.8,159.3,637.1,159.5,637.2,159.7z
			 M633,160.6l1-2.5c0,0,0-0.9-0.6-0.9c-1.1,0-2.2,3-2.2,3.9c0,0.3,0.1,0.5,0.4,0.5C632.3,161.7,633,160.6,633,160.6z"/>
		<path d="M643.1,159.7c-1.2,2.2-2.7,2.9-3.8,3.4c0,0-0.2,0.4-0.3,0.9c-0.5,1.1-1.1,2.1-2.3,2.1c-0.8,0-1.3-0.5-1.2-1.2
			c0-0.7,0.7-1.2,1.3-1.5c0.4-0.2,1.1-0.5,1.4-0.6l0.3-0.8c0,0-0.6,0.7-1.4,0.7c-0.9,0-1.5-0.7-0.6-2.8l1.4-3.6h1.3l-1.6,4
			c-0.5,1.2-0.3,1.4-0.1,1.4c0.7,0,1.6-1.4,2-2.3l1.3-3.2h1.3l-2.4,5.9c1.1-0.6,2.1-1.4,3-2.9C642.7,159.3,643,159.5,643.1,159.7z
			 M636.5,165.2c0.3,0,0.8-0.4,1.3-1.5c-0.4,0.1-0.7,0.3-1,0.5c-0.3,0.2-0.6,0.4-0.6,0.7C636.1,165.1,636.2,165.2,636.5,165.2z"/>
		<path d="M650.5,158.6l-0.4,1h-3.2l0.4-1H650.5z"/>
		<path d="M658.1,162.6h-1v-7.7h-2.7V154h6.4v0.9h-2.7V162.6z"/>
		<path d="M666.3,162.6v-4.2c0-0.5-0.1-0.9-0.4-1.2s-0.6-0.4-1.1-0.4c-0.7,0-1.2,0.2-1.5,0.6s-0.5,1-0.5,1.8v3.4h-1v-9.1h1v2.8
			c0,0.3,0,0.6,0,0.8h0.1c0.2-0.3,0.5-0.6,0.8-0.7s0.8-0.3,1.2-0.3c0.8,0,1.4,0.2,1.8,0.6s0.6,1,0.6,1.8v4.2H666.3z"/>
		<path d="M669.2,154.4c0-0.2,0.1-0.4,0.2-0.5s0.2-0.2,0.4-0.2c0.2,0,0.3,0.1,0.4,0.2s0.2,0.3,0.2,0.5s-0.1,0.4-0.2,0.5
			s-0.2,0.2-0.4,0.2c-0.2,0-0.3-0.1-0.4-0.2S669.2,154.6,669.2,154.4z M670.3,162.6h-1v-6.4h1V162.6z"/>
		<path d="M675.3,156c0.3,0,0.5,0,0.8,0.1l-0.1,0.9c-0.3-0.1-0.5-0.1-0.7-0.1c-0.5,0-1,0.2-1.3,0.6s-0.6,0.9-0.6,1.6v3.4h-1v-6.4
			h0.8l0.1,1.2h0c0.2-0.4,0.5-0.7,0.9-1S674.9,156,675.3,156z"/>
		<path d="M681.4,160.8c0,0.6-0.2,1.1-0.7,1.4s-1.1,0.5-1.9,0.5c-0.9,0-1.5-0.1-2-0.4v-0.9c0.3,0.2,0.6,0.3,1,0.4s0.7,0.1,1,0.1
			c0.5,0,0.9-0.1,1.2-0.2s0.4-0.4,0.4-0.7c0-0.2-0.1-0.5-0.3-0.6s-0.6-0.4-1.3-0.6c-0.6-0.2-1-0.4-1.3-0.6s-0.4-0.4-0.6-0.6
			s-0.2-0.5-0.2-0.8c0-0.5,0.2-0.9,0.6-1.2s1-0.5,1.8-0.5c0.7,0,1.4,0.1,2,0.4l-0.3,0.8c-0.6-0.3-1.2-0.4-1.8-0.4
			c-0.5,0-0.8,0.1-1,0.2s-0.4,0.3-0.4,0.6c0,0.2,0,0.3,0.1,0.4s0.2,0.2,0.4,0.3s0.6,0.3,1.1,0.5c0.8,0.3,1.3,0.6,1.5,0.8
			S681.4,160.4,681.4,160.8z"/>
		<path d="M685,161.9c0.2,0,0.3,0,0.5,0s0.3-0.1,0.4-0.1v0.7c-0.1,0.1-0.3,0.1-0.5,0.1s-0.4,0-0.6,0c-1.2,0-1.9-0.7-1.9-2v-3.8h-0.9
			v-0.5l0.9-0.4l0.4-1.4h0.6v1.5h1.9v0.8H684v3.8c0,0.4,0.1,0.7,0.3,0.9S684.7,161.9,685,161.9z"/>
		<path d="M686.2,156.1h1l1.4,3.7c0.3,0.8,0.5,1.4,0.6,1.8h0c0.1-0.2,0.2-0.5,0.3-1s0.7-2,1.6-4.5h1l-2.8,7.3
			c-0.3,0.7-0.6,1.2-1,1.5s-0.8,0.5-1.3,0.5c-0.3,0-0.6,0-0.9-0.1v-0.8c0.2,0,0.5,0.1,0.7,0.1c0.7,0,1.1-0.4,1.4-1.1l0.4-0.9
			L686.2,156.1z"/>
		<path d="M701.3,160.3c0,0.8-0.3,1.3-0.8,1.8s-1.3,0.6-2.2,0.6c-1,0-1.8-0.1-2.3-0.4v-1c0.4,0.1,0.7,0.3,1.1,0.4s0.8,0.1,1.2,0.1
			c0.7,0,1.2-0.1,1.5-0.4s0.5-0.6,0.5-1.1c0-0.3-0.1-0.5-0.2-0.7s-0.3-0.4-0.6-0.5s-0.7-0.3-1.3-0.5c-0.8-0.3-1.4-0.6-1.7-1
			s-0.5-0.9-0.5-1.5c0-0.7,0.2-1.2,0.7-1.6s1.2-0.6,2-0.6c0.9,0,1.6,0.2,2.3,0.5l-0.3,0.9c-0.7-0.3-1.4-0.4-2.1-0.4
			c-0.5,0-0.9,0.1-1.2,0.3s-0.4,0.5-0.4,0.9c0,0.3,0.1,0.5,0.2,0.7s0.3,0.4,0.6,0.5s0.7,0.3,1.2,0.5c0.9,0.3,1.5,0.7,1.9,1
			S701.3,159.7,701.3,160.3z"/>
		<path d="M705.5,162.7c-0.9,0-1.6-0.3-2.2-0.9s-0.8-1.4-0.8-2.4c0-1.1,0.3-1.9,0.8-2.5s1.3-0.9,2.2-0.9c0.3,0,0.6,0,0.9,0.1
			s0.6,0.1,0.7,0.2l-0.3,0.8c-0.2-0.1-0.4-0.2-0.7-0.2s-0.5-0.1-0.7-0.1c-1.3,0-2,0.8-2,2.5c0,0.8,0.2,1.4,0.5,1.8s0.8,0.6,1.4,0.6
			c0.5,0,1.1-0.1,1.6-0.3v0.9C706.7,162.6,706.2,162.7,705.5,162.7z"/>
		<path d="M711.6,156c0.3,0,0.5,0,0.8,0.1l-0.1,0.9c-0.3-0.1-0.5-0.1-0.7-0.1c-0.5,0-1,0.2-1.3,0.6s-0.6,0.9-0.6,1.6v3.4h-1v-6.4
			h0.8l0.1,1.2h0c0.2-0.4,0.5-0.7,0.9-1S711.2,156,711.6,156z"/>
		<path d="M713.5,154.4c0-0.2,0.1-0.4,0.2-0.5s0.2-0.2,0.4-0.2c0.2,0,0.3,0.1,0.4,0.2s0.2,0.3,0.2,0.5s-0.1,0.4-0.2,0.5
			s-0.2,0.2-0.4,0.2c-0.2,0-0.3-0.1-0.4-0.2S713.5,154.6,713.5,154.4z M714.5,162.6h-1v-6.4h1V162.6z"/>
		<path d="M719.6,162.7c-0.4,0-0.8-0.1-1.1-0.2s-0.6-0.4-0.9-0.7h-0.1c0,0.4,0.1,0.7,0.1,1.1v2.6h-1v-9.3h0.8l0.1,0.9h0
			c0.2-0.4,0.5-0.6,0.9-0.8s0.7-0.2,1.1-0.2c0.9,0,1.5,0.3,2,0.9s0.7,1.4,0.7,2.4c0,1.1-0.2,1.9-0.7,2.5S720.4,162.7,719.6,162.7z
			 M719.4,156.8c-0.7,0-1.1,0.2-1.4,0.5s-0.4,0.9-0.5,1.7v0.2c0,0.9,0.2,1.5,0.5,1.9s0.8,0.6,1.4,0.6c0.6,0,1-0.2,1.3-0.7
			s0.5-1.1,0.5-1.9c0-0.8-0.2-1.4-0.5-1.8S720,156.8,719.4,156.8z"/>
		<path d="M726,161.9c0.2,0,0.3,0,0.5,0s0.3-0.1,0.4-0.1v0.7c-0.1,0.1-0.3,0.1-0.5,0.1s-0.4,0-0.6,0c-1.2,0-1.9-0.7-1.9-2v-3.8h-0.9
			v-0.5l0.9-0.4l0.4-1.4h0.6v1.5h1.9v0.8H725v3.8c0,0.4,0.1,0.7,0.3,0.9S725.7,161.9,726,161.9z"/>
		<path d="M732.4,159v3.6h-1V154h2.3c1.1,0,1.8,0.2,2.3,0.6s0.8,1,0.8,1.8c0,1.1-0.6,1.9-1.7,2.3l2.3,3.8h-1.2l-2.1-3.6H732.4z
			 M732.4,158.1h1.4c0.7,0,1.2-0.1,1.5-0.4s0.5-0.7,0.5-1.3c0-0.6-0.2-1-0.5-1.2s-0.9-0.4-1.6-0.4h-1.3V158.1z"/>
		<path d="M741.4,162.7c-0.9,0-1.7-0.3-2.2-0.9s-0.8-1.4-0.8-2.4c0-1,0.3-1.9,0.8-2.5s1.2-0.9,2.1-0.9c0.8,0,1.4,0.3,1.9,0.8
			s0.7,1.2,0.7,2.1v0.6h-4.4c0,0.8,0.2,1.3,0.6,1.7s0.9,0.6,1.5,0.6c0.7,0,1.4-0.1,2.1-0.4v0.9c-0.3,0.1-0.7,0.3-1,0.3
			S741.9,162.7,741.4,162.7z M741.2,156.8c-0.5,0-0.9,0.2-1.2,0.5s-0.5,0.8-0.5,1.4h3.4c0-0.6-0.1-1.1-0.4-1.4
			S741.7,156.8,741.2,156.8z"/>
		<path d="M750.7,156.1v0.6l-1.2,0.1c0.1,0.1,0.2,0.3,0.3,0.5s0.1,0.5,0.1,0.7c0,0.6-0.2,1.1-0.6,1.5s-1,0.6-1.8,0.6
			c-0.2,0-0.4,0-0.5,0c-0.4,0.2-0.6,0.5-0.6,0.8c0,0.2,0.1,0.3,0.2,0.4s0.4,0.1,0.7,0.1h1.1c0.7,0,1.2,0.1,1.6,0.4s0.6,0.7,0.6,1.3
			c0,0.7-0.3,1.3-0.9,1.6s-1.4,0.6-2.5,0.6c-0.8,0-1.5-0.2-1.9-0.5s-0.7-0.8-0.7-1.3c0-0.4,0.1-0.7,0.4-1s0.6-0.5,1.1-0.6
			c-0.2-0.1-0.3-0.2-0.4-0.3s-0.2-0.3-0.2-0.5c0-0.2,0.1-0.4,0.2-0.6s0.3-0.3,0.6-0.5c-0.3-0.1-0.6-0.4-0.8-0.7s-0.3-0.7-0.3-1.1
			c0-0.7,0.2-1.2,0.6-1.6s1-0.6,1.8-0.6c0.3,0,0.6,0,0.9,0.1H750.7z M745.6,163.6c0,0.3,0.1,0.6,0.4,0.8s0.7,0.3,1.3,0.3
			c0.8,0,1.4-0.1,1.8-0.4s0.6-0.6,0.6-1c0-0.3-0.1-0.6-0.3-0.7s-0.6-0.2-1.2-0.2H747c-0.4,0-0.8,0.1-1,0.3S745.6,163.2,745.6,163.6z
			 M746.1,158.2c0,0.4,0.1,0.8,0.4,1s0.6,0.3,1.1,0.3c0.9,0,1.4-0.5,1.4-1.4c0-1-0.5-1.4-1.4-1.4c-0.5,0-0.8,0.1-1.1,0.4
			S746.1,157.7,746.1,158.2z"/>
		<path d="M752.9,156.1v4.2c0,0.5,0.1,0.9,0.4,1.2s0.6,0.4,1.1,0.4c0.7,0,1.2-0.2,1.5-0.6s0.5-1,0.5-1.8v-3.4h1v6.4h-0.8l-0.1-0.9
			h-0.1c-0.2,0.3-0.5,0.6-0.8,0.7s-0.8,0.3-1.2,0.3c-0.8,0-1.4-0.2-1.8-0.6s-0.6-1-0.6-1.8v-4.2H752.9z"/>
		<path d="M760.4,162.6h-1v-9.1h1V162.6z"/>
		<path d="M766.4,162.6l-0.2-0.9h0c-0.3,0.4-0.6,0.7-1,0.8s-0.7,0.2-1.2,0.2c-0.6,0-1.1-0.2-1.5-0.5s-0.5-0.8-0.5-1.4
			c0-1.3,1-2,3.1-2l1.1,0v-0.4c0-0.5-0.1-0.9-0.3-1.1s-0.6-0.4-1-0.4c-0.5,0-1.1,0.2-1.8,0.5l-0.3-0.7c0.3-0.2,0.7-0.3,1-0.4
			s0.8-0.1,1.1-0.1c0.8,0,1.3,0.2,1.7,0.5s0.6,0.9,0.6,1.6v4.4H766.4z M764.2,161.9c0.6,0,1.1-0.2,1.4-0.5s0.5-0.8,0.5-1.4v-0.6
			l-1,0c-0.8,0-1.3,0.1-1.7,0.4s-0.5,0.5-0.5,1c0,0.4,0.1,0.6,0.3,0.8S763.8,161.9,764.2,161.9z"/>
		<path d="M772,156c0.3,0,0.5,0,0.8,0.1l-0.1,0.9c-0.3-0.1-0.5-0.1-0.7-0.1c-0.5,0-1,0.2-1.3,0.6s-0.6,0.9-0.6,1.6v3.4h-1v-6.4h0.8
			l0.1,1.2h0c0.2-0.4,0.5-0.7,0.9-1S771.6,156,772,156z"/>
		<path d="M776.8,158.9c0-1.7,0.3-2.9,1-3.8s1.6-1.3,2.9-1.3c0.4,0,0.8,0,1,0.1v0.8c-0.3-0.1-0.6-0.1-1-0.1c-0.9,0-1.6,0.3-2.1,0.9
			s-0.8,1.5-0.8,2.7h0.1c0.4-0.7,1.1-1,2-1c0.8,0,1.4,0.2,1.8,0.7s0.7,1.1,0.7,1.9c0,0.9-0.2,1.6-0.7,2.1s-1.1,0.8-2,0.8
			c-0.9,0-1.6-0.3-2.1-1S776.8,160.1,776.8,158.9z M779.6,161.8c0.6,0,1-0.2,1.3-0.5s0.5-0.9,0.5-1.5c0-0.6-0.1-1-0.4-1.3
			s-0.7-0.5-1.3-0.5c-0.4,0-0.7,0.1-1,0.2s-0.5,0.3-0.7,0.6s-0.3,0.5-0.3,0.8c0,0.4,0.1,0.8,0.2,1.1s0.4,0.6,0.7,0.8
			S779.3,161.8,779.6,161.8z"/>
		<path d="M789.2,162.6h-5.6v-0.8l2.3-2.3c0.7-0.7,1.1-1.2,1.4-1.5s0.4-0.6,0.5-0.9s0.2-0.6,0.2-0.9c0-0.5-0.1-0.8-0.4-1.1
			s-0.7-0.4-1.2-0.4c-0.4,0-0.7,0.1-1,0.2s-0.7,0.3-1.1,0.6l-0.5-0.7c0.8-0.7,1.6-1,2.6-1c0.8,0,1.4,0.2,1.9,0.6s0.7,1,0.7,1.7
			c0,0.5-0.2,1.1-0.5,1.6s-0.9,1.2-1.7,2l-1.9,1.8v0h4.4V162.6z"/>
		<path d="M793.8,162.7c-0.4,0-0.8-0.1-1.1-0.2s-0.6-0.4-0.9-0.7h-0.1c0,0.4,0.1,0.7,0.1,1.1v2.6h-1v-9.3h0.8l0.1,0.9h0
			c0.2-0.4,0.5-0.6,0.9-0.8s0.7-0.2,1.1-0.2c0.9,0,1.5,0.3,2,0.9s0.7,1.4,0.7,2.4c0,1.1-0.2,1.9-0.7,2.5S794.7,162.7,793.8,162.7z
			 M793.7,156.8c-0.7,0-1.1,0.2-1.4,0.5s-0.4,0.9-0.5,1.7v0.2c0,0.9,0.2,1.5,0.5,1.9s0.8,0.6,1.4,0.6c0.6,0,1-0.2,1.3-0.7
			s0.5-1.1,0.5-1.9c0-0.8-0.2-1.4-0.5-1.8S794.3,156.8,793.7,156.8z"/>
		<path d="M799.7,159.3l-2.2-3.1h1.1l1.7,2.5l1.7-2.5h1.1l-2.2,3.1l2.3,3.3h-1.1l-1.8-2.6l-1.8,2.6h-1.1L799.7,159.3z"/>
	</g>
	<g>
		<path d="M610.2,176.1c-0.1-0.1-0.1-0.3,0-0.4c0.1-0.1,0.1-0.2,0.3-0.3c0.1,0,0.1,0,0.2,0c0.1,0,0.2,0,0.3,0.1
			c0.1,0.1,0.2,0.1,0.2,0.2l2.4,5.6l2.4-5.6c0-0.1,0.1-0.2,0.2-0.2c0.1-0.1,0.2-0.1,0.3-0.1c0.1,0,0.1,0,0.2,0
			c0.1,0.1,0.2,0.1,0.3,0.3c0.1,0.1,0.1,0.3,0,0.4l-2.9,6.6c0,0.1-0.1,0.2-0.2,0.2c-0.1,0.1-0.2,0.1-0.3,0.1c-0.1,0-0.2,0-0.3-0.1
			c-0.1-0.1-0.1-0.1-0.2-0.2L610.2,176.1z"/>
		<path d="M621.8,181.5h-3.7l-0.6,1.3c0,0.1-0.1,0.2-0.2,0.2c-0.1,0.1-0.2,0.1-0.3,0.1c-0.1,0-0.2,0-0.2,0c-0.1-0.1-0.2-0.1-0.3-0.3
			c0-0.1,0-0.3,0-0.4l2.9-6.6c0.1-0.2,0.2-0.3,0.5-0.3c0.1,0,0.2,0,0.3,0.1c0.1,0.1,0.1,0.1,0.2,0.2l2.9,6.6c0.1,0.1,0.1,0.3,0,0.4
			s-0.1,0.2-0.3,0.3c-0.1,0-0.1,0-0.2,0c-0.1,0-0.2,0-0.3-0.1c-0.1-0.1-0.2-0.1-0.2-0.2L621.8,181.5z M618.5,180.4h2.8l-1.4-3.4
			L618.5,180.4z"/>
		<path d="M625.7,182.1l3.7,0c0.1,0,0.1,0,0.2,0c0.1,0,0.1,0.1,0.2,0.1s0.1,0.1,0.1,0.2c0,0.1,0,0.1,0,0.2c0,0.1,0,0.1,0,0.2
			c0,0.1-0.1,0.1-0.1,0.2s-0.1,0.1-0.2,0.1c-0.1,0-0.1,0-0.2,0h-4.2c-0.1,0-0.2-0.1-0.3-0.2c-0.1-0.1-0.1-0.2-0.1-0.3v-6.7
			c0-0.1,0-0.1,0-0.2s0.1-0.1,0.1-0.2c0,0,0.1-0.1,0.2-0.1c0.1,0,0.1,0,0.2,0c0.1,0,0.3,0,0.4,0.1c0.1,0.1,0.2,0.2,0.2,0.4V182.1z"
			/>
		<path d="M632.4,182.1l3.7,0c0.1,0,0.1,0,0.2,0c0.1,0,0.1,0.1,0.2,0.1s0.1,0.1,0.1,0.2c0,0.1,0,0.1,0,0.2c0,0.1,0,0.1,0,0.2
			c0,0.1-0.1,0.1-0.1,0.2s-0.1,0.1-0.2,0.1c-0.1,0-0.1,0-0.2,0h-4.2c-0.1,0-0.2-0.1-0.3-0.2c-0.1-0.1-0.1-0.2-0.1-0.3v-6.7
			c0-0.1,0-0.1,0-0.2s0.1-0.1,0.1-0.2c0,0,0.1-0.1,0.2-0.1c0.1,0,0.1,0,0.2,0c0.1,0,0.3,0,0.4,0.1c0.1,0.1,0.2,0.2,0.2,0.4V182.1z"
			/>
		<path d="M638.7,183.1c-0.1,0-0.3-0.1-0.3-0.2c-0.1-0.1-0.1-0.2-0.1-0.4v-6.6c0-0.1,0.1-0.3,0.2-0.4c0.1-0.1,0.2-0.1,0.4-0.1h4.4
			c0.1,0,0.3,0.1,0.4,0.2c0.1,0.1,0.1,0.2,0.1,0.4s0,0.3-0.1,0.4c-0.1,0.1-0.2,0.2-0.4,0.2h-3.9v2.2h3c0.1,0,0.1,0,0.2,0
			c0.1,0,0.1,0.1,0.2,0.1c0,0,0.1,0.1,0.1,0.2s0,0.1,0,0.2c0,0.1,0,0.3-0.2,0.4c-0.1,0.1-0.2,0.1-0.4,0.1h-3v2.4h3.9
			c0.1,0,0.1,0,0.2,0c0.1,0,0.1,0.1,0.2,0.1c0,0,0.1,0.1,0.1,0.2c0,0.1,0,0.1,0,0.2c0,0.1,0,0.3-0.1,0.4c-0.1,0.1-0.2,0.1-0.4,0.1
			H638.7z"/>
		<path d="M647.8,178.9l2.5-3.3c0.1-0.1,0.2-0.2,0.4-0.2c0.1,0,0.2,0,0.3,0.1c0.1,0.1,0.2,0.2,0.2,0.3c0,0.1,0,0.3-0.1,0.4l-2.8,3.5
			v2.8c0,0.1,0,0.3-0.1,0.4c-0.1,0.1-0.2,0.1-0.4,0.1s-0.3,0-0.4-0.1c-0.1-0.1-0.1-0.2-0.1-0.4v-2.8l-2.8-3.5
			c-0.1-0.1-0.1-0.2-0.1-0.4c0-0.1,0.1-0.3,0.2-0.4c0,0,0.1-0.1,0.2-0.1s0.1,0,0.2,0c0.1,0,0.1,0,0.2,0c0.1,0,0.1,0.1,0.2,0.1
			L647.8,178.9z"/>
		<path d="M658.5,179.2c0.1,0,0.3,0.1,0.4,0.2c0.1,0.1,0.2,0.2,0.2,0.4c0,0.1-0.1,0.3-0.2,0.4c-0.1,0.1-0.2,0.2-0.4,0.2H655
			c-0.1,0-0.1,0-0.2,0c-0.1,0-0.1-0.1-0.2-0.1s-0.1-0.1-0.1-0.2c0-0.1,0-0.1,0-0.2c0-0.1,0.1-0.3,0.2-0.4c0.1-0.1,0.2-0.2,0.4-0.2
			H658.5z"/>
		<path d="M668.8,183.1l-1.1-2.7h-3.4l-1.1,2.7h-1l3.4-8.6h0.8l3.4,8.6H668.8z M667.5,179.5l-1-2.7c-0.1-0.3-0.3-0.7-0.4-1.2
			c-0.1,0.4-0.2,0.8-0.4,1.2l-1,2.7H667.5z"/>
		<path d="M673.8,176.6c0.3,0,0.5,0,0.8,0.1l-0.1,0.9c-0.3-0.1-0.5-0.1-0.7-0.1c-0.5,0-1,0.2-1.3,0.6s-0.6,0.9-0.6,1.6v3.4h-1v-6.4
			h0.8l0.1,1.2h0c0.2-0.4,0.5-0.7,0.9-1S673.4,176.6,673.8,176.6z"/>
		<path d="M675.7,174.9c0-0.2,0.1-0.4,0.2-0.5s0.2-0.2,0.4-0.2c0.2,0,0.3,0.1,0.4,0.2s0.2,0.3,0.2,0.5s-0.1,0.4-0.2,0.5
			s-0.2,0.2-0.4,0.2c-0.2,0-0.3-0.1-0.4-0.2S675.7,175.1,675.7,174.9z M676.8,183.1h-1v-6.4h1V183.1z"/>
		<path d="M683,181.3c0,0.6-0.2,1.1-0.7,1.4s-1.1,0.5-1.9,0.5c-0.9,0-1.5-0.1-2-0.4v-0.9c0.3,0.2,0.6,0.3,1,0.4s0.7,0.1,1,0.1
			c0.5,0,0.9-0.1,1.2-0.2s0.4-0.4,0.4-0.7c0-0.2-0.1-0.5-0.3-0.6s-0.6-0.4-1.3-0.6c-0.6-0.2-1-0.4-1.3-0.6s-0.4-0.4-0.6-0.6
			s-0.2-0.5-0.2-0.8c0-0.5,0.2-0.9,0.6-1.2s1-0.5,1.8-0.5c0.7,0,1.4,0.1,2,0.4l-0.3,0.8c-0.6-0.3-1.2-0.4-1.8-0.4
			c-0.5,0-0.8,0.1-1,0.2s-0.4,0.3-0.4,0.6c0,0.2,0,0.3,0.1,0.4s0.2,0.2,0.4,0.3s0.6,0.3,1.1,0.5c0.8,0.3,1.3,0.6,1.5,0.8
			S683,180.9,683,181.3z"/>
		<path d="M686.6,182.4c0.2,0,0.3,0,0.5,0s0.3-0.1,0.4-0.1v0.7c-0.1,0.1-0.3,0.1-0.5,0.1s-0.4,0-0.6,0c-1.2,0-1.9-0.7-1.9-2v-3.8
			h-0.9V177l0.9-0.4l0.4-1.4h0.6v1.5h1.9v0.8h-1.9v3.8c0,0.4,0.1,0.7,0.3,0.9S686.3,182.4,686.6,182.4z"/>
		<path d="M694.3,179.9c0,1-0.3,1.9-0.8,2.5s-1.3,0.9-2.2,0.9c-0.6,0-1.1-0.1-1.5-0.4s-0.8-0.7-1-1.2s-0.4-1.1-0.4-1.8
			c0-1,0.3-1.9,0.8-2.4s1.2-0.9,2.2-0.9c0.9,0,1.6,0.3,2.1,0.9S694.3,178.9,694.3,179.9z M689.5,179.9c0,0.8,0.2,1.4,0.5,1.9
			s0.8,0.6,1.4,0.6s1.1-0.2,1.5-0.6s0.5-1.1,0.5-1.9c0-0.8-0.2-1.4-0.5-1.9s-0.8-0.6-1.5-0.6c-0.6,0-1.1,0.2-1.4,0.6
			S689.5,179,689.5,179.9z"/>
		<path d="M698.1,182.4c0.2,0,0.3,0,0.5,0s0.3-0.1,0.4-0.1v0.7c-0.1,0.1-0.3,0.1-0.5,0.1s-0.4,0-0.6,0c-1.2,0-1.9-0.7-1.9-2v-3.8
			h-0.9V177l0.9-0.4l0.4-1.4h0.6v1.5h1.9v0.8h-1.9v3.8c0,0.4,0.1,0.7,0.3,0.9S697.8,182.4,698.1,182.4z"/>
		<path d="M703,183.2c-0.9,0-1.7-0.3-2.2-0.9s-0.8-1.4-0.8-2.4c0-1,0.3-1.9,0.8-2.5s1.2-0.9,2.1-0.9c0.8,0,1.4,0.3,1.9,0.8
			s0.7,1.2,0.7,2.1v0.6h-4.4c0,0.8,0.2,1.3,0.6,1.7s0.9,0.6,1.5,0.6c0.7,0,1.4-0.1,2.1-0.4v0.9c-0.3,0.1-0.7,0.3-1,0.3
			S703.4,183.2,703,183.2z M702.7,177.4c-0.5,0-0.9,0.2-1.2,0.5s-0.5,0.8-0.5,1.4h3.4c0-0.6-0.1-1.1-0.4-1.4
			S703.2,177.4,702.7,177.4z"/>
		<path d="M708,183.1h-1V174h1V183.1z"/>
		<path d="M710,174.9c0-0.2,0.1-0.4,0.2-0.5s0.2-0.2,0.4-0.2c0.2,0,0.3,0.1,0.4,0.2s0.2,0.3,0.2,0.5s-0.1,0.4-0.2,0.5
			s-0.2,0.2-0.4,0.2c-0.2,0-0.3-0.1-0.4-0.2S710,175.1,710,174.9z M711,183.1h-1v-6.4h1V183.1z"/>
		<path d="M715.7,183.2c-0.9,0-1.6-0.3-2.2-0.9s-0.8-1.4-0.8-2.4c0-1.1,0.3-1.9,0.8-2.5s1.3-0.9,2.2-0.9c0.3,0,0.6,0,0.9,0.1
			s0.6,0.1,0.7,0.2l-0.3,0.8c-0.2-0.1-0.4-0.2-0.7-0.2s-0.5-0.1-0.7-0.1c-1.3,0-2,0.8-2,2.5c0,0.8,0.2,1.4,0.5,1.8s0.8,0.6,1.4,0.6
			c0.5,0,1.1-0.1,1.6-0.3v0.9C716.8,183.1,716.3,183.2,715.7,183.2z"/>
		<path d="M722.8,183.1l-0.2-0.9h0c-0.3,0.4-0.6,0.7-1,0.8s-0.7,0.2-1.2,0.2c-0.6,0-1.1-0.2-1.5-0.5s-0.5-0.8-0.5-1.4
			c0-1.3,1-2,3.1-2l1.1,0v-0.4c0-0.5-0.1-0.9-0.3-1.1s-0.6-0.4-1-0.4c-0.5,0-1.1,0.2-1.8,0.5l-0.3-0.7c0.3-0.2,0.7-0.3,1-0.4
			s0.8-0.1,1.1-0.1c0.8,0,1.3,0.2,1.7,0.5s0.6,0.9,0.6,1.6v4.4H722.8z M720.6,182.4c0.6,0,1.1-0.2,1.4-0.5s0.5-0.8,0.5-1.4v-0.6
			l-1,0c-0.8,0-1.3,0.1-1.7,0.4s-0.5,0.5-0.5,1c0,0.4,0.1,0.6,0.3,0.8S720.2,182.4,720.6,182.4z"/>
		<path d="M733.6,180.8c0,0.8-0.3,1.3-0.8,1.8s-1.3,0.6-2.2,0.6c-1,0-1.8-0.1-2.3-0.4v-1c0.4,0.1,0.7,0.3,1.1,0.4s0.8,0.1,1.2,0.1
			c0.7,0,1.2-0.1,1.5-0.4s0.5-0.6,0.5-1.1c0-0.3-0.1-0.5-0.2-0.7s-0.3-0.4-0.6-0.5s-0.7-0.3-1.3-0.5c-0.8-0.3-1.4-0.6-1.7-1
			s-0.5-0.9-0.5-1.5c0-0.7,0.2-1.2,0.7-1.6s1.2-0.6,2-0.6c0.9,0,1.6,0.2,2.3,0.5l-0.3,0.9c-0.7-0.3-1.4-0.4-2.1-0.4
			c-0.5,0-0.9,0.1-1.2,0.3s-0.4,0.5-0.4,0.9c0,0.3,0.1,0.5,0.2,0.7s0.3,0.4,0.6,0.5s0.7,0.3,1.2,0.5c0.9,0.3,1.5,0.7,1.9,1
			S733.6,180.2,733.6,180.8z"/>
		<path d="M743.4,183.1v-4.2c0-0.5-0.1-0.9-0.3-1.2s-0.6-0.4-1-0.4c-0.6,0-1.1,0.2-1.3,0.5s-0.4,0.9-0.4,1.6v3.6h-1v-4.2
			c0-0.5-0.1-0.9-0.3-1.2s-0.6-0.4-1-0.4c-0.6,0-1.1,0.2-1.3,0.5s-0.4,1-0.4,1.8v3.4h-1v-6.4h0.8l0.2,0.9h0c0.2-0.3,0.4-0.6,0.8-0.7
			s0.7-0.3,1.1-0.3c1,0,1.7,0.4,2,1.1h0c0.2-0.3,0.5-0.6,0.8-0.8s0.8-0.3,1.2-0.3c0.7,0,1.3,0.2,1.6,0.6s0.5,1,0.5,1.8v4.2H743.4z"
			/>
		<path d="M750.3,183.1l-0.2-0.9h0c-0.3,0.4-0.6,0.7-1,0.8s-0.7,0.2-1.2,0.2c-0.6,0-1.1-0.2-1.5-0.5s-0.5-0.8-0.5-1.4
			c0-1.3,1-2,3.1-2l1.1,0v-0.4c0-0.5-0.1-0.9-0.3-1.1s-0.6-0.4-1-0.4c-0.5,0-1.1,0.2-1.8,0.5l-0.3-0.7c0.3-0.2,0.7-0.3,1-0.4
			s0.8-0.1,1.1-0.1c0.8,0,1.3,0.2,1.7,0.5s0.6,0.9,0.6,1.6v4.4H750.3z M748.1,182.4c0.6,0,1.1-0.2,1.4-0.5s0.5-0.8,0.5-1.4v-0.6
			l-1,0c-0.8,0-1.3,0.1-1.7,0.4s-0.5,0.5-0.5,1c0,0.4,0.1,0.6,0.3,0.8S747.7,182.4,748.1,182.4z"/>
		<path d="M754,183.1h-1V174h1V183.1z"/>
		<path d="M757,183.1h-1V174h1V183.1z"/>
		<path d="M766,175.3c-0.9,0-1.7,0.3-2.2,0.9s-0.8,1.5-0.8,2.6c0,1.1,0.3,2,0.8,2.6s1.3,0.9,2.2,0.9c0.6,0,1.3-0.1,2-0.3v0.9
			c-0.6,0.2-1.3,0.3-2.2,0.3c-1.3,0-2.2-0.4-2.9-1.1s-1-1.9-1-3.3c0-0.9,0.2-1.7,0.5-2.3s0.8-1.2,1.4-1.5s1.4-0.5,2.2-0.5
			c0.9,0,1.7,0.2,2.4,0.5l-0.4,0.9C767.3,175.4,766.7,175.3,766,175.3z"/>
		<path d="M773.7,183.1l-0.2-0.9h0c-0.3,0.4-0.6,0.7-1,0.8s-0.7,0.2-1.2,0.2c-0.6,0-1.1-0.2-1.5-0.5s-0.5-0.8-0.5-1.4
			c0-1.3,1-2,3.1-2l1.1,0v-0.4c0-0.5-0.1-0.9-0.3-1.1s-0.6-0.4-1-0.4c-0.5,0-1.1,0.2-1.8,0.5l-0.3-0.7c0.3-0.2,0.7-0.3,1-0.4
			s0.8-0.1,1.1-0.1c0.8,0,1.3,0.2,1.7,0.5s0.6,0.9,0.6,1.6v4.4H773.7z M771.5,182.4c0.6,0,1.1-0.2,1.4-0.5s0.5-0.8,0.5-1.4v-0.6
			l-1,0c-0.8,0-1.3,0.1-1.7,0.4s-0.5,0.5-0.5,1c0,0.4,0.1,0.6,0.3,0.8S771.1,182.4,771.5,182.4z"/>
		<path d="M779.4,183.2c-0.4,0-0.8-0.1-1.1-0.2s-0.6-0.4-0.9-0.7h-0.1c0,0.4,0.1,0.7,0.1,1.1v2.6h-1v-9.3h0.8l0.1,0.9h0
			c0.2-0.4,0.5-0.6,0.9-0.8s0.7-0.2,1.1-0.2c0.9,0,1.5,0.3,2,0.9s0.7,1.4,0.7,2.4c0,1.1-0.2,1.9-0.7,2.5S780.3,183.2,779.4,183.2z
			 M779.3,177.4c-0.7,0-1.1,0.2-1.4,0.5s-0.4,0.9-0.5,1.7v0.2c0,0.9,0.2,1.5,0.5,1.9s0.8,0.6,1.4,0.6c0.6,0,1-0.2,1.3-0.7
			s0.5-1.1,0.5-1.9c0-0.8-0.2-1.4-0.5-1.8S779.9,177.4,779.3,177.4z"/>
		<path d="M787.9,181.3c0,0.6-0.2,1.1-0.7,1.4s-1.1,0.5-1.9,0.5c-0.9,0-1.5-0.1-2-0.4v-0.9c0.3,0.2,0.6,0.3,1,0.4s0.7,0.1,1,0.1
			c0.5,0,0.9-0.1,1.2-0.2s0.4-0.4,0.4-0.7c0-0.2-0.1-0.5-0.3-0.6s-0.6-0.4-1.3-0.6c-0.6-0.2-1-0.4-1.3-0.6s-0.4-0.4-0.6-0.6
			s-0.2-0.5-0.2-0.8c0-0.5,0.2-0.9,0.6-1.2s1-0.5,1.8-0.5c0.7,0,1.4,0.1,2,0.4l-0.3,0.8c-0.6-0.3-1.2-0.4-1.8-0.4
			c-0.5,0-0.8,0.1-1,0.2s-0.4,0.3-0.4,0.6c0,0.2,0,0.3,0.1,0.4s0.2,0.2,0.4,0.3s0.6,0.3,1.1,0.5c0.8,0.3,1.3,0.6,1.5,0.8
			S787.9,180.9,787.9,181.3z"/>
		<path d="M793.8,179.5v3.6h-1v-8.6h2.3c1.1,0,1.8,0.2,2.3,0.6s0.8,1,0.8,1.8c0,1.1-0.6,1.9-1.7,2.3l2.3,3.8h-1.2l-2.1-3.6H793.8z
			 M793.8,178.7h1.4c0.7,0,1.2-0.1,1.5-0.4s0.5-0.7,0.5-1.3c0-0.6-0.2-1-0.5-1.2s-0.9-0.4-1.6-0.4h-1.3V178.7z"/>
		<path d="M802.8,183.2c-0.9,0-1.7-0.3-2.2-0.9s-0.8-1.4-0.8-2.4c0-1,0.3-1.9,0.8-2.5s1.2-0.9,2.1-0.9c0.8,0,1.4,0.3,1.9,0.8
			s0.7,1.2,0.7,2.1v0.6h-4.4c0,0.8,0.2,1.3,0.6,1.7s0.9,0.6,1.5,0.6c0.7,0,1.4-0.1,2.1-0.4v0.9c-0.3,0.1-0.7,0.3-1,0.3
			S803.2,183.2,802.8,183.2z M802.5,177.4c-0.5,0-0.9,0.2-1.2,0.5s-0.5,0.8-0.5,1.4h3.4c0-0.6-0.1-1.1-0.4-1.4
			S803,177.4,802.5,177.4z"/>
		<path d="M812,176.7v0.6l-1.2,0.1c0.1,0.1,0.2,0.3,0.3,0.5s0.1,0.5,0.1,0.7c0,0.6-0.2,1.1-0.6,1.5s-1,0.6-1.8,0.6
			c-0.2,0-0.4,0-0.5,0c-0.4,0.2-0.6,0.5-0.6,0.8c0,0.2,0.1,0.3,0.2,0.4s0.4,0.1,0.7,0.1h1.1c0.7,0,1.2,0.1,1.6,0.4s0.6,0.7,0.6,1.3
			c0,0.7-0.3,1.3-0.9,1.6s-1.4,0.6-2.5,0.6c-0.8,0-1.5-0.2-1.9-0.5s-0.7-0.8-0.7-1.3c0-0.4,0.1-0.7,0.4-1s0.6-0.5,1.1-0.6
			c-0.2-0.1-0.3-0.2-0.4-0.3s-0.2-0.3-0.2-0.5c0-0.2,0.1-0.4,0.2-0.6s0.3-0.3,0.6-0.5c-0.3-0.1-0.6-0.4-0.8-0.7s-0.3-0.7-0.3-1.1
			c0-0.7,0.2-1.2,0.6-1.6s1-0.6,1.8-0.6c0.3,0,0.6,0,0.9,0.1H812z M806.9,184.2c0,0.3,0.1,0.6,0.4,0.8s0.7,0.3,1.3,0.3
			c0.8,0,1.4-0.1,1.8-0.4s0.6-0.6,0.6-1c0-0.3-0.1-0.6-0.3-0.7s-0.6-0.2-1.2-0.2h-1.2c-0.4,0-0.8,0.1-1,0.3S806.9,183.8,806.9,184.2
			z M807.5,178.7c0,0.4,0.1,0.8,0.4,1s0.6,0.3,1.1,0.3c0.9,0,1.4-0.5,1.4-1.4c0-1-0.5-1.4-1.4-1.4c-0.5,0-0.8,0.1-1.1,0.4
			S807.5,178.2,807.5,178.7z"/>
		<path d="M814.3,176.7v4.2c0,0.5,0.1,0.9,0.4,1.2s0.6,0.4,1.1,0.4c0.7,0,1.2-0.2,1.5-0.6s0.5-1,0.5-1.8v-3.4h1v6.4h-0.8l-0.1-0.9
			h-0.1c-0.2,0.3-0.5,0.6-0.8,0.7s-0.8,0.3-1.2,0.3c-0.8,0-1.4-0.2-1.8-0.6s-0.6-1-0.6-1.8v-4.2H814.3z"/>
		<path d="M821.7,183.1h-1V174h1V183.1z"/>
		<path d="M827.7,183.1l-0.2-0.9h0c-0.3,0.4-0.6,0.7-1,0.8s-0.7,0.2-1.2,0.2c-0.6,0-1.1-0.2-1.5-0.5s-0.5-0.8-0.5-1.4
			c0-1.3,1-2,3.1-2l1.1,0v-0.4c0-0.5-0.1-0.9-0.3-1.1s-0.6-0.4-1-0.4c-0.5,0-1.1,0.2-1.8,0.5l-0.3-0.7c0.3-0.2,0.7-0.3,1-0.4
			s0.8-0.1,1.1-0.1c0.8,0,1.3,0.2,1.7,0.5s0.6,0.9,0.6,1.6v4.4H827.7z M825.5,182.4c0.6,0,1.1-0.2,1.4-0.5s0.5-0.8,0.5-1.4v-0.6
			l-1,0c-0.8,0-1.3,0.1-1.7,0.4s-0.5,0.5-0.5,1c0,0.4,0.1,0.6,0.3,0.8S825.1,182.4,825.5,182.4z"/>
		<path d="M833.4,176.6c0.3,0,0.5,0,0.8,0.1l-0.1,0.9c-0.3-0.1-0.5-0.1-0.7-0.1c-0.5,0-1,0.2-1.3,0.6s-0.6,0.9-0.6,1.6v3.4h-1v-6.4
			h0.8l0.1,1.2h0c0.2-0.4,0.5-0.7,0.9-1S833,176.6,833.4,176.6z"/>
		<path d="M840.7,177.9c0.9,0,1.6,0.2,2.1,0.7s0.8,1.1,0.8,1.8c0,0.9-0.3,1.6-0.8,2.1s-1.3,0.8-2.3,0.8c-1,0-1.7-0.2-2.2-0.5v-0.9
			c0.3,0.2,0.6,0.3,1,0.4s0.8,0.1,1.2,0.1c0.7,0,1.2-0.2,1.6-0.5s0.6-0.8,0.6-1.4c0-1.2-0.7-1.8-2.2-1.8c-0.4,0-0.9,0.1-1.5,0.2
			l-0.5-0.3l0.3-4h4.3v0.9h-3.4l-0.2,2.6C839.8,177.9,840.2,177.9,840.7,177.9z"/>
		<path d="M850.9,181.1h-1.3v2h-0.9v-2h-4.2v-0.8l4.1-5.8h1v5.8h1.3V181.1z M848.7,180.2v-2.8c0-0.6,0-1.2,0.1-1.9h0
			c-0.2,0.4-0.4,0.7-0.5,0.9l-2.7,3.8H848.7z"/>
		<path d="M855.2,183.2c-0.4,0-0.8-0.1-1.1-0.2s-0.6-0.4-0.9-0.7h-0.1c0,0.4,0.1,0.7,0.1,1.1v2.6h-1v-9.3h0.8l0.1,0.9h0
			c0.2-0.4,0.5-0.6,0.9-0.8s0.7-0.2,1.1-0.2c0.9,0,1.5,0.3,2,0.9s0.7,1.4,0.7,2.4c0,1.1-0.2,1.9-0.7,2.5S856,183.2,855.2,183.2z
			 M855,177.4c-0.7,0-1.1,0.2-1.4,0.5s-0.4,0.9-0.5,1.7v0.2c0,0.9,0.2,1.5,0.5,1.9s0.8,0.6,1.4,0.6c0.6,0,1-0.2,1.3-0.7
			s0.5-1.1,0.5-1.9c0-0.8-0.2-1.4-0.5-1.8S855.6,177.4,855,177.4z"/>
		<path d="M861.1,179.8l-2.2-3.1h1.1l1.7,2.5l1.7-2.5h1.1l-2.2,3.1l2.3,3.3h-1.1l-1.8-2.6l-1.8,2.6h-1.1L861.1,179.8z"/>
	</g>
	<g>
		<path d="M654.5,198.6v-0.9h2.9v0.9H654.5z"/>
		<path d="M666.7,196.1l-0.4,2h1.7v0.8h-1.8l-0.5,2.5h-0.8l0.5-2.5h-1.8l-0.5,2.5h-0.8l0.5-2.5h-1.5v-0.8h1.7l0.4-2h-1.6v-0.7h1.8
			l0.5-2.6h0.8l-0.5,2.6h1.8l0.5-2.6h0.8l-0.5,2.6h1.5v0.7H666.7z M663.8,198.1h1.8l0.4-2h-1.8L663.8,198.1z"/>
		<path d="M672.8,194.8c0.8,0,1.5,0.3,2,0.9s0.7,1.4,0.7,2.4s-0.2,1.9-0.7,2.5s-1.1,0.9-2,0.9c-0.4,0-0.8-0.1-1.1-0.2
			s-0.6-0.4-0.9-0.7h-0.1l-0.2,0.8h-0.7v-9.1h1v2.2c0,0.5,0,0.9,0,1.3h0C671.2,195.2,671.9,194.8,672.8,194.8z M672.6,195.7
			c-0.7,0-1.1,0.2-1.4,0.6s-0.4,1-0.4,1.9s0.2,1.5,0.5,1.9s0.8,0.6,1.4,0.6c0.6,0,1-0.2,1.3-0.7s0.4-1.1,0.4-1.9
			c0-0.8-0.1-1.5-0.4-1.9S673.2,195.7,672.6,195.7z"/>
		<path d="M682.7,199.4h-1.3v2h-0.9v-2h-4.2v-0.8l4.1-5.8h1v5.8h1.3V199.4z M680.5,198.5v-2.8c0-0.6,0-1.2,0.1-1.9h0
			c-0.2,0.4-0.4,0.7-0.5,0.9l-2.7,3.8H680.5z"/>
		<path d="M688.9,194.8c0,0.5-0.2,1-0.5,1.3s-0.7,0.6-1.3,0.7v0c0.7,0.1,1.2,0.3,1.5,0.7s0.5,0.8,0.5,1.4c0,0.8-0.3,1.4-0.8,1.9
			s-1.4,0.7-2.4,0.7c-0.5,0-0.9,0-1.2-0.1s-0.7-0.2-1.1-0.4v-0.9c0.4,0.2,0.8,0.3,1.2,0.4s0.8,0.1,1.2,0.1c1.5,0,2.2-0.6,2.2-1.7
			c0-1-0.8-1.6-2.4-1.6h-0.8v-0.8h0.9c0.7,0,1.2-0.1,1.6-0.4s0.6-0.7,0.6-1.2c0-0.4-0.1-0.7-0.4-1s-0.7-0.4-1.2-0.4
			c-0.4,0-0.7,0.1-1.1,0.2s-0.7,0.3-1.1,0.6l-0.5-0.7c0.4-0.3,0.8-0.5,1.2-0.7s0.9-0.2,1.5-0.2c0.8,0,1.5,0.2,1.9,0.6
			S688.9,194.2,688.9,194.8z"/>
		<path d="M693.8,194.8c0.8,0,1.5,0.3,2,0.9s0.7,1.4,0.7,2.4s-0.2,1.9-0.7,2.5s-1.1,0.9-2,0.9c-0.4,0-0.8-0.1-1.1-0.2
			s-0.6-0.4-0.9-0.7h-0.1l-0.2,0.8h-0.7v-9.1h1v2.2c0,0.5,0,0.9,0,1.3h0C692.3,195.2,693,194.8,693.8,194.8z M693.7,195.7
			c-0.7,0-1.1,0.2-1.4,0.6s-0.4,1-0.4,1.9s0.2,1.5,0.5,1.9s0.8,0.6,1.4,0.6c0.6,0,1-0.2,1.3-0.7s0.4-1.1,0.4-1.9
			c0-0.8-0.1-1.5-0.4-1.9S694.3,195.7,693.7,195.7z"/>
		<path d="M703.4,201.4h-5.6v-0.8l2.3-2.3c0.7-0.7,1.1-1.2,1.4-1.5s0.4-0.6,0.5-0.9s0.2-0.6,0.2-0.9c0-0.5-0.1-0.8-0.4-1.1
			s-0.7-0.4-1.2-0.4c-0.4,0-0.7,0.1-1,0.2s-0.7,0.3-1.1,0.6l-0.5-0.7c0.8-0.7,1.6-1,2.6-1c0.8,0,1.4,0.2,1.9,0.6s0.7,1,0.7,1.7
			c0,0.5-0.2,1.1-0.5,1.6s-0.9,1.2-1.7,2l-1.9,1.8v0h4.4V201.4z"/>
		<path d="M704.7,197.7c0-1.7,0.3-2.9,1-3.8s1.6-1.3,2.9-1.3c0.4,0,0.8,0,1,0.1v0.8c-0.3-0.1-0.6-0.1-1-0.1c-0.9,0-1.6,0.3-2.1,0.9
			s-0.8,1.5-0.8,2.7h0.1c0.4-0.7,1.1-1,2-1c0.8,0,1.4,0.2,1.8,0.7s0.7,1.1,0.7,1.9c0,0.9-0.2,1.6-0.7,2.1s-1.1,0.8-2,0.8
			c-0.9,0-1.6-0.3-2.1-1S704.7,198.9,704.7,197.7z M707.6,200.7c0.6,0,1-0.2,1.3-0.5s0.5-0.9,0.5-1.5c0-0.6-0.1-1-0.4-1.3
			s-0.7-0.5-1.3-0.5c-0.4,0-0.7,0.1-1,0.2s-0.5,0.3-0.7,0.6s-0.3,0.5-0.3,0.8c0,0.4,0.1,0.8,0.2,1.1s0.4,0.6,0.7,0.8
			S707.2,200.7,707.6,200.7z"/>
	</g>
	<rect x="606.4" y="192.3" class="st0" width="42.2" height="9.2"/>
</g>
<g id="white">
	<g>
		<g>
			<path class="st1" d="M66.6,303.3c-6.1,10.5-14.6,18.6-24.7,18.6c-8.7,0-10.9-5.9-10.9-12.1c0-3,0.5-6.7,1.5-10.5
				c-8.9-2.6-12.3-9.3-12.3-15.2c0-6.4,3.9-11.8,8.3-14.2l3.2,4.5c-1.3,0.7-6,4.1-6,10c0,4.2,3.5,8.8,8.4,10
				c4.7-13.9,14.4-28.6,24.8-28.6c5.8,0,8.9,4.6,8.9,10.1c0,4.8-2.1,11.2-7.6,16.5c-4.7,4.5-11.5,8-20.4,8h-0.9
				c-1.1,3.7-1.6,7.3-1.6,9.8c0,3.8,1.4,6.9,6,6.9c6.2,0,14.8-5.7,20.5-15.5C64.8,301.3,66.2,302.3,66.6,303.3z M40.7,294.9
				c6.1-0.2,11.2-2.8,14.8-6.5c3.7-3.8,5.7-8.4,5.7-11.9c0-2.6-1.1-4.5-3.4-4.5C52.1,272,44.9,283.8,40.7,294.9z"/>
			<path class="st1" d="M99.2,303.3c-4.9,8.4-10.5,15.8-17,15.8c-5.7,0-5.7-5-5.7-5s-3.8,5-8.9,5c-4,0-6-3.1-6-7.1
				c0-6.7,5.9-27.3,16.6-27.3c5.3,0,6.2,5.1,6.2,5.1l1.8-4.3h6.6l-8.6,21.2c-2.6,6.4-1.8,8.1-0.1,8.1c3.2,0,8.1-6.2,12.4-13.5
				C97.5,301.3,98.9,302.3,99.2,303.3z M77.2,307.8l5.2-12.9c0,0,0.1-4.5-3.1-4.5c-5.9,0-11.5,15.7-11.5,20.7c0,1.8,0.7,2.6,2.1,2.6
				C73.7,313.6,77.2,307.8,77.2,307.8z"/>
			<path class="st1" d="M130.9,303.3c-5,8.8-10.6,15.8-16.9,15.8c-5.2,0-8.1-3.8-3.7-14.8l2.5-6.2c1.3-3.2,2.2-5.4,2.2-6.4
				c0-0.9-0.8-1.4-1.8-1.4c-1.7,0-4.7,1.5-7.5,4.6l-9.5,23.4h-6.6l13.2-32.7h6.6l-1.3,3.3c3.2-3,6.3-4.1,8.8-4.1
				c2.7,0,4.9,1.6,4.9,4.9c0,1.9-0.8,4.4-2.1,7.7l-3.8,9.5c-3,7.4-1.2,8.1-0.2,8.1c3.2,0,8.2-6.2,12.5-13.5
				C129.1,301.3,130.6,302.3,130.9,303.3z"/>
			<path class="st1" d="M163.6,303.3c-4.9,8.4-10.5,15.8-17,15.8c-5.7,0-5.7-5-5.7-5s-3.8,5-8.9,5c-4,0-6-3.1-6-7.1
				c0-6.7,5.9-27.3,16.6-27.3c5.3,0,6.2,5.1,6.2,5.1l6.8-16.8h6.6l-13.6,33.7c-2.8,6.9-1.6,8.1-0.2,8.1c3.2,0,8.2-6.2,12.5-13.5
				C161.8,301.3,163.3,302.3,163.6,303.3z M141.5,307.8l5.2-12.9c0,0,0.1-4.5-3.1-4.5c-5.9,0-11.5,15.7-11.5,20.7
				c0,1.8,0.7,2.6,2.1,2.6C138,313.6,141.5,307.8,141.5,307.8z"/>
			<path class="st1" d="M194.6,303.3c-6.5,11.4-14.4,15.1-20.2,17.8c0,0-0.8,2.1-1.8,4.5c-2.5,5.8-5.6,11.2-11.9,11.2
				c-4.2,0-6.7-2.5-6.4-6c0.3-3.8,3.6-6.2,6.9-7.8c2.3-1.1,5.9-2.5,7.3-3.4l1.8-4.3c0,0-3.1,3.9-7.2,3.9c-4.6,0-8-3.5-3.3-14.8
				l7.6-18.7h6.6l-8.6,21.2c-2.6,6.4-1.8,7.4-0.4,7.4c3.7,0,8.3-7.2,10.7-12l6.7-16.6h6.6l-12.5,30.9c5.9-3,11.2-7.3,15.6-15.1
				C192.8,301.3,194.3,302.3,194.6,303.3z M159.8,332.2c1.8-0.1,4.4-1.9,6.7-7.9c-1.9,0.8-3.7,1.4-5.4,2.5c-1.5,0.9-3.2,2.3-3.2,3.8
				C157.9,331.6,158.7,332.3,159.8,332.2z"/>
		</g>
		<g>
			<path class="st1" d="M196.8,287.2c-0.3-0.6-0.3-1.2,0-1.8c0.2-0.6,0.7-1,1.3-1.3c0.3-0.1,0.6-0.2,0.9-0.2c0.4,0,0.8,0.1,1.2,0.4
				c0.4,0.3,0.7,0.6,0.9,1.1l10.7,25.1l10.7-25.1c0.2-0.4,0.5-0.8,0.9-1c0.4-0.2,0.8-0.4,1.3-0.4c0.3,0,0.6,0.1,0.9,0.2
				c0.6,0.3,1,0.7,1.2,1.2c0.3,0.6,0.3,1.2,0,1.8l-12.9,29.9c-0.2,0.5-0.5,0.8-0.9,1.1c-0.4,0.2-0.9,0.4-1.4,0.4
				c-0.4,0-0.8-0.2-1.1-0.4c-0.4-0.2-0.6-0.6-0.8-1L196.8,287.2z"/>
			<path class="st1" d="M249.1,311.3h-16.6l-2.5,5.9c-0.2,0.4-0.5,0.8-0.9,1c-0.4,0.2-0.8,0.4-1.2,0.4c-0.3,0-0.7-0.1-1-0.2
				c-0.6-0.3-1-0.7-1.2-1.3c-0.2-0.6-0.1-1.2,0.1-1.8l12.9-29.9c0.4-1,1.1-1.4,2.1-1.4c0.5,0,0.9,0.1,1.3,0.4c0.4,0.2,0.7,0.6,0.9,1
				l12.9,29.9c0.3,0.6,0.3,1.2,0.1,1.8c-0.2,0.6-0.6,1-1.2,1.3c-0.3,0.1-0.7,0.2-1,0.2c-0.5,0-0.9-0.1-1.3-0.4
				c-0.4-0.2-0.7-0.6-0.9-1L249.1,311.3z M234.4,306.6h12.8l-6.4-15.1L234.4,306.6z"/>
			<path class="st1" d="M266.6,313.9l16.5,0c0.3,0,0.6,0.1,0.9,0.2c0.3,0.1,0.5,0.3,0.7,0.5c0.2,0.2,0.4,0.5,0.5,0.7
				c0.1,0.3,0.2,0.6,0.2,0.9c0,0.3-0.1,0.6-0.2,0.9c-0.1,0.3-0.3,0.5-0.5,0.7c-0.2,0.2-0.5,0.4-0.7,0.5s-0.6,0.2-0.9,0.2H264
				c-0.6-0.1-1.1-0.3-1.4-0.7c-0.4-0.4-0.6-0.9-0.6-1.6v-29.9c0-0.3,0.1-0.6,0.2-0.9s0.3-0.5,0.5-0.7c0.2-0.2,0.4-0.4,0.7-0.5
				s0.6-0.2,0.9-0.2c0.6,0,1.2,0.2,1.7,0.7c0.5,0.4,0.7,1,0.7,1.7V313.9z"/>
			<path class="st1" d="M297,313.9l16.5,0c0.3,0,0.6,0.1,0.9,0.2c0.3,0.1,0.5,0.3,0.7,0.5c0.2,0.2,0.4,0.5,0.5,0.7
				c0.1,0.3,0.2,0.6,0.2,0.9c0,0.3-0.1,0.6-0.2,0.9c-0.1,0.3-0.3,0.5-0.5,0.7c-0.2,0.2-0.5,0.4-0.7,0.5s-0.6,0.2-0.9,0.2h-19.1
				c-0.6-0.1-1.1-0.3-1.4-0.7c-0.4-0.4-0.6-0.9-0.6-1.6v-29.9c0-0.3,0.1-0.6,0.2-0.9s0.3-0.5,0.5-0.7c0.2-0.2,0.4-0.4,0.7-0.5
				s0.6-0.2,0.9-0.2c0.6,0,1.2,0.2,1.7,0.7c0.5,0.4,0.7,1,0.7,1.7V313.9z"/>
			<path class="st1" d="M325,318.6c-0.6-0.1-1.1-0.3-1.6-0.7c-0.4-0.4-0.6-1-0.6-1.6v-29.9c0-0.7,0.2-1.2,0.7-1.7
				c0.5-0.4,1-0.7,1.7-0.7h19.7c0.6,0,1.2,0.2,1.6,0.7c0.4,0.4,0.7,1,0.7,1.6c0,0.6-0.2,1.2-0.7,1.7c-0.4,0.5-1,0.7-1.6,0.7h-17.3
				v9.9h13.4c0.3,0,0.6,0.1,0.9,0.2c0.3,0.1,0.5,0.3,0.8,0.5c0.2,0.2,0.4,0.5,0.5,0.8c0.1,0.3,0.2,0.6,0.2,0.9
				c0,0.6-0.2,1.2-0.7,1.6c-0.5,0.4-1,0.7-1.7,0.7h-13.4v10.7h17.3c0.3,0,0.6,0.1,0.9,0.2s0.5,0.3,0.7,0.5c0.2,0.2,0.4,0.5,0.5,0.7
				c0.1,0.3,0.2,0.6,0.2,0.9c0,0.7-0.2,1.2-0.7,1.7c-0.4,0.5-1,0.7-1.6,0.6H325z"/>
			<path class="st1" d="M366.2,299.7l11.3-14.9c0.5-0.5,1-0.8,1.7-0.8c0.6,0,1.1,0.2,1.5,0.6c0.5,0.4,0.7,0.9,0.8,1.5
				c0.1,0.6-0.1,1.2-0.6,1.9l-12.4,15.8v12.5c0,0.6-0.2,1.2-0.7,1.6c-0.5,0.4-1,0.7-1.6,0.7c-0.6,0-1.2-0.2-1.6-0.7
				c-0.5-0.4-0.7-1-0.7-1.6v-12.5L351.3,288c-0.4-0.5-0.6-1.1-0.6-1.7c0-0.6,0.3-1.2,0.8-1.6c0.2-0.2,0.5-0.3,0.7-0.4
				c0.3-0.1,0.5-0.1,0.8-0.1c0.3,0,0.6,0.1,0.9,0.2c0.3,0.1,0.6,0.3,0.8,0.6L366.2,299.7z"/>
		</g>
	</g>
</g>
<g id="black">
	<g>
		<g>
			<path d="M65.9,52c-6.1,10.5-14.6,18.6-24.7,18.6c-8.7,0-10.9-5.9-10.9-12.1c0-3,0.5-6.7,1.5-10.5c-8.9-2.6-12.3-9.3-12.3-15.2
				c0-6.4,3.9-11.8,8.3-14.2L31,23c-1.3,0.7-6,4.1-6,10c0,4.2,3.5,8.8,8.4,10C38.1,29,47.8,14.3,58.2,14.3c5.8,0,8.9,4.6,8.9,10.1
				c0,4.8-2.1,11.2-7.6,16.5c-4.7,4.5-11.5,8-20.4,8h-0.9c-1.1,3.7-1.6,7.3-1.6,9.8c0,3.8,1.4,6.9,6,6.9c6.2,0,14.8-5.7,20.5-15.5
				C64.2,50,65.6,51.1,65.9,52z M40.1,43.6c6.1-0.2,11.2-2.8,14.8-6.5c3.7-3.8,5.7-8.4,5.7-11.9c0-2.6-1.1-4.5-3.4-4.5
				C51.5,20.7,44.3,32.5,40.1,43.6z"/>
			<path d="M98.6,52c-4.9,8.4-10.5,15.8-17,15.8c-5.7,0-5.7-5-5.7-5s-3.8,5-8.9,5c-4,0-6-3.1-6-7.1c0-6.7,5.9-27.3,16.6-27.3
				c5.3,0,6.2,5.1,6.2,5.1l1.8-4.3h6.6l-8.6,21.2c-2.6,6.4-1.8,8.1-0.1,8.1c3.2,0,8.1-6.2,12.4-13.5C96.9,50,98.3,51.1,98.6,52z
				 M76.6,56.5l5.2-12.9c0,0,0.1-4.5-3.1-4.5c-5.9,0-11.5,15.7-11.5,20.7c0,1.8,0.7,2.6,2.1,2.6C73.1,62.3,76.6,56.5,76.6,56.5z"/>
			<path d="M130.3,52c-5,8.8-10.6,15.8-16.9,15.8c-5.2,0-8.1-3.8-3.7-14.8l2.5-6.2c1.3-3.2,2.2-5.4,2.2-6.4c0-0.9-0.8-1.4-1.8-1.4
				c-1.7,0-4.7,1.5-7.5,4.6L95.7,67h-6.6l13.2-32.7h6.6l-1.3,3.3c3.2-3,6.3-4.1,8.8-4.1c2.7,0,4.9,1.6,4.9,4.9
				c0,1.9-0.8,4.4-2.1,7.7l-3.8,9.5c-3,7.4-1.2,8.1-0.2,8.1c3.2,0,8.2-6.2,12.5-13.5C128.5,50,129.9,51.1,130.3,52z"/>
			<path d="M163,52c-4.9,8.4-10.5,15.8-17,15.8c-5.7,0-5.7-5-5.7-5s-3.8,5-8.9,5c-4,0-6-3.1-6-7.1c0-6.7,5.9-27.3,16.6-27.3
				c5.3,0,6.2,5.1,6.2,5.1l6.8-16.8h6.6L148,55.5c-2.8,6.9-1.6,8.1-0.2,8.1c3.2,0,8.2-6.2,12.5-13.5C161.2,50,162.6,51.1,163,52z
				 M140.9,56.5l5.2-12.9c0,0,0.1-4.5-3.1-4.5c-5.9,0-11.5,15.7-11.5,20.7c0,1.8,0.7,2.6,2.1,2.6C137.4,62.3,140.9,56.5,140.9,56.5z
				"/>
			<path d="M193.9,52c-6.5,11.4-14.4,15.1-20.2,17.8c0,0-0.8,2.1-1.8,4.5c-2.5,5.8-5.6,11.2-11.9,11.2c-4.2,0-6.7-2.5-6.4-6
				c0.3-3.8,3.6-6.2,6.9-7.8c2.3-1.1,5.9-2.5,7.3-3.4l1.8-4.3c0,0-3.1,3.9-7.2,3.9c-4.6,0-8-3.5-3.3-14.8l7.6-18.7h6.6l-8.6,21.2
				c-2.6,6.4-1.8,7.4-0.4,7.4c3.7,0,8.3-7.2,10.7-12l6.7-16.6h6.6l-12.5,30.9c5.9-3,11.2-7.3,15.6-15.1
				C192.2,50,193.6,51.1,193.9,52z M159.2,80.9c1.8-0.1,4.4-1.9,6.7-7.9c-1.9,0.8-3.7,1.4-5.4,2.5c-1.5,0.9-3.2,2.3-3.2,3.8
				C157.3,80.3,158,81,159.2,80.9z"/>
		</g>
		<g>
			<path d="M196.2,36c-0.3-0.6-0.3-1.2,0-1.8c0.2-0.6,0.7-1,1.3-1.3c0.3-0.1,0.6-0.2,0.9-0.2c0.4,0,0.8,0.1,1.2,0.4
				c0.4,0.3,0.7,0.6,0.9,1.1l10.7,25.1l10.7-25.1c0.2-0.4,0.5-0.8,0.9-1c0.4-0.2,0.8-0.4,1.3-0.4c0.3,0,0.6,0.1,0.9,0.2
				c0.6,0.3,1,0.7,1.2,1.2c0.3,0.6,0.3,1.2,0,1.8l-12.9,29.9c-0.2,0.5-0.5,0.8-0.9,1.1c-0.4,0.2-0.9,0.4-1.4,0.4
				c-0.4,0-0.8-0.2-1.1-0.4c-0.4-0.2-0.6-0.6-0.8-1L196.2,36z"/>
			<path d="M248.5,60h-16.6l-2.5,5.9c-0.2,0.4-0.5,0.8-0.9,1c-0.4,0.2-0.8,0.4-1.2,0.4c-0.3,0-0.7-0.1-1-0.2c-0.6-0.3-1-0.7-1.2-1.3
				c-0.2-0.6-0.1-1.2,0.1-1.8L238,34.2c0.4-1,1.1-1.4,2.1-1.4c0.5,0,0.9,0.1,1.3,0.4c0.4,0.2,0.7,0.6,0.9,1L255.2,64
				c0.3,0.6,0.3,1.2,0.1,1.8c-0.2,0.6-0.6,1-1.2,1.3c-0.3,0.1-0.7,0.2-1,0.2c-0.5,0-0.9-0.1-1.3-0.4c-0.4-0.2-0.7-0.6-0.9-1
				L248.5,60z M233.7,55.3h12.8l-6.4-15.1L233.7,55.3z"/>
			<path d="M266,62.6l16.5,0c0.3,0,0.6,0.1,0.9,0.2c0.3,0.1,0.5,0.3,0.7,0.5c0.2,0.2,0.4,0.5,0.5,0.7c0.1,0.3,0.2,0.6,0.2,0.9
				c0,0.3-0.1,0.6-0.2,0.9c-0.1,0.3-0.3,0.5-0.5,0.7c-0.2,0.2-0.5,0.4-0.7,0.5s-0.6,0.2-0.9,0.2h-19.1c-0.6-0.1-1.1-0.3-1.4-0.7
				c-0.4-0.4-0.6-0.9-0.6-1.6V35.1c0-0.3,0.1-0.6,0.2-0.9s0.3-0.5,0.5-0.7c0.2-0.2,0.4-0.4,0.7-0.5s0.6-0.2,0.9-0.2
				c0.6,0,1.2,0.2,1.7,0.7c0.5,0.4,0.7,1,0.7,1.7V62.6z"/>
			<path d="M296.4,62.6l16.5,0c0.3,0,0.6,0.1,0.9,0.2c0.3,0.1,0.5,0.3,0.7,0.5c0.2,0.2,0.4,0.5,0.5,0.7c0.1,0.3,0.2,0.6,0.2,0.9
				c0,0.3-0.1,0.6-0.2,0.9c-0.1,0.3-0.3,0.5-0.5,0.7c-0.2,0.2-0.5,0.4-0.7,0.5s-0.6,0.2-0.9,0.2h-19.1c-0.6-0.1-1.1-0.3-1.4-0.7
				c-0.4-0.4-0.6-0.9-0.6-1.6V35.1c0-0.3,0.1-0.6,0.2-0.9s0.3-0.5,0.5-0.7c0.2-0.2,0.4-0.4,0.7-0.5s0.6-0.2,0.9-0.2
				c0.6,0,1.2,0.2,1.7,0.7c0.5,0.4,0.7,1,0.7,1.7V62.6z"/>
			<path d="M324.3,67.3c-0.6-0.1-1.1-0.3-1.6-0.7c-0.4-0.4-0.6-1-0.6-1.6V35.1c0-0.7,0.2-1.2,0.7-1.7c0.5-0.4,1-0.7,1.7-0.7h19.7
				c0.6,0,1.2,0.2,1.6,0.7c0.4,0.4,0.7,1,0.7,1.6c0,0.6-0.2,1.2-0.7,1.7c-0.4,0.5-1,0.7-1.6,0.7h-17.3v9.9h13.4
				c0.3,0,0.6,0.1,0.9,0.2c0.3,0.1,0.5,0.3,0.8,0.5c0.2,0.2,0.4,0.5,0.5,0.8c0.1,0.3,0.2,0.6,0.2,0.9c0,0.6-0.2,1.2-0.7,1.6
				c-0.5,0.4-1,0.7-1.7,0.7h-13.4v10.7h17.3c0.3,0,0.6,0.1,0.9,0.2s0.5,0.3,0.7,0.5c0.2,0.2,0.4,0.5,0.5,0.7
				c0.1,0.3,0.2,0.6,0.2,0.9c0,0.7-0.2,1.2-0.7,1.7c-0.4,0.5-1,0.7-1.6,0.6H324.3z"/>
			<path d="M365.6,48.4l11.3-14.9c0.5-0.5,1-0.8,1.7-0.8c0.6,0,1.1,0.2,1.5,0.6c0.5,0.4,0.7,0.9,0.8,1.5c0.1,0.6-0.1,1.2-0.6,1.9
				l-12.4,15.8V65c0,0.6-0.2,1.2-0.7,1.6c-0.5,0.4-1,0.7-1.6,0.7c-0.6,0-1.2-0.2-1.6-0.7c-0.5-0.4-0.7-1-0.7-1.6V52.5l-12.6-15.8
				c-0.4-0.5-0.6-1.1-0.6-1.7c0-0.6,0.3-1.2,0.8-1.6c0.2-0.2,0.5-0.3,0.7-0.4c0.3-0.1,0.5-0.1,0.8-0.1c0.3,0,0.6,0.1,0.9,0.2
				c0.3,0.1,0.6,0.3,0.8,0.6L365.6,48.4z"/>
		</g>
	</g>
</g>
<g id="orange">
	<g>
		<g>
			<path class="st0" d="M65.9,179.9c-6.1,10.5-14.6,18.6-24.7,18.6c-8.7,0-10.9-5.9-10.9-12.1c0-3,0.5-6.7,1.5-10.5
				c-8.9-2.6-12.3-9.3-12.3-15.2c0-6.4,3.9-11.8,8.3-14.2l3.2,4.5c-1.3,0.7-6,4.1-6,10c0,4.2,3.5,8.8,8.4,10
				c4.7-13.9,14.4-28.6,24.8-28.6c5.8,0,8.9,4.6,8.9,10.1c0,4.8-2.1,11.2-7.6,16.5c-4.7,4.5-11.5,8-20.4,8h-0.9
				c-1.1,3.7-1.6,7.3-1.6,9.8c0,3.8,1.4,6.9,6,6.9c6.2,0,14.8-5.7,20.5-15.5C64.2,177.9,65.6,178.9,65.9,179.9z M40.1,171.5
				c6.1-0.2,11.2-2.8,14.8-6.5c3.7-3.8,5.7-8.4,5.7-11.9c0-2.6-1.1-4.5-3.4-4.5C51.5,148.5,44.3,160.3,40.1,171.5z"/>
			<path class="st0" d="M98.6,179.9c-4.9,8.4-10.5,15.8-17,15.8c-5.7,0-5.7-5-5.7-5s-3.8,5-8.9,5c-4,0-6-3.1-6-7.1
				c0-6.7,5.9-27.3,16.6-27.3c5.3,0,6.2,5.1,6.2,5.1l1.8-4.3h6.6l-8.6,21.2c-2.6,6.4-1.8,8.1-0.1,8.1c3.2,0,8.1-6.2,12.4-13.5
				C96.9,177.9,98.3,178.9,98.6,179.9z M76.6,184.4l5.2-12.9c0,0,0.1-4.5-3.1-4.5c-5.9,0-11.5,15.7-11.5,20.7c0,1.8,0.7,2.6,2.1,2.6
				C73.1,190.2,76.6,184.4,76.6,184.4z"/>
			<path class="st0" d="M130.3,179.9c-5,8.8-10.6,15.8-16.9,15.8c-5.2,0-8.1-3.8-3.7-14.8l2.5-6.2c1.3-3.2,2.2-5.4,2.2-6.4
				c0-0.9-0.8-1.4-1.8-1.4c-1.7,0-4.7,1.5-7.5,4.6l-9.5,23.4h-6.6l13.2-32.7h6.6l-1.3,3.3c3.2-3,6.3-4.1,8.8-4.1
				c2.7,0,4.9,1.6,4.9,4.9c0,1.9-0.8,4.4-2.1,7.7l-3.8,9.5c-3,7.4-1.2,8.1-0.2,8.1c3.2,0,8.2-6.2,12.5-13.5
				C128.5,177.9,129.9,178.9,130.3,179.9z"/>
			<path class="st0" d="M163,179.9c-4.9,8.4-10.5,15.8-17,15.8c-5.7,0-5.7-5-5.7-5s-3.8,5-8.9,5c-4,0-6-3.1-6-7.1
				c0-6.7,5.9-27.3,16.6-27.3c5.3,0,6.2,5.1,6.2,5.1l6.8-16.8h6.6L148,183.4c-2.8,6.9-1.6,8.1-0.2,8.1c3.2,0,8.2-6.2,12.5-13.5
				C161.2,177.9,162.6,178.9,163,179.9z M140.9,184.4l5.2-12.9c0,0,0.1-4.5-3.1-4.5c-5.9,0-11.5,15.7-11.5,20.7
				c0,1.8,0.7,2.6,2.1,2.6C137.4,190.2,140.9,184.4,140.9,184.4z"/>
			<path class="st0" d="M193.9,179.9c-6.5,11.4-14.4,15.1-20.2,17.8c0,0-0.8,2.1-1.8,4.5c-2.5,5.8-5.6,11.2-11.9,11.2
				c-4.2,0-6.7-2.5-6.4-6c0.3-3.8,3.6-6.2,6.9-7.8c2.3-1.1,5.9-2.5,7.3-3.4l1.8-4.3c0,0-3.1,3.9-7.2,3.9c-4.6,0-8-3.5-3.3-14.8
				l7.6-18.7h6.6l-8.6,21.2c-2.6,6.4-1.8,7.4-0.4,7.4c3.7,0,8.3-7.2,10.7-12l6.7-16.6h6.6L175.6,193c5.9-3,11.2-7.3,15.6-15.1
				C192.2,177.9,193.6,178.9,193.9,179.9z M159.2,208.8c1.8-0.1,4.4-1.9,6.7-7.9c-1.9,0.8-3.7,1.4-5.4,2.5c-1.5,0.9-3.2,2.3-3.2,3.8
				C157.3,208.1,158,208.8,159.2,208.8z"/>
		</g>
		<g>
			<path class="st0" d="M196.2,163.8c-0.3-0.6-0.3-1.2,0-1.8c0.2-0.6,0.7-1,1.3-1.3c0.3-0.1,0.6-0.2,0.9-0.2c0.4,0,0.8,0.1,1.2,0.4
				c0.4,0.3,0.7,0.6,0.9,1.1l10.7,25.1l10.7-25.1c0.2-0.4,0.5-0.8,0.9-1c0.4-0.2,0.8-0.4,1.3-0.4c0.3,0,0.6,0.1,0.9,0.2
				c0.6,0.3,1,0.7,1.2,1.2c0.3,0.6,0.3,1.2,0,1.8l-12.9,29.9c-0.2,0.5-0.5,0.8-0.9,1.1c-0.4,0.2-0.9,0.4-1.4,0.4
				c-0.4,0-0.8-0.2-1.1-0.4c-0.4-0.2-0.6-0.6-0.8-1L196.2,163.8z"/>
			<path class="st0" d="M248.5,187.8h-16.6l-2.5,5.9c-0.2,0.4-0.5,0.8-0.9,1c-0.4,0.2-0.8,0.4-1.2,0.4c-0.3,0-0.7-0.1-1-0.2
				c-0.6-0.3-1-0.7-1.2-1.3c-0.2-0.6-0.1-1.2,0.1-1.8L238,162c0.4-1,1.1-1.4,2.1-1.4c0.5,0,0.9,0.1,1.3,0.4c0.4,0.2,0.7,0.6,0.9,1
				l12.9,29.9c0.3,0.6,0.3,1.2,0.1,1.8c-0.2,0.6-0.6,1-1.2,1.3c-0.3,0.1-0.7,0.2-1,0.2c-0.5,0-0.9-0.1-1.3-0.4
				c-0.4-0.2-0.7-0.6-0.9-1L248.5,187.8z M233.7,183.2h12.8l-6.4-15.1L233.7,183.2z"/>
			<path class="st0" d="M266,190.5l16.5,0c0.3,0,0.6,0.1,0.9,0.2c0.3,0.1,0.5,0.3,0.7,0.5c0.2,0.2,0.4,0.5,0.5,0.7
				c0.1,0.3,0.2,0.6,0.2,0.9c0,0.3-0.1,0.6-0.2,0.9c-0.1,0.3-0.3,0.5-0.5,0.7c-0.2,0.2-0.5,0.4-0.7,0.5s-0.6,0.2-0.9,0.2h-19.1
				c-0.6-0.1-1.1-0.3-1.4-0.7c-0.4-0.4-0.6-0.9-0.6-1.6v-29.9c0-0.3,0.1-0.6,0.2-0.9s0.3-0.5,0.5-0.7c0.2-0.2,0.4-0.4,0.7-0.5
				s0.6-0.2,0.9-0.2c0.6,0,1.2,0.2,1.7,0.7c0.5,0.4,0.7,1,0.7,1.7V190.5z"/>
			<path class="st0" d="M296.4,190.5l16.5,0c0.3,0,0.6,0.1,0.9,0.2c0.3,0.1,0.5,0.3,0.7,0.5c0.2,0.2,0.4,0.5,0.5,0.7
				c0.1,0.3,0.2,0.6,0.2,0.9c0,0.3-0.1,0.6-0.2,0.9c-0.1,0.3-0.3,0.5-0.5,0.7c-0.2,0.2-0.5,0.4-0.7,0.5s-0.6,0.2-0.9,0.2h-19.1
				c-0.6-0.1-1.1-0.3-1.4-0.7c-0.4-0.4-0.6-0.9-0.6-1.6v-29.9c0-0.3,0.1-0.6,0.2-0.9s0.3-0.5,0.5-0.7c0.2-0.2,0.4-0.4,0.7-0.5
				s0.6-0.2,0.9-0.2c0.6,0,1.2,0.2,1.7,0.7c0.5,0.4,0.7,1,0.7,1.7V190.5z"/>
			<path class="st0" d="M324.3,195.2c-0.6-0.1-1.1-0.3-1.6-0.7c-0.4-0.4-0.6-1-0.6-1.6v-29.9c0-0.7,0.2-1.2,0.7-1.7
				c0.5-0.4,1-0.7,1.7-0.7h19.7c0.6,0,1.2,0.2,1.6,0.7c0.4,0.4,0.7,1,0.7,1.6c0,0.6-0.2,1.2-0.7,1.7c-0.4,0.5-1,0.7-1.6,0.7h-17.3
				v9.9h13.4c0.3,0,0.6,0.1,0.9,0.2c0.3,0.1,0.5,0.3,0.8,0.5c0.2,0.2,0.4,0.5,0.5,0.8c0.1,0.3,0.2,0.6,0.2,0.9
				c0,0.6-0.2,1.2-0.7,1.6c-0.5,0.4-1,0.7-1.7,0.7h-13.4v10.7h17.3c0.3,0,0.6,0.1,0.9,0.2s0.5,0.3,0.7,0.5c0.2,0.2,0.4,0.5,0.5,0.7
				c0.1,0.3,0.2,0.6,0.2,0.9c0,0.7-0.2,1.2-0.7,1.7c-0.4,0.5-1,0.7-1.6,0.6H324.3z"/>
			<path class="st0" d="M365.6,176.3l11.3-14.9c0.5-0.5,1-0.8,1.7-0.8c0.6,0,1.1,0.2,1.5,0.6c0.5,0.4,0.7,0.9,0.8,1.5
				c0.1,0.6-0.1,1.2-0.6,1.9l-12.4,15.8v12.5c0,0.6-0.2,1.2-0.7,1.6c-0.5,0.4-1,0.7-1.6,0.7c-0.6,0-1.2-0.2-1.6-0.7
				c-0.5-0.4-0.7-1-0.7-1.6v-12.5l-12.6-15.8c-0.4-0.5-0.6-1.1-0.6-1.7c0-0.6,0.3-1.2,0.8-1.6c0.2-0.2,0.5-0.3,0.7-0.4
				c0.3-0.1,0.5-0.1,0.8-0.1c0.3,0,0.6,0.1,0.9,0.2c0.3,0.1,0.6,0.3,0.8,0.6L365.6,176.3z"/>
		</g>
	</g>
	<g>
	</g>
	<g>
	</g>
	<g>
	</g>
	<g>
	</g>
	<g>
	</g>
	<g>
	</g>
</g>
</svg>
