<?xml version="1.0" encoding="utf-8"?>
<!-- Generator: Adobe Illustrator 23.0.2, SVG Export Plug-In . SVG Version: 6.00 Build 0)  -->
<svg version="1.1" id="Layer_1" xmlns="http://www.w3.org/2000/svg" xmlns:xlink="http://www.w3.org/1999/xlink" x="0px" y="0px"
	 viewBox="0 0 400 100" style="enable-background:new 0 0 400 100;" xml:space="preserve">
<style type="text/css">
	.st0{fill:#B43C27;}
	.st1{fill:#FFFFFF;}
</style>
<g id="guides">
</g>
<g id="info">
	<g>
		<path d="M618.7-91.2c-1.2,2-2.8,3.5-4.7,3.5c-1.7,0-2.1-1.1-2.1-2.3c0-0.6,0.1-1.3,0.3-2c-1.7-0.5-2.3-1.8-2.3-2.9
			c0-1.2,0.7-2.3,1.6-2.7l0.6,0.9c-0.2,0.1-1.1,0.8-1.1,1.9c0,0.8,0.7,1.7,1.6,1.9c0.9-2.7,2.7-5.4,4.7-5.4c1.1,0,1.7,0.9,1.7,1.9
			c0,0.9-0.4,2.1-1.4,3.1c-0.9,0.9-2.2,1.5-3.9,1.5h-0.2c-0.2,0.7-0.3,1.4-0.3,1.9c0,0.7,0.3,1.3,1.2,1.3c1.2,0,2.8-1.1,3.9-3
			C618.4-91.5,618.6-91.4,618.7-91.2z M613.8-92.8c1.2,0,2.1-0.5,2.8-1.2s1.1-1.6,1.1-2.3c0-0.5-0.2-0.9-0.6-0.9
			C615.9-97.1,614.6-94.9,613.8-92.8z"/>
		<path d="M624.9-91.2c-0.9,1.6-2,3-3.2,3c-1.1,0-1.1-1-1.1-1s-0.7,1-1.7,1c-0.8,0-1.2-0.6-1.2-1.3c0-1.3,1.1-5.2,3.2-5.2
			c1,0,1.2,1,1.2,1l0.3-0.8h1.3l-1.6,4c-0.5,1.2-0.3,1.5,0,1.5c0.6,0,1.5-1.2,2.4-2.6C624.6-91.5,624.9-91.4,624.9-91.2z
			 M620.7-90.3l1-2.5c0,0,0-0.9-0.6-0.9c-1.1,0-2.2,3-2.2,3.9c0,0.3,0.1,0.5,0.4,0.5C620-89.2,620.7-90.3,620.7-90.3z"/>
		<path d="M630.9-91.2c-1,1.7-2,3-3.2,3c-1,0-1.5-0.7-0.7-2.8l0.5-1.2c0.2-0.6,0.4-1,0.4-1.2s-0.1-0.3-0.3-0.3
			c-0.3,0-0.9,0.3-1.4,0.9l-1.8,4.5h-1.3l2.5-6.2h1.3l-0.3,0.6c0.6-0.6,1.2-0.8,1.7-0.8s0.9,0.3,0.9,0.9c0,0.4-0.1,0.8-0.4,1.5
			l-0.7,1.8c-0.6,1.4-0.2,1.5,0,1.5c0.6,0,1.6-1.2,2.4-2.6C630.6-91.5,630.9-91.4,630.9-91.2z"/>
		<path d="M637.2-91.2c-0.9,1.6-2,3-3.2,3c-1.1,0-1.1-1-1.1-1s-0.7,1-1.7,1c-0.8,0-1.2-0.6-1.2-1.3c0-1.3,1.1-5.2,3.2-5.2
			c1,0,1.2,1,1.2,1l1.3-3.2h1.3l-2.6,6.4c-0.5,1.3-0.3,1.5,0,1.5c0.6,0,1.6-1.2,2.4-2.6C636.8-91.5,637.1-91.4,637.2-91.2z
			 M633-90.3l1-2.5c0,0,0-0.9-0.6-0.9c-1.1,0-2.2,3-2.2,3.9c0,0.3,0.1,0.5,0.4,0.5C632.3-89.2,633-90.3,633-90.3z"/>
		<path d="M643.1-91.2c-1.2,2.2-2.7,2.9-3.8,3.4c0,0-0.2,0.4-0.3,0.9c-0.5,1.1-1.1,2.1-2.3,2.1c-0.8,0-1.3-0.5-1.2-1.2
			c0-0.7,0.7-1.2,1.3-1.5c0.4-0.2,1.1-0.5,1.4-0.6l0.3-0.8c0,0-0.6,0.7-1.4,0.7c-0.9,0-1.5-0.7-0.6-2.8l1.4-3.6h1.3l-1.6,4
			c-0.5,1.2-0.3,1.4-0.1,1.4c0.7,0,1.6-1.4,2-2.3l1.3-3.2h1.3l-2.4,5.9c1.1-0.6,2.1-1.4,3-2.9C642.7-91.5,643-91.4,643.1-91.2z
			 M636.5-85.7c0.3,0,0.8-0.4,1.3-1.5c-0.4,0.1-0.7,0.3-1,0.5s-0.6,0.4-0.6,0.7C636.1-85.8,636.2-85.7,636.5-85.7z"/>
		<path d="M650.5-92.2l-0.4,1h-3.2l0.4-1H650.5z"/>
		<path d="M658.1-88.3h-1V-96h-2.7v-0.9h6.4v0.9h-2.7V-88.3z"/>
		<path d="M666.3-88.3v-4.2c0-0.5-0.1-0.9-0.4-1.2s-0.6-0.4-1.1-0.4c-0.7,0-1.2,0.2-1.5,0.6s-0.5,1-0.5,1.8v3.4h-1v-9.1h1v2.8
			c0,0.3,0,0.6,0,0.8h0.1c0.2-0.3,0.5-0.6,0.8-0.7s0.8-0.3,1.2-0.3c0.8,0,1.4,0.2,1.8,0.6s0.6,1,0.6,1.8v4.2h-1V-88.3z"/>
		<path d="M669.2-96.5c0-0.2,0.1-0.4,0.2-0.5s0.2-0.2,0.4-0.2s0.3,0.1,0.4,0.2s0.2,0.3,0.2,0.5s-0.1,0.4-0.2,0.5s-0.2,0.2-0.4,0.2
			s-0.3-0.1-0.4-0.2S669.2-96.3,669.2-96.5z M670.3-88.3h-1v-6.4h1V-88.3z"/>
		<path d="M675.3-94.9c0.3,0,0.5,0,0.8,0.1l-0.1,0.9c-0.3-0.1-0.5-0.1-0.7-0.1c-0.5,0-1,0.2-1.3,0.6s-0.6,0.9-0.6,1.6v3.4h-1v-6.4
			h0.8l0.1,1.2l0,0c0.2-0.4,0.5-0.7,0.9-1S674.9-94.9,675.3-94.9z"/>
		<path d="M681.4-90.1c0,0.6-0.2,1.1-0.7,1.4s-1.1,0.5-1.9,0.5c-0.9,0-1.5-0.1-2-0.4v-0.9c0.3,0.2,0.6,0.3,1,0.4s0.7,0.1,1,0.1
			c0.5,0,0.9-0.1,1.2-0.2s0.4-0.4,0.4-0.7c0-0.2-0.1-0.5-0.3-0.6s-0.6-0.4-1.3-0.6c-0.6-0.2-1-0.4-1.3-0.6s-0.4-0.4-0.6-0.6
			s-0.2-0.5-0.2-0.8c0-0.5,0.2-0.9,0.6-1.2s1-0.5,1.8-0.5c0.7,0,1.4,0.1,2,0.4l-0.3,0.8c-0.6-0.3-1.2-0.4-1.8-0.4
			c-0.5,0-0.8,0.1-1,0.2s-0.4,0.3-0.4,0.6c0,0.2,0,0.3,0.1,0.4s0.2,0.2,0.4,0.3s0.6,0.3,1.1,0.5c0.8,0.3,1.3,0.6,1.5,0.8
			S681.4-90.5,681.4-90.1z"/>
		<path d="M685-89c0.2,0,0.3,0,0.5,0s0.3-0.1,0.4-0.1v0.7c-0.1,0.1-0.3,0.1-0.5,0.1s-0.4,0-0.6,0c-1.2,0-1.9-0.7-1.9-2V-94H682v-0.5
			l0.9-0.4l0.4-1.4h0.6v1.5h1.9v0.8H684v3.8c0,0.4,0.1,0.7,0.3,0.9S684.7-89,685-89z"/>
		<path d="M686.2-94.7h1l1.4,3.7c0.3,0.8,0.5,1.4,0.6,1.8l0,0c0.1-0.2,0.2-0.5,0.3-1s0.7-2,1.6-4.5h1l-2.8,7.3
			c-0.3,0.7-0.6,1.2-1,1.5s-0.8,0.5-1.3,0.5c-0.3,0-0.6,0-0.9-0.1v-0.8c0.2,0,0.5,0.1,0.7,0.1c0.7,0,1.1-0.4,1.4-1.1l0.4-0.9
			L686.2-94.7z"/>
		<path d="M701.3-90.6c0,0.8-0.3,1.3-0.8,1.8s-1.3,0.6-2.2,0.6c-1,0-1.8-0.1-2.3-0.4v-1c0.4,0.1,0.7,0.3,1.1,0.4s0.8,0.1,1.2,0.1
			c0.7,0,1.2-0.1,1.5-0.4s0.5-0.6,0.5-1.1c0-0.3-0.1-0.5-0.2-0.7s-0.3-0.4-0.6-0.5s-0.7-0.3-1.3-0.5c-0.8-0.3-1.4-0.6-1.7-1
			s-0.5-0.9-0.5-1.5c0-0.7,0.2-1.2,0.7-1.6s1.2-0.6,2-0.6c0.9,0,1.6,0.2,2.3,0.5l-0.3,0.9c-0.7-0.3-1.4-0.4-2.1-0.4
			c-0.5,0-0.9,0.1-1.2,0.3s-0.4,0.5-0.4,0.9c0,0.3,0.1,0.5,0.2,0.7s0.3,0.4,0.6,0.5s0.7,0.3,1.2,0.5c0.9,0.3,1.5,0.7,1.9,1
			S701.3-91.2,701.3-90.6z"/>
		<path d="M705.5-88.2c-0.9,0-1.6-0.3-2.2-0.9s-0.8-1.4-0.8-2.4c0-1.1,0.3-1.9,0.8-2.5s1.3-0.9,2.2-0.9c0.3,0,0.6,0,0.9,0.1
			s0.6,0.1,0.7,0.2l-0.3,0.8c-0.2-0.1-0.4-0.2-0.7-0.2s-0.5-0.1-0.7-0.1c-1.3,0-2,0.8-2,2.5c0,0.8,0.2,1.4,0.5,1.8s0.8,0.6,1.4,0.6
			c0.5,0,1.1-0.1,1.6-0.3v0.9C706.7-88.3,706.2-88.2,705.5-88.2z"/>
		<path d="M711.6-94.9c0.3,0,0.5,0,0.8,0.1l-0.1,0.9c-0.3-0.1-0.5-0.1-0.7-0.1c-0.5,0-1,0.2-1.3,0.6s-0.6,0.9-0.6,1.6v3.4h-1v-6.4
			h0.8l0.1,1.2l0,0c0.2-0.4,0.5-0.7,0.9-1S711.2-94.9,711.6-94.9z"/>
		<path d="M713.5-96.5c0-0.2,0.1-0.4,0.2-0.5s0.2-0.2,0.4-0.2s0.3,0.1,0.4,0.2s0.2,0.3,0.2,0.5s-0.1,0.4-0.2,0.5s-0.2,0.2-0.4,0.2
			s-0.3-0.1-0.4-0.2S713.5-96.3,713.5-96.5z M714.5-88.3h-1v-6.4h1V-88.3z"/>
		<path d="M719.6-88.2c-0.4,0-0.8-0.1-1.1-0.2s-0.6-0.4-0.9-0.7h-0.1c0,0.4,0.1,0.7,0.1,1.1v2.6h-1v-9.3h0.8l0.1,0.9l0,0
			c0.2-0.4,0.5-0.6,0.9-0.8s0.7-0.2,1.1-0.2c0.9,0,1.5,0.3,2,0.9s0.7,1.4,0.7,2.4c0,1.1-0.2,1.9-0.7,2.5S720.4-88.2,719.6-88.2z
			 M719.4-94c-0.7,0-1.1,0.2-1.4,0.5s-0.4,0.9-0.5,1.7v0.2c0,0.9,0.2,1.5,0.5,1.9s0.8,0.6,1.4,0.6c0.6,0,1-0.2,1.3-0.7
			s0.5-1.1,0.5-1.9s-0.2-1.4-0.5-1.8S720-94,719.4-94z"/>
		<path d="M726-89c0.2,0,0.3,0,0.5,0s0.3-0.1,0.4-0.1v0.7c-0.1,0.1-0.3,0.1-0.5,0.1s-0.4,0-0.6,0c-1.2,0-1.9-0.7-1.9-2V-94H723v-0.5
			l0.9-0.4l0.4-1.4h0.6v1.5h1.9v0.8H725v3.8c0,0.4,0.1,0.7,0.3,0.9S725.7-89,726-89z"/>
		<path d="M732.4-91.9v3.6h-1v-8.6h2.3c1.1,0,1.8,0.2,2.3,0.6s0.8,1,0.8,1.8c0,1.1-0.6,1.9-1.7,2.3l2.3,3.8h-1.2l-2.1-3.6
			L732.4-91.9L732.4-91.9z M732.4-92.7h1.4c0.7,0,1.2-0.1,1.5-0.4s0.5-0.7,0.5-1.3c0-0.6-0.2-1-0.5-1.2s-0.9-0.4-1.6-0.4h-1.3
			L732.4-92.7L732.4-92.7z"/>
		<path d="M741.4-88.2c-0.9,0-1.7-0.3-2.2-0.9s-0.8-1.4-0.8-2.4s0.3-1.9,0.8-2.5s1.2-0.9,2.1-0.9c0.8,0,1.4,0.3,1.9,0.8
			s0.7,1.2,0.7,2.1v0.6h-4.4c0,0.8,0.2,1.3,0.6,1.7s0.9,0.6,1.5,0.6c0.7,0,1.4-0.1,2.1-0.4v0.9c-0.3,0.1-0.7,0.3-1,0.3
			S741.9-88.2,741.4-88.2z M741.2-94c-0.5,0-0.9,0.2-1.2,0.5s-0.5,0.8-0.5,1.4h3.4c0-0.6-0.1-1.1-0.4-1.4S741.7-94,741.2-94z"/>
		<path d="M750.7-94.7v0.6l-1.2,0.1c0.1,0.1,0.2,0.3,0.3,0.5s0.1,0.5,0.1,0.7c0,0.6-0.2,1.1-0.6,1.5s-1,0.6-1.8,0.6
			c-0.2,0-0.4,0-0.5,0c-0.4,0.2-0.6,0.5-0.6,0.8c0,0.2,0.1,0.3,0.2,0.4s0.4,0.1,0.7,0.1h1.1c0.7,0,1.2,0.1,1.6,0.4s0.6,0.7,0.6,1.3
			c0,0.7-0.3,1.3-0.9,1.6s-1.4,0.6-2.5,0.6c-0.8,0-1.5-0.2-1.9-0.5s-0.7-0.8-0.7-1.3c0-0.4,0.1-0.7,0.4-1s0.6-0.5,1.1-0.6
			c-0.2-0.1-0.3-0.2-0.4-0.3s-0.2-0.3-0.2-0.5s0.1-0.4,0.2-0.6s0.3-0.3,0.6-0.5c-0.3-0.1-0.6-0.4-0.8-0.7s-0.3-0.7-0.3-1.1
			c0-0.7,0.2-1.2,0.6-1.6s1-0.6,1.8-0.6c0.3,0,0.6,0,0.9,0.1H750.7z M745.6-87.2c0,0.3,0.1,0.6,0.4,0.8s0.7,0.3,1.3,0.3
			c0.8,0,1.4-0.1,1.8-0.4s0.6-0.6,0.6-1c0-0.3-0.1-0.6-0.3-0.7s-0.6-0.2-1.2-0.2H747c-0.4,0-0.8,0.1-1,0.3S745.6-87.6,745.6-87.2z
			 M746.1-92.7c0,0.4,0.1,0.8,0.4,1s0.6,0.3,1.1,0.3c0.9,0,1.4-0.5,1.4-1.4c0-1-0.5-1.4-1.4-1.4c-0.5,0-0.8,0.1-1.1,0.4
			S746.1-93.2,746.1-92.7z"/>
		<path d="M752.9-94.7v4.2c0,0.5,0.1,0.9,0.4,1.2s0.6,0.4,1.1,0.4c0.7,0,1.2-0.2,1.5-0.6s0.5-1,0.5-1.8v-3.4h1v6.4h-0.8l-0.1-0.9
			h-0.1c-0.2,0.3-0.5,0.6-0.8,0.7s-0.8,0.3-1.2,0.3c-0.8,0-1.4-0.2-1.8-0.6s-0.6-1-0.6-1.8v-4.2h0.9V-94.7z"/>
		<path d="M760.4-88.3h-1v-9.1h1V-88.3z"/>
		<path d="M766.4-88.3l-0.2-0.9l0,0c-0.3,0.4-0.6,0.7-1,0.8s-0.7,0.2-1.2,0.2c-0.6,0-1.1-0.2-1.5-0.5s-0.5-0.8-0.5-1.4
			c0-1.3,1-2,3.1-2h1.1v-0.4c0-0.5-0.1-0.9-0.3-1.1s-0.6-0.4-1-0.4c-0.5,0-1.1,0.2-1.8,0.5l-0.3-0.7c0.3-0.2,0.7-0.3,1-0.4
			s0.8-0.1,1.1-0.1c0.8,0,1.3,0.2,1.7,0.5s0.6,0.9,0.6,1.6v4.4L766.4-88.3L766.4-88.3z M764.2-89c0.6,0,1.1-0.2,1.4-0.5
			s0.5-0.8,0.5-1.4v-0.6h-1c-0.8,0-1.3,0.1-1.7,0.4s-0.5,0.5-0.5,1c0,0.4,0.1,0.6,0.3,0.8S763.8-89,764.2-89z"/>
		<path d="M772-94.9c0.3,0,0.5,0,0.8,0.1l-0.1,0.9c-0.3-0.1-0.5-0.1-0.7-0.1c-0.5,0-1,0.2-1.3,0.6s-0.6,0.9-0.6,1.6v3.4h-1v-6.4h0.8
			l0.1,1.2l0,0c0.2-0.4,0.5-0.7,0.9-1S771.6-94.9,772-94.9z"/>
		<path d="M776.8-92c0-1.7,0.3-2.9,1-3.8s1.6-1.3,2.9-1.3c0.4,0,0.8,0,1,0.1v0.8c-0.3-0.1-0.6-0.1-1-0.1c-0.9,0-1.6,0.3-2.1,0.9
			s-0.8,1.5-0.8,2.7h0.1c0.4-0.7,1.1-1,2-1c0.8,0,1.4,0.2,1.8,0.7s0.7,1.1,0.7,1.9c0,0.9-0.2,1.6-0.7,2.1s-1.1,0.8-2,0.8
			s-1.6-0.3-2.1-1S776.8-90.8,776.8-92z M779.6-89c0.6,0,1-0.2,1.3-0.5s0.5-0.9,0.5-1.5s-0.1-1-0.4-1.3s-0.7-0.5-1.3-0.5
			c-0.4,0-0.7,0.1-1,0.2s-0.5,0.3-0.7,0.6s-0.3,0.5-0.3,0.8c0,0.4,0.1,0.8,0.2,1.1s0.4,0.6,0.7,0.8S779.3-89,779.6-89z"/>
		<path d="M789.2-88.3h-5.6v-0.8l2.3-2.3c0.7-0.7,1.1-1.2,1.4-1.5s0.4-0.6,0.5-0.9s0.2-0.6,0.2-0.9c0-0.5-0.1-0.8-0.4-1.1
			s-0.7-0.4-1.2-0.4c-0.4,0-0.7,0.1-1,0.2s-0.7,0.3-1.1,0.6l-0.5-0.7c0.8-0.7,1.6-1,2.6-1c0.8,0,1.4,0.2,1.9,0.6s0.7,1,0.7,1.7
			c0,0.5-0.2,1.1-0.5,1.6s-0.9,1.2-1.7,2l-1.9,1.8l0,0h4.4v1.1H789.2z"/>
		<path d="M793.8-88.2c-0.4,0-0.8-0.1-1.1-0.2s-0.6-0.4-0.9-0.7h-0.1c0,0.4,0.1,0.7,0.1,1.1v2.6h-1v-9.3h0.8l0.1,0.9l0,0
			c0.2-0.4,0.5-0.6,0.9-0.8s0.7-0.2,1.1-0.2c0.9,0,1.5,0.3,2,0.9s0.7,1.4,0.7,2.4c0,1.1-0.2,1.9-0.7,2.5S794.7-88.2,793.8-88.2z
			 M793.7-94c-0.7,0-1.1,0.2-1.4,0.5s-0.4,0.9-0.5,1.7v0.2c0,0.9,0.2,1.5,0.5,1.9s0.8,0.6,1.4,0.6c0.6,0,1-0.2,1.3-0.7
			s0.5-1.1,0.5-1.9s-0.2-1.4-0.5-1.8S794.3-94,793.7-94z"/>
		<path d="M799.7-91.6l-2.2-3.1h1.1l1.7,2.5l1.7-2.5h1.1l-2.2,3.1l2.3,3.3h-1.1l-1.8-2.6l-1.8,2.6h-1.1L799.7-91.6z"/>
	</g>
	<g>
		<path d="M610.2-74.8c-0.1-0.1-0.1-0.3,0-0.4s0.1-0.2,0.3-0.3c0.1,0,0.1,0,0.2,0c0.1,0,0.2,0,0.3,0.1s0.2,0.1,0.2,0.2l2.4,5.6
			l2.4-5.6c0-0.1,0.1-0.2,0.2-0.2c0.1-0.1,0.2-0.1,0.3-0.1s0.1,0,0.2,0c0.1,0.1,0.2,0.1,0.3,0.3c0.1,0.1,0.1,0.3,0,0.4l-2.9,6.6
			c0,0.1-0.1,0.2-0.2,0.2c-0.1,0.1-0.2,0.1-0.3,0.1s-0.2,0-0.3-0.1s-0.1-0.1-0.2-0.2L610.2-74.8z"/>
		<path d="M621.8-69.4h-3.7l-0.6,1.3c0,0.1-0.1,0.2-0.2,0.2c-0.1,0.1-0.2,0.1-0.3,0.1s-0.2,0-0.2,0c-0.1-0.1-0.2-0.1-0.3-0.3
			c0-0.1,0-0.3,0-0.4l2.9-6.6c0.1-0.2,0.2-0.3,0.5-0.3c0.1,0,0.2,0,0.3,0.1s0.1,0.1,0.2,0.2l2.9,6.6c0.1,0.1,0.1,0.3,0,0.4
			s-0.1,0.2-0.3,0.3c-0.1,0-0.1,0-0.2,0c-0.1,0-0.2,0-0.3-0.1s-0.2-0.1-0.2-0.2L621.8-69.4z M618.5-70.4h2.8l-1.4-3.4L618.5-70.4z"
			/>
		<path d="M625.7-68.8h3.7c0.1,0,0.1,0,0.2,0c0.1,0,0.1,0.1,0.2,0.1s0.1,0.1,0.1,0.2s0,0.1,0,0.2s0,0.1,0,0.2s-0.1,0.1-0.1,0.2
			s-0.1,0.1-0.2,0.1c-0.1,0-0.1,0-0.2,0h-4.2c-0.1,0-0.2-0.1-0.3-0.2s-0.1-0.2-0.1-0.3V-75c0-0.1,0-0.1,0-0.2s0.1-0.1,0.1-0.2
			c0,0,0.1-0.1,0.2-0.1c0.1,0,0.1,0,0.2,0c0.1,0,0.3,0,0.4,0.1c0.1,0.1,0.2,0.2,0.2,0.4v6.2H625.7z"/>
		<path d="M632.4-68.8h3.7c0.1,0,0.1,0,0.2,0c0.1,0,0.1,0.1,0.2,0.1s0.1,0.1,0.1,0.2s0,0.1,0,0.2s0,0.1,0,0.2s-0.1,0.1-0.1,0.2
			s-0.1,0.1-0.2,0.1c-0.1,0-0.1,0-0.2,0h-4.2c-0.1,0-0.2-0.1-0.3-0.2s-0.1-0.2-0.1-0.3V-75c0-0.1,0-0.1,0-0.2s0.1-0.1,0.1-0.2
			c0,0,0.1-0.1,0.2-0.1c0.1,0,0.1,0,0.2,0c0.1,0,0.3,0,0.4,0.1c0.1,0.1,0.2,0.2,0.2,0.4v6.2H632.4z"/>
		<path d="M638.7-67.8c-0.1,0-0.3-0.1-0.3-0.2c-0.1-0.1-0.1-0.2-0.1-0.4V-75c0-0.1,0.1-0.3,0.2-0.4c0.1-0.1,0.2-0.1,0.4-0.1h4.4
			c0.1,0,0.3,0.1,0.4,0.2c0.1,0.1,0.1,0.2,0.1,0.4s0,0.3-0.1,0.4s-0.2,0.2-0.4,0.2h-3.9v2.2h3c0.1,0,0.1,0,0.2,0
			c0.1,0,0.1,0.1,0.2,0.1c0,0,0.1,0.1,0.1,0.2s0,0.1,0,0.2s0,0.3-0.2,0.4c-0.1,0.1-0.2,0.1-0.4,0.1h-3v2.4h3.9c0.1,0,0.1,0,0.2,0
			c0.1,0,0.1,0.1,0.2,0.1c0,0,0.1,0.1,0.1,0.2s0,0.1,0,0.2s0,0.3-0.1,0.4s-0.2,0.1-0.4,0.1L638.7-67.8L638.7-67.8z"/>
		<path d="M647.8-72l2.5-3.3c0.1-0.1,0.2-0.2,0.4-0.2c0.1,0,0.2,0,0.3,0.1s0.2,0.2,0.2,0.3c0,0.1,0,0.3-0.1,0.4l-2.8,3.5v2.8
			c0,0.1,0,0.3-0.1,0.4s-0.2,0.1-0.4,0.1s-0.3,0-0.4-0.1c-0.1-0.1-0.1-0.2-0.1-0.4v-2.8l-2.8-3.5c-0.1-0.1-0.1-0.2-0.1-0.4
			c0-0.1,0.1-0.3,0.2-0.4c0,0,0.1-0.1,0.2-0.1s0.1,0,0.2,0c0.1,0,0.1,0,0.2,0c0.1,0,0.1,0.1,0.2,0.1L647.8-72z"/>
		<path d="M658.5-71.7c0.1,0,0.3,0.1,0.4,0.2c0.1,0.1,0.2,0.2,0.2,0.4c0,0.1-0.1,0.3-0.2,0.4c-0.1,0.1-0.2,0.2-0.4,0.2H655
			c-0.1,0-0.1,0-0.2,0c-0.1,0-0.1-0.1-0.2-0.1s-0.1-0.1-0.1-0.2s0-0.1,0-0.2s0.1-0.3,0.2-0.4c0.1-0.1,0.2-0.2,0.4-0.2h3.4V-71.7z"/>
		<path d="M668.8-67.8l-1.1-2.7h-3.4l-1.1,2.7h-1l3.4-8.6h0.8l3.4,8.6H668.8z M667.5-71.4l-1-2.7c-0.1-0.3-0.3-0.7-0.4-1.2
			c-0.1,0.4-0.2,0.8-0.4,1.2l-1,2.7H667.5z"/>
		<path d="M673.8-74.3c0.3,0,0.5,0,0.8,0.1l-0.1,0.9c-0.3-0.1-0.5-0.1-0.7-0.1c-0.5,0-1,0.2-1.3,0.6s-0.6,0.9-0.6,1.6v3.4h-1v-6.4
			h0.8l0.1,1.2l0,0c0.2-0.4,0.5-0.7,0.9-1S673.4-74.3,673.8-74.3z"/>
		<path d="M675.7-75.9c0-0.2,0.1-0.4,0.2-0.5s0.2-0.2,0.4-0.2s0.3,0.1,0.4,0.2s0.2,0.3,0.2,0.5s-0.1,0.4-0.2,0.5s-0.2,0.2-0.4,0.2
			s-0.3-0.1-0.4-0.2S675.7-75.7,675.7-75.9z M676.8-67.8h-1v-6.4h1V-67.8z"/>
		<path d="M683-69.5c0,0.6-0.2,1.1-0.7,1.4s-1.1,0.5-1.9,0.5c-0.9,0-1.5-0.1-2-0.4v-1c0.3,0.2,0.6,0.3,1,0.4s0.7,0.1,1,0.1
			c0.5,0,0.9-0.1,1.2-0.2s0.4-0.4,0.4-0.7c0-0.2-0.1-0.5-0.3-0.6s-0.6-0.4-1.3-0.6c-0.6-0.2-1-0.4-1.3-0.6s-0.4-0.4-0.6-0.6
			s-0.2-0.5-0.2-0.8c0-0.5,0.2-0.9,0.6-1.2s1-0.5,1.8-0.5c0.7,0,1.4,0.1,2,0.4l-0.3,0.8c-0.6-0.3-1.2-0.4-1.8-0.4
			c-0.5,0-0.8,0.1-1,0.2s-0.4,0.3-0.4,0.6c0,0.2,0,0.3,0.1,0.4s0.2,0.2,0.4,0.3s0.6,0.3,1.1,0.5c0.8,0.3,1.3,0.6,1.5,0.8
			S683-70,683-69.5z"/>
		<path d="M686.6-68.5c0.2,0,0.3,0,0.5,0s0.3-0.1,0.4-0.1v0.7c-0.1,0.1-0.3,0.1-0.5,0.1s-0.4,0-0.6,0c-1.2,0-1.9-0.7-1.9-2v-3.8
			h-0.9v-0.5l0.9-0.4l0.4-1.4h0.6v1.5h1.9v0.8h-1.9v3.8c0,0.4,0.1,0.7,0.3,0.9S686.3-68.5,686.6-68.5z"/>
		<path d="M694.3-71c0,1-0.3,1.9-0.8,2.5s-1.3,0.9-2.2,0.9c-0.6,0-1.1-0.1-1.5-0.4s-0.8-0.7-1-1.2s-0.4-1.1-0.4-1.8
			c0-1,0.3-1.9,0.8-2.4s1.2-0.9,2.2-0.9c0.9,0,1.6,0.3,2.1,0.9S694.3-72,694.3-71z M689.5-71c0,0.8,0.2,1.4,0.5,1.9s0.8,0.6,1.4,0.6
			s1.1-0.2,1.5-0.6s0.5-1.1,0.5-1.9s-0.2-1.4-0.5-1.9s-0.8-0.6-1.5-0.6c-0.6,0-1.1,0.2-1.4,0.6S689.5-71.8,689.5-71z"/>
		<path d="M698.1-68.5c0.2,0,0.3,0,0.5,0s0.3-0.1,0.4-0.1v0.7c-0.1,0.1-0.3,0.1-0.5,0.1s-0.4,0-0.6,0c-1.2,0-1.9-0.7-1.9-2v-3.8
			h-0.9v-0.5l0.9-0.4l0.4-1.4h0.6v1.5h1.9v0.8H697v3.8c0,0.4,0.1,0.7,0.3,0.9S697.8-68.5,698.1-68.5z"/>
		<path d="M703-67.7c-0.9,0-1.7-0.3-2.2-0.9S700-70,700-71s0.3-1.9,0.8-2.5s1.2-0.9,2.1-0.9c0.8,0,1.4,0.3,1.9,0.8s0.7,1.2,0.7,2.1
			v0.6h-4.4c0,0.8,0.2,1.3,0.6,1.7s0.9,0.6,1.5,0.6c0.7,0,1.4-0.1,2.1-0.4v0.9c-0.3,0.1-0.7,0.3-1,0.3S703.4-67.7,703-67.7z
			 M702.7-73.5c-0.5,0-0.9,0.2-1.2,0.5s-0.5,0.8-0.5,1.4h3.4c0-0.6-0.1-1.1-0.4-1.4S703.2-73.5,702.7-73.5z"/>
		<path d="M708-67.8h-1v-9.1h1V-67.8z"/>
		<path d="M710-75.9c0-0.2,0.1-0.4,0.2-0.5s0.2-0.2,0.4-0.2s0.3,0.1,0.4,0.2s0.2,0.3,0.2,0.5s-0.1,0.4-0.2,0.5s-0.2,0.2-0.4,0.2
			s-0.3-0.1-0.4-0.2S710-75.7,710-75.9z M711-67.8h-1v-6.4h1V-67.8z"/>
		<path d="M715.7-67.7c-0.9,0-1.6-0.3-2.2-0.9s-0.8-1.4-0.8-2.4c0-1.1,0.3-1.9,0.8-2.5s1.3-0.9,2.2-0.9c0.3,0,0.6,0,0.9,0.1
			s0.6,0.1,0.7,0.2l-0.3,0.8c-0.2-0.1-0.4-0.2-0.7-0.2s-0.5-0.1-0.7-0.1c-1.3,0-2,0.8-2,2.5c0,0.8,0.2,1.4,0.5,1.8s0.8,0.6,1.4,0.6
			c0.5,0,1.1-0.1,1.6-0.3v0.9C716.8-67.8,716.3-67.7,715.7-67.7z"/>
		<path d="M722.8-67.8l-0.2-0.9l0,0c-0.3,0.4-0.6,0.7-1,0.8s-0.7,0.2-1.2,0.2c-0.6,0-1.1-0.2-1.5-0.5s-0.5-0.8-0.5-1.4
			c0-1.3,1-2,3.1-2h1.1V-72c0-0.5-0.1-0.9-0.3-1.1s-0.6-0.4-1-0.4c-0.5,0-1.1,0.2-1.8,0.5l-0.3-0.7c0.3-0.2,0.7-0.3,1-0.4
			s0.8-0.1,1.1-0.1c0.8,0,1.3,0.2,1.7,0.5s0.6,0.9,0.6,1.6v4.4h-0.8V-67.8z M720.6-68.5c0.6,0,1.1-0.2,1.4-0.5s0.5-0.8,0.5-1.4V-71
			h-1c-0.8,0-1.3,0.1-1.7,0.4s-0.5,0.5-0.5,1c0,0.4,0.1,0.6,0.3,0.8S720.2-68.5,720.6-68.5z"/>
		<path d="M733.6-70.1c0,0.8-0.3,1.3-0.8,1.8s-1.3,0.6-2.2,0.6c-1,0-1.8-0.1-2.3-0.4v-1c0.4,0.1,0.7,0.3,1.1,0.4s0.8,0.1,1.2,0.1
			c0.7,0,1.2-0.1,1.5-0.4s0.5-0.6,0.5-1.1c0-0.3-0.1-0.5-0.2-0.7s-0.3-0.4-0.6-0.5s-0.7-0.3-1.3-0.5c-0.8-0.3-1.4-0.6-1.7-1
			s-0.5-0.9-0.5-1.5c0-0.7,0.2-1.2,0.7-1.6s1.2-0.6,2-0.6c0.9,0,1.6,0.2,2.3,0.5l-0.3,0.9c-0.7-0.3-1.4-0.4-2.1-0.4
			c-0.5,0-0.9,0.1-1.2,0.3s-0.4,0.5-0.4,0.9c0,0.3,0.1,0.5,0.2,0.7s0.3,0.4,0.6,0.5s0.7,0.3,1.2,0.5c0.9,0.3,1.5,0.7,1.9,1
			S733.6-70.7,733.6-70.1z"/>
		<path d="M743.4-67.8V-72c0-0.5-0.1-0.9-0.3-1.2s-0.6-0.4-1-0.4c-0.6,0-1.1,0.2-1.3,0.5s-0.4,0.9-0.4,1.6v3.6h-1V-72
			c0-0.5-0.1-0.9-0.3-1.2s-0.6-0.4-1-0.4c-0.6,0-1.1,0.2-1.3,0.5s-0.4,1-0.4,1.8v3.4h-1v-6.4h0.8l0.2,0.9l0,0
			c0.2-0.3,0.4-0.6,0.8-0.7s0.7-0.3,1.1-0.3c1,0,1.7,0.4,2,1.1l0,0c0.2-0.3,0.5-0.6,0.8-0.8s0.8-0.3,1.2-0.3c0.7,0,1.3,0.2,1.6,0.6
			s0.5,1,0.5,1.8v4.2H743.4z"/>
		<path d="M750.3-67.8l-0.2-0.9l0,0c-0.3,0.4-0.6,0.7-1,0.8s-0.7,0.2-1.2,0.2c-0.6,0-1.1-0.2-1.5-0.5s-0.5-0.8-0.5-1.4
			c0-1.3,1-2,3.1-2h1.1V-72c0-0.5-0.1-0.9-0.3-1.1s-0.6-0.4-1-0.4c-0.5,0-1.1,0.2-1.8,0.5l-0.3-0.7c0.3-0.2,0.7-0.3,1-0.4
			s0.8-0.1,1.1-0.1c0.8,0,1.3,0.2,1.7,0.5s0.6,0.9,0.6,1.6v4.4h-0.8V-67.8z M748.1-68.5c0.6,0,1.1-0.2,1.4-0.5s0.5-0.8,0.5-1.4V-71
			h-1c-0.8,0-1.3,0.1-1.7,0.4s-0.5,0.5-0.5,1c0,0.4,0.1,0.6,0.3,0.8S747.7-68.5,748.1-68.5z"/>
		<path d="M754-67.8h-1v-9.1h1V-67.8z"/>
		<path d="M757-67.8h-1v-9.1h1V-67.8z"/>
		<path d="M766-75.6c-0.9,0-1.7,0.3-2.2,0.9s-0.8,1.5-0.8,2.6s0.3,2,0.8,2.6s1.3,0.9,2.2,0.9c0.6,0,1.3-0.1,2-0.3v0.9
			c-0.6,0.2-1.3,0.3-2.2,0.3c-1.3,0-2.2-0.4-2.9-1.1s-1-1.9-1-3.3c0-0.9,0.2-1.7,0.5-2.3s0.8-1.2,1.4-1.5s1.4-0.5,2.2-0.5
			c0.9,0,1.7,0.2,2.4,0.5L768-75C767.3-75.4,766.7-75.6,766-75.6z"/>
		<path d="M773.7-67.8l-0.2-0.9l0,0c-0.3,0.4-0.6,0.7-1,0.8s-0.7,0.2-1.2,0.2c-0.6,0-1.1-0.2-1.5-0.5s-0.5-0.8-0.5-1.4
			c0-1.3,1-2,3.1-2h1.1V-72c0-0.5-0.1-0.9-0.3-1.1s-0.6-0.4-1-0.4c-0.5,0-1.1,0.2-1.8,0.5l-0.3-0.7c0.3-0.2,0.7-0.3,1-0.4
			s0.8-0.1,1.1-0.1c0.8,0,1.3,0.2,1.7,0.5s0.6,0.9,0.6,1.6v4.4h-0.8V-67.8z M771.5-68.5c0.6,0,1.1-0.2,1.4-0.5s0.5-0.8,0.5-1.4V-71
			h-1c-0.8,0-1.3,0.1-1.7,0.4s-0.5,0.5-0.5,1c0,0.4,0.1,0.6,0.3,0.8S771.1-68.5,771.5-68.5z"/>
		<path d="M779.4-67.7c-0.4,0-0.8-0.1-1.1-0.2s-0.6-0.4-0.9-0.7h-0.1c0,0.4,0.1,0.7,0.1,1.1v2.6h-1v-9.3h0.8l0.1,0.9l0,0
			c0.2-0.4,0.5-0.6,0.9-0.8s0.7-0.2,1.1-0.2c0.9,0,1.5,0.3,2,0.9S782-72,782-71c0,1.1-0.2,1.9-0.7,2.5S780.3-67.7,779.4-67.7z
			 M779.3-73.5c-0.7,0-1.1,0.2-1.4,0.5s-0.4,0.9-0.5,1.7v0.2c0,0.9,0.2,1.5,0.5,1.9s0.8,0.6,1.4,0.6c0.6,0,1-0.2,1.3-0.7
			s0.5-1.1,0.5-1.9s-0.2-1.4-0.5-1.8S779.9-73.5,779.3-73.5z"/>
		<path d="M787.9-69.5c0,0.6-0.2,1.1-0.7,1.4s-1.1,0.5-1.9,0.5c-0.9,0-1.5-0.1-2-0.4v-1c0.3,0.2,0.6,0.3,1,0.4s0.7,0.1,1,0.1
			c0.5,0,0.9-0.1,1.2-0.2s0.4-0.4,0.4-0.7c0-0.2-0.1-0.5-0.3-0.6s-0.6-0.4-1.3-0.6c-0.6-0.2-1-0.4-1.3-0.6s-0.4-0.4-0.6-0.6
			s-0.2-0.5-0.2-0.8c0-0.5,0.2-0.9,0.6-1.2s1-0.5,1.8-0.5c0.7,0,1.4,0.1,2,0.4l-0.3,0.8c-0.6-0.3-1.2-0.4-1.8-0.4
			c-0.5,0-0.8,0.1-1,0.2s-0.4,0.3-0.4,0.6c0,0.2,0,0.3,0.1,0.4s0.2,0.2,0.4,0.3s0.6,0.3,1.1,0.5c0.8,0.3,1.3,0.6,1.5,0.8
			S787.9-70,787.9-69.5z"/>
		<path d="M793.8-71.3v3.6h-1v-8.6h2.3c1.1,0,1.8,0.2,2.3,0.6s0.8,1,0.8,1.8c0,1.1-0.6,1.9-1.7,2.3l2.3,3.8h-1.2l-2.1-3.6
			L793.8-71.3L793.8-71.3z M793.8-72.2h1.4c0.7,0,1.2-0.1,1.5-0.4s0.5-0.7,0.5-1.3c0-0.6-0.2-1-0.5-1.2s-0.9-0.4-1.6-0.4h-1.3
			L793.8-72.2L793.8-72.2z"/>
		<path d="M802.8-67.7c-0.9,0-1.7-0.3-2.2-0.9s-0.8-1.4-0.8-2.4s0.3-1.9,0.8-2.5s1.2-0.9,2.1-0.9c0.8,0,1.4,0.3,1.9,0.8
			s0.7,1.2,0.7,2.1v0.6h-4.4c0,0.8,0.2,1.3,0.6,1.7s0.9,0.6,1.5,0.6c0.7,0,1.4-0.1,2.1-0.4v0.9c-0.3,0.1-0.7,0.3-1,0.3
			S803.2-67.7,802.8-67.7z M802.5-73.5c-0.5,0-0.9,0.2-1.2,0.5s-0.5,0.8-0.5,1.4h3.4c0-0.6-0.1-1.1-0.4-1.4S803-73.5,802.5-73.5z"/>
		<path d="M812-74.2v0.6l-1.2,0.1c0.1,0.1,0.2,0.3,0.3,0.5s0.1,0.5,0.1,0.7c0,0.6-0.2,1.1-0.6,1.5s-1,0.6-1.8,0.6
			c-0.2,0-0.4,0-0.5,0c-0.4,0.2-0.6,0.5-0.6,0.8c0,0.2,0.1,0.3,0.2,0.4s0.4,0.1,0.7,0.1h1.1c0.7,0,1.2,0.1,1.6,0.4s0.6,0.7,0.6,1.3
			c0,0.7-0.3,1.3-0.9,1.6s-1.4,0.6-2.5,0.6c-0.8,0-1.5-0.2-1.9-0.5s-0.7-0.8-0.7-1.3c0-0.4,0.1-0.7,0.4-1s0.6-0.5,1.1-0.6
			c-0.2-0.1-0.3-0.2-0.4-0.3s-0.2-0.3-0.2-0.5s0.1-0.4,0.2-0.6s0.3-0.3,0.6-0.5c-0.3-0.1-0.6-0.4-0.8-0.7s-0.3-0.7-0.3-1.1
			c0-0.7,0.2-1.2,0.6-1.6s1-0.6,1.8-0.6c0.3,0,0.6,0,0.9,0.1H812z M806.9-66.7c0,0.3,0.1,0.6,0.4,0.8s0.7,0.3,1.3,0.3
			c0.8,0,1.4-0.1,1.8-0.4s0.6-0.6,0.6-1c0-0.3-0.1-0.6-0.3-0.7s-0.6-0.2-1.2-0.2h-1.2c-0.4,0-0.8,0.1-1,0.3S806.9-67.1,806.9-66.7z
			 M807.5-72.2c0,0.4,0.1,0.8,0.4,1s0.6,0.3,1.1,0.3c0.9,0,1.4-0.5,1.4-1.4c0-1-0.5-1.4-1.4-1.4c-0.5,0-0.8,0.1-1.1,0.4
			S807.5-72.6,807.5-72.2z"/>
		<path d="M814.3-74.2v4.2c0,0.5,0.1,0.9,0.4,1.2s0.6,0.4,1.1,0.4c0.7,0,1.2-0.2,1.5-0.6s0.5-1,0.5-1.8v-3.4h1v6.4H818l-0.1-0.9
			h-0.1c-0.2,0.3-0.5,0.6-0.8,0.7s-0.8,0.3-1.2,0.3c-0.8,0-1.4-0.2-1.8-0.6s-0.6-1-0.6-1.8v-4.2h0.9V-74.2z"/>
		<path d="M821.7-67.8h-1v-9.1h1V-67.8z"/>
		<path d="M827.7-67.8l-0.2-0.9l0,0c-0.3,0.4-0.6,0.7-1,0.8s-0.7,0.2-1.2,0.2c-0.6,0-1.1-0.2-1.5-0.5s-0.5-0.8-0.5-1.4
			c0-1.3,1-2,3.1-2h1.1V-72c0-0.5-0.1-0.9-0.3-1.1s-0.6-0.4-1-0.4c-0.5,0-1.1,0.2-1.8,0.5l-0.3-0.7c0.3-0.2,0.7-0.3,1-0.4
			s0.8-0.1,1.1-0.1c0.8,0,1.3,0.2,1.7,0.5s0.6,0.9,0.6,1.6v4.4h-0.8V-67.8z M825.5-68.5c0.6,0,1.1-0.2,1.4-0.5s0.5-0.8,0.5-1.4V-71
			h-1c-0.8,0-1.3,0.1-1.7,0.4s-0.5,0.5-0.5,1c0,0.4,0.1,0.6,0.3,0.8S825.1-68.5,825.5-68.5z"/>
		<path d="M833.4-74.3c0.3,0,0.5,0,0.8,0.1l-0.1,0.9c-0.3-0.1-0.5-0.1-0.7-0.1c-0.5,0-1,0.2-1.3,0.6s-0.6,0.9-0.6,1.6v3.4h-1v-6.4
			h0.8l0.1,1.2l0,0c0.2-0.4,0.5-0.7,0.9-1S833-74.3,833.4-74.3z"/>
		<path d="M840.7-73c0.9,0,1.6,0.2,2.1,0.7s0.8,1.1,0.8,1.8c0,0.9-0.3,1.6-0.8,2.1s-1.3,0.8-2.3,0.8s-1.7-0.2-2.2-0.5V-69
			c0.3,0.2,0.6,0.3,1,0.4s0.8,0.1,1.2,0.1c0.7,0,1.2-0.2,1.6-0.5s0.6-0.8,0.6-1.4c0-1.2-0.7-1.8-2.2-1.8c-0.4,0-0.9,0.1-1.5,0.2
			l-0.5-0.3l0.3-4h4.3v0.9h-3.4l-0.2,2.6C839.8-73,840.2-73,840.7-73z"/>
		<path d="M850.9-69.8h-1.3v2h-0.9v-2h-4.2v-0.8l4.1-5.8h1v5.8h1.3L850.9-69.8L850.9-69.8z M848.7-70.6v-2.8c0-0.6,0-1.2,0.1-1.9
			l0,0c-0.2,0.4-0.4,0.7-0.5,0.9l-2.7,3.8H848.7z"/>
		<path d="M855.2-67.7c-0.4,0-0.8-0.1-1.1-0.2s-0.6-0.4-0.9-0.7h-0.1c0,0.4,0.1,0.7,0.1,1.1v2.6h-1v-9.3h0.8l0.1,0.9l0,0
			c0.2-0.4,0.5-0.6,0.9-0.8s0.7-0.2,1.1-0.2c0.9,0,1.5,0.3,2,0.9s0.7,1.4,0.7,2.4c0,1.1-0.2,1.9-0.7,2.5S856-67.7,855.2-67.7z
			 M855-73.5c-0.7,0-1.1,0.2-1.4,0.5s-0.4,0.9-0.5,1.7v0.2c0,0.9,0.2,1.5,0.5,1.9s0.8,0.6,1.4,0.6c0.6,0,1-0.2,1.3-0.7
			s0.5-1.1,0.5-1.9s-0.2-1.4-0.5-1.8S855.6-73.5,855-73.5z"/>
		<path d="M861.1-71.1l-2.2-3.1h1.1l1.7,2.5l1.7-2.5h1.1l-2.2,3.1l2.3,3.3h-1.1l-1.8-2.6l-1.8,2.6h-1.1L861.1-71.1z"/>
	</g>
	<g>
		<path d="M654.5-52.3v-0.9h2.9v0.9H654.5z"/>
		<path d="M666.7-54.8l-0.4,2h1.7v0.8h-1.8l-0.5,2.5h-0.8l0.5-2.5h-1.8l-0.5,2.5h-0.8l0.5-2.5h-1.5v-0.8h1.7l0.4-2h-1.6v-0.7h1.8
			l0.5-2.6h0.8l-0.5,2.6h1.8l0.5-2.6h0.8l-0.5,2.6h1.5v0.7H666.7z M663.8-52.8h1.8l0.4-2h-1.8L663.8-52.8z"/>
		<path d="M672.8-56c0.8,0,1.5,0.3,2,0.9s0.7,1.4,0.7,2.4s-0.2,1.9-0.7,2.5s-1.1,0.9-2,0.9c-0.4,0-0.8-0.1-1.1-0.2s-0.6-0.4-0.9-0.7
			h-0.1l-0.2,0.8h-0.7v-9.1h1v2.2c0,0.5,0,0.9,0,1.3l0,0C671.2-55.7,671.9-56,672.8-56z M672.6-55.2c-0.7,0-1.1,0.2-1.4,0.6
			s-0.4,1-0.4,1.9s0.2,1.5,0.5,1.9s0.8,0.6,1.4,0.6c0.6,0,1-0.2,1.3-0.7s0.4-1.1,0.4-1.9c0-0.8-0.1-1.5-0.4-1.9
			S673.2-55.2,672.6-55.2z"/>
		<path d="M682.7-51.5h-1.3v2h-0.9v-2h-4.2v-0.8l4.1-5.8h1v5.8h1.3L682.7-51.5L682.7-51.5z M680.5-52.4v-2.8c0-0.6,0-1.2,0.1-1.9
			l0,0c-0.2,0.4-0.4,0.7-0.5,0.9l-2.7,3.8H680.5z"/>
		<path d="M688.9-56.1c0,0.5-0.2,1-0.5,1.3s-0.7,0.6-1.3,0.7l0,0c0.7,0.1,1.2,0.3,1.5,0.7s0.5,0.8,0.5,1.4c0,0.8-0.3,1.4-0.8,1.9
			s-1.4,0.7-2.4,0.7c-0.5,0-0.9,0-1.2-0.1s-0.7-0.2-1.1-0.4v-0.9c0.4,0.2,0.8,0.3,1.2,0.4s0.8,0.1,1.2,0.1c1.5,0,2.2-0.6,2.2-1.7
			c0-1-0.8-1.6-2.4-1.6H685v-0.8h0.9c0.7,0,1.2-0.1,1.6-0.4s0.6-0.7,0.6-1.2c0-0.4-0.1-0.7-0.4-1s-0.7-0.4-1.2-0.4
			c-0.4,0-0.7,0.1-1.1,0.2s-0.7,0.3-1.1,0.6l-0.5-0.7c0.4-0.3,0.8-0.5,1.2-0.7s0.9-0.2,1.5-0.2c0.8,0,1.5,0.2,1.9,0.6
			S688.9-56.7,688.9-56.1z"/>
		<path d="M693.8-56c0.8,0,1.5,0.3,2,0.9s0.7,1.4,0.7,2.4s-0.2,1.9-0.7,2.5s-1.1,0.9-2,0.9c-0.4,0-0.8-0.1-1.1-0.2s-0.6-0.4-0.9-0.7
			h-0.1l-0.2,0.8h-0.7v-9.1h1v2.2c0,0.5,0,0.9,0,1.3l0,0C692.3-55.7,693-56,693.8-56z M693.7-55.2c-0.7,0-1.1,0.2-1.4,0.6
			s-0.4,1-0.4,1.9s0.2,1.5,0.5,1.9s0.8,0.6,1.4,0.6c0.6,0,1-0.2,1.3-0.7s0.4-1.1,0.4-1.9c0-0.8-0.1-1.5-0.4-1.9
			S694.3-55.2,693.7-55.2z"/>
		<path d="M703.4-49.5h-5.6v-0.8l2.3-2.3c0.7-0.7,1.1-1.2,1.4-1.5s0.4-0.6,0.5-0.9s0.2-0.6,0.2-0.9c0-0.5-0.1-0.8-0.4-1.1
			s-0.7-0.4-1.2-0.4c-0.4,0-0.7,0.1-1,0.2s-0.7,0.3-1.1,0.6l-0.5-0.7c0.8-0.7,1.6-1,2.6-1c0.8,0,1.4,0.2,1.9,0.6s0.7,1,0.7,1.7
			c0,0.5-0.2,1.1-0.5,1.6s-0.9,1.2-1.7,2l-1.9,1.8l0,0h4.4v1.1H703.4z"/>
		<path d="M704.7-53.2c0-1.7,0.3-2.9,1-3.8s1.6-1.3,2.9-1.3c0.4,0,0.8,0,1,0.1v0.8c-0.3-0.1-0.6-0.1-1-0.1c-0.9,0-1.6,0.3-2.1,0.9
			s-0.8,1.5-0.8,2.7h0.1c0.4-0.7,1.1-1,2-1c0.8,0,1.4,0.2,1.8,0.7s0.7,1.1,0.7,1.9c0,0.9-0.2,1.6-0.7,2.1s-1.1,0.8-2,0.8
			s-1.6-0.3-2.1-1S704.7-52,704.7-53.2z M707.6-50.2c0.6,0,1-0.2,1.3-0.5s0.5-0.9,0.5-1.5s-0.1-1-0.4-1.3s-0.7-0.5-1.3-0.5
			c-0.4,0-0.7,0.1-1,0.2s-0.5,0.3-0.7,0.6s-0.3,0.5-0.3,0.8c0,0.4,0.1,0.8,0.2,1.1s0.4,0.6,0.7,0.8S707.2-50.2,707.6-50.2z"/>
	</g>
	<rect x="606.4" y="-58.6" class="st0" width="42.2" height="9.2"/>
</g>
<g id="white">
	<g>
		<g>
			<path class="st1" d="M66.6,52.4C60.4,62.9,51.9,71,41.9,71C33.2,71,31,65.1,31,58.9c0-3,0.5-6.7,1.5-10.5
				c-8.9-2.6-12.3-9.3-12.3-15.2c0-6.4,3.9-11.8,8.3-14.2l3.2,4.5c-1.3,0.7-6,4.1-6,10c0,4.2,3.5,8.8,8.4,10
				c4.7-13.9,14.4-28.6,24.8-28.6c5.8,0,8.9,4.6,8.9,10.1c0,4.8-2.1,11.2-7.6,16.5c-4.7,4.5-11.5,8-20.4,8h-0.9
				c-1.1,3.7-1.6,7.3-1.6,9.8c0,3.8,1.4,6.9,6,6.9c6.2,0,14.8-5.7,20.5-15.5C64.8,50.5,66.2,51.5,66.6,52.4z M40.7,44
				c6.1-0.2,11.2-2.8,14.8-6.5c3.7-3.8,5.7-8.4,5.7-11.9c0-2.6-1.1-4.5-3.4-4.5C52.1,21.1,44.9,32.9,40.7,44z"/>
			<path class="st1" d="M99.2,52.4c-4.9,8.4-10.5,15.8-17,15.8c-5.7,0-5.7-5-5.7-5s-3.8,5-8.9,5c-4,0-6-3.1-6-7.1
				c0-6.7,5.9-27.3,16.6-27.3c5.3,0,6.2,5.1,6.2,5.1l1.8-4.3h6.6l-8.6,21.2c-2.6,6.4-1.8,8.1-0.1,8.1c3.2,0,8.1-6.2,12.4-13.5
				C97.5,50.5,98.9,51.5,99.2,52.4z M77.2,57l5.2-13c0,0,0.1-4.5-3.1-4.5c-5.9,0-11.5,15.7-11.5,20.7c0,1.8,0.7,2.6,2.1,2.6
				C73.7,62.7,77.2,57,77.2,57z"/>
			<path class="st1" d="M130.9,52.4c-5,8.8-10.6,15.8-16.9,15.8c-5.2,0-8.1-3.8-3.7-14.8l2.5-6.2c1.3-3.2,2.2-5.4,2.2-6.4
				c0-0.9-0.8-1.4-1.8-1.4c-1.7,0-4.7,1.5-7.5,4.6l-9.5,23.4h-6.6l13.2-32.7h6.6l-1.3,3.3c3.2-3,6.3-4.1,8.8-4.1
				c2.7,0,4.9,1.6,4.9,4.9c0,1.9-0.8,4.4-2.1,7.7l-3.8,9.5c-3,7.4-1.2,8.1-0.2,8.1c3.2,0,8.2-6.2,12.5-13.5
				C129.1,50.5,130.6,51.5,130.9,52.4z"/>
			<path class="st1" d="M163.6,52.4c-4.9,8.4-10.5,15.8-17,15.8c-5.7,0-5.7-5-5.7-5s-3.8,5-8.9,5c-4,0-6-3.1-6-7.1
				c0-6.7,5.9-27.3,16.6-27.3c5.3,0,6.2,5.1,6.2,5.1l6.8-16.8h6.6l-13.6,33.7c-2.8,6.9-1.6,8.1-0.2,8.1c3.2,0,8.2-6.2,12.5-13.5
				C161.8,50.5,163.3,51.5,163.6,52.4z M141.5,57l5.2-12.9c0,0,0.1-4.5-3.1-4.5c-5.9,0-11.5,15.7-11.5,20.7c0,1.8,0.7,2.6,2.1,2.6
				C138,62.7,141.5,57,141.5,57z"/>
			<path class="st1" d="M194.6,52.4c-6.5,11.4-14.4,15.1-20.2,17.8c0,0-0.8,2.1-1.8,4.5c-2.5,5.8-5.6,11.2-11.9,11.2
				c-4.2,0-6.7-2.5-6.4-6c0.3-3.8,3.6-6.2,6.9-7.8c2.3-1.1,5.9-2.5,7.3-3.4l1.8-4.3c0,0-3.1,3.9-7.2,3.9c-4.6,0-8-3.5-3.3-14.8
				l7.6-18.7h6.6L165.4,56c-2.6,6.4-1.8,7.4-0.4,7.4c3.7,0,8.3-7.2,10.7-12l6.7-16.6h6.6l-12.5,30.9c5.9-3,11.2-7.3,15.6-15.1
				C192.8,50.5,194.3,51.5,194.6,52.4z M159.8,81.3c1.8-0.1,4.4-1.9,6.7-7.9c-1.9,0.8-3.7,1.4-5.4,2.5c-1.5,0.9-3.2,2.3-3.2,3.8
				C157.9,80.7,158.7,81.4,159.8,81.3z"/>
		</g>
		<g>
			<path class="st1" d="M196.8,36.4c-0.3-0.6-0.3-1.2,0-1.8c0.2-0.6,0.7-1,1.3-1.3c0.3-0.1,0.6-0.2,0.9-0.2c0.4,0,0.8,0.1,1.2,0.4
				c0.4,0.3,0.7,0.6,0.9,1.1l10.7,25.1l10.7-25.1c0.2-0.4,0.5-0.8,0.9-1s0.8-0.4,1.3-0.4c0.3,0,0.6,0.1,0.9,0.2
				c0.6,0.3,1,0.7,1.2,1.2c0.3,0.6,0.3,1.2,0,1.8l-12.9,29.9c-0.2,0.5-0.5,0.8-0.9,1.1c-0.4,0.2-0.9,0.4-1.4,0.4
				c-0.4,0-0.8-0.2-1.1-0.4c-0.4-0.2-0.6-0.6-0.8-1L196.8,36.4z"/>
			<path class="st1" d="M249.1,60.4h-16.6l-2.5,5.9c-0.2,0.4-0.5,0.8-0.9,1s-0.8,0.4-1.2,0.4c-0.3,0-0.7-0.1-1-0.2
				c-0.6-0.3-1-0.7-1.2-1.3c-0.2-0.6-0.1-1.2,0.1-1.8l12.9-29.9c0.4-1,1.1-1.4,2.1-1.4c0.5,0,0.9,0.1,1.3,0.4c0.4,0.2,0.7,0.6,0.9,1
				l12.9,29.9c0.3,0.6,0.3,1.2,0.1,1.8c-0.2,0.6-0.6,1-1.2,1.3c-0.3,0.1-0.7,0.2-1,0.2c-0.5,0-0.9-0.1-1.3-0.4
				c-0.4-0.2-0.7-0.6-0.9-1L249.1,60.4z M234.4,55.8h12.8l-6.4-15.1L234.4,55.8z"/>
			<path class="st1" d="M266.6,63h16.5c0.3,0,0.6,0.1,0.9,0.2c0.3,0.1,0.5,0.3,0.7,0.5s0.4,0.5,0.5,0.7c0.1,0.3,0.2,0.6,0.2,0.9
				s-0.1,0.6-0.2,0.9s-0.3,0.5-0.5,0.7s-0.5,0.4-0.7,0.5s-0.6,0.2-0.9,0.2H264c-0.6-0.1-1.1-0.3-1.4-0.7c-0.4-0.4-0.6-0.9-0.6-1.6
				V35.5c0-0.3,0.1-0.6,0.2-0.9s0.3-0.5,0.5-0.7s0.4-0.4,0.7-0.5s0.6-0.2,0.9-0.2c0.6,0,1.2,0.2,1.7,0.7c0.5,0.4,0.7,1,0.7,1.7V63
				H266.6z"/>
			<path class="st1" d="M297,63h16.5c0.3,0,0.6,0.1,0.9,0.2c0.3,0.1,0.5,0.3,0.7,0.5s0.4,0.5,0.5,0.7c0.1,0.3,0.2,0.6,0.2,0.9
				s-0.1,0.6-0.2,0.9s-0.3,0.5-0.5,0.7s-0.5,0.4-0.7,0.5s-0.6,0.2-0.9,0.2h-19.1c-0.6-0.1-1.1-0.3-1.4-0.7c-0.4-0.4-0.6-0.9-0.6-1.6
				V35.5c0-0.3,0.1-0.6,0.2-0.9s0.3-0.5,0.5-0.7s0.4-0.4,0.7-0.5s0.6-0.2,0.9-0.2c0.6,0,1.2,0.2,1.7,0.7c0.5,0.4,0.7,1,0.7,1.7V63
				H297z"/>
			<path class="st1" d="M325,67.7c-0.6-0.1-1.1-0.3-1.6-0.7c-0.4-0.4-0.6-1-0.6-1.6V35.5c0-0.7,0.2-1.2,0.7-1.7
				c0.5-0.4,1-0.7,1.7-0.7h19.7c0.6,0,1.2,0.2,1.6,0.7c0.4,0.4,0.7,1,0.7,1.6s-0.2,1.2-0.7,1.7c-0.4,0.5-1,0.7-1.6,0.7h-17.3v9.9
				H341c0.3,0,0.6,0.1,0.9,0.2c0.3,0.1,0.5,0.3,0.8,0.5c0.2,0.2,0.4,0.5,0.5,0.8s0.2,0.6,0.2,0.9c0,0.6-0.2,1.2-0.7,1.6
				c-0.5,0.4-1,0.7-1.7,0.7h-13.4V63h17.3c0.3,0,0.6,0.1,0.9,0.2s0.5,0.3,0.7,0.5s0.4,0.5,0.5,0.7c0.1,0.3,0.2,0.6,0.2,0.9
				c0,0.7-0.2,1.2-0.7,1.7c-0.4,0.5-1,0.7-1.6,0.6L325,67.7L325,67.7z"/>
			<path class="st1" d="M366.2,48.8l11.3-14.9c0.5-0.5,1-0.8,1.7-0.8c0.6,0,1.1,0.2,1.5,0.6c0.5,0.4,0.7,0.9,0.8,1.5
				c0.1,0.6-0.1,1.2-0.6,1.9l-12.4,15.8v12.5c0,0.6-0.2,1.2-0.7,1.6s-1,0.7-1.6,0.7s-1.2-0.2-1.6-0.7c-0.5-0.4-0.7-1-0.7-1.6V52.9
				l-12.6-15.8c-0.4-0.5-0.6-1.1-0.6-1.7c0-0.6,0.3-1.2,0.8-1.6c0.2-0.2,0.5-0.3,0.7-0.4c0.3-0.1,0.5-0.1,0.8-0.1s0.6,0.1,0.9,0.2
				c0.3,0.1,0.6,0.3,0.8,0.6L366.2,48.8z"/>
		</g>
	</g>
</g>
</svg>
